<svg width="117" height="450" viewBox="0 0 117 450" fill="none" xmlns="http://www.w3.org/2000/svg">
<path d="M109.032 15.5459C109.818 15.5308 111.028 15.7729 111.678 16C111.678 16 109.349 11.8373 110.423 9.35478C112.903 8.34059 117.001 10.6263 117.001 10.6263C116.79 9.96027 116.533 8.7493 116.548 7.9773C116.518 7.2053 116.775 5.99433 117.001 5.32829C117.001 5.32829 112.903 7.62914 110.423 6.61495C109.38 4.13246 111.693 5.36304e-06 111.693 5.36304e-06C111.028 0.211926 109.803 0.469258 109.047 0.454121C108.276 0.469258 107.066 0.227063 106.4 5.13168e-06C106.4 5.13168e-06 108.684 4.07191 107.686 6.5544C105.221 7.68969 101.001 5.32829 101.001 5.32829C101.213 5.99433 101.47 7.2053 101.455 7.9773C101.485 8.7493 101.228 9.96027 101.001 10.6263C101.001 10.6263 105.191 8.28004 107.671 9.38506C108.714 11.8676 106.4 15.9849 106.4 15.9849C107.066 15.7729 108.276 15.5156 109.032 15.5308" fill="#A05C64"/>
<path d="M31.0317 15.5459C31.8181 15.5308 33.0279 15.7729 33.6782 16C33.6782 16 31.3493 11.8373 32.423 9.35478C34.9032 8.34059 39.0015 10.6263 39.0015 10.6263C38.7897 9.96027 38.5327 8.7493 38.5478 7.9773C38.5175 7.2053 38.7746 5.99433 39.0015 5.32829C39.0015 5.32829 34.9032 7.62914 32.423 6.61495C31.3795 4.13246 33.6933 5.36304e-06 33.6933 5.36304e-06C33.0279 0.211926 31.803 0.469258 31.0468 0.454121C30.2756 0.469258 29.0657 0.227063 28.4003 5.13168e-06C28.4003 5.13168e-06 30.6839 4.07191 29.6858 6.5544C27.2207 7.68969 23.0015 5.32829 23.0015 5.32829C23.2132 5.99433 23.4703 7.2053 23.4552 7.9773C23.4854 8.7493 23.2283 9.96027 23.0015 10.6263C23.0015 10.6263 27.1905 8.28004 29.6707 9.38506C30.7141 11.8676 28.4003 15.9849 28.4003 15.9849C29.0657 15.7729 30.2756 15.5156 31.0317 15.5308" fill="#A05C64"/>
<path d="M109.032 263.546C109.818 263.531 111.028 263.773 111.678 264C111.678 264 109.349 259.837 110.423 257.355C112.903 256.341 117.001 258.626 117.001 258.626C116.79 257.96 116.533 256.749 116.548 255.977C116.518 255.205 116.775 253.994 117.001 253.328C117.001 253.328 112.903 255.629 110.423 254.615C109.38 252.132 111.693 248 111.693 248C111.028 248.212 109.803 248.469 109.047 248.454C108.276 248.469 107.066 248.227 106.4 248C106.4 248 108.684 252.072 107.686 254.554C105.221 255.69 101.001 253.328 101.001 253.328C101.213 253.994 101.47 255.205 101.455 255.977C101.485 256.749 101.228 257.96 101.001 258.626C101.001 258.626 105.191 256.28 107.671 257.385C108.714 259.868 106.4 263.985 106.4 263.985C107.066 263.773 108.276 263.516 109.032 263.531" fill="#A05C64"/>
<path d="M31.0317 263.546C31.8181 263.531 33.0279 263.773 33.6782 264C33.6782 264 31.3493 259.837 32.423 257.355C34.9032 256.341 39.0015 258.626 39.0015 258.626C38.7897 257.96 38.5327 256.749 38.5478 255.977C38.5175 255.205 38.7746 253.994 39.0015 253.328C39.0015 253.328 34.9032 255.629 32.423 254.615C31.3795 252.132 33.6933 248 33.6933 248C33.0279 248.212 31.803 248.469 31.0468 248.454C30.2756 248.469 29.0657 248.227 28.4003 248C28.4003 248 30.6839 252.072 29.6858 254.554C27.2207 255.69 23.0015 253.328 23.0015 253.328C23.2132 253.994 23.4703 255.205 23.4552 255.977C23.4854 256.749 23.2283 257.96 23.0015 258.626C23.0015 258.626 27.1905 256.28 29.6707 257.385C30.7141 259.868 28.4003 263.985 28.4003 263.985C29.0657 263.773 30.2756 263.516 31.0317 263.531" fill="#A05C64"/>
<path d="M109.032 139.546C109.818 139.531 111.028 139.773 111.678 140C111.678 140 109.349 135.837 110.423 133.355C112.903 132.341 117.001 134.626 117.001 134.626C116.79 133.96 116.533 132.749 116.548 131.977C116.518 131.205 116.775 129.994 117.001 129.328C117.001 129.328 112.903 131.629 110.423 130.615C109.38 128.132 111.693 124 111.693 124C111.028 124.212 109.803 124.469 109.047 124.454C108.276 124.469 107.066 124.227 106.4 124C106.4 124 108.684 128.072 107.686 130.554C105.221 131.69 101.001 129.328 101.001 129.328C101.213 129.994 101.47 131.205 101.455 131.977C101.485 132.749 101.228 133.96 101.001 134.626C101.001 134.626 105.191 132.28 107.671 133.385C108.714 135.868 106.4 139.985 106.4 139.985C107.066 139.773 108.276 139.516 109.032 139.531" fill="#A05C64"/>
<path d="M31.0317 139.546C31.8181 139.531 33.0279 139.773 33.6782 140C33.6782 140 31.3493 135.837 32.423 133.355C34.9032 132.341 39.0015 134.626 39.0015 134.626C38.7897 133.96 38.5327 132.749 38.5478 131.977C38.5175 131.205 38.7746 129.994 39.0015 129.328C39.0015 129.328 34.9032 131.629 32.423 130.615C31.3795 128.132 33.6933 124 33.6933 124C33.0279 124.212 31.803 124.469 31.0468 124.454C30.2756 124.469 29.0657 124.227 28.4003 124C28.4003 124 30.6839 128.072 29.6858 130.554C27.2207 131.69 23.0015 129.328 23.0015 129.328C23.2132 129.994 23.4703 131.205 23.4552 131.977C23.4854 132.749 23.2283 133.96 23.0015 134.626C23.0015 134.626 27.1905 132.28 29.6707 133.385C30.7141 135.868 28.4003 139.985 28.4003 139.985C29.0657 139.773 30.2756 139.516 31.0317 139.531" fill="#A05C64"/>
<path d="M65.0317 108.546C65.8181 108.531 67.0279 108.773 67.6782 109C67.6782 109 65.3493 104.837 66.423 102.355C68.9032 101.341 73.0015 103.626 73.0015 103.626C72.7897 102.96 72.5327 101.749 72.5478 100.977C72.5175 100.205 72.7746 98.9943 73.0015 98.3283C73.0015 98.3283 68.9032 100.629 66.423 99.615C65.3795 97.1325 67.6933 93 67.6933 93C67.0279 93.2119 65.803 93.4693 65.0468 93.4541C64.2756 93.4693 63.0657 93.2271 62.4003 93C62.4003 93 64.6839 97.0719 63.6858 99.5544C61.2207 100.69 57.0015 98.3283 57.0015 98.3283C57.2132 98.9943 57.4703 100.205 57.4552 100.977C57.4854 101.749 57.2283 102.96 57.0015 103.626C57.0015 103.626 61.1905 101.28 63.6707 102.385C64.7141 104.868 62.4003 108.985 62.4003 108.985C63.0657 108.773 64.2756 108.516 65.0317 108.531" fill="#A05C64"/>
<path d="M-2.96829 108.546C-2.1819 108.531 -0.972071 108.773 -0.321788 109C-0.321788 109 -2.65071 104.837 -1.57699 102.355C0.903166 101.341 5.00146 103.626 5.00146 103.626C4.78974 102.96 4.53266 101.749 4.54778 100.977C4.51753 100.205 4.77462 98.9943 5.00146 98.3283C5.00146 98.3283 0.903166 100.629 -1.57699 99.615C-2.62046 97.1325 -0.306664 93 -0.306664 93C-0.97207 93.2119 -2.19702 93.4693 -2.95317 93.4541C-3.72443 93.4693 -4.93426 93.2271 -5.59967 93C-5.59967 93 -3.31612 97.0719 -4.31423 99.5544C-6.77925 100.69 -10.9985 98.3283 -10.9985 98.3283C-10.7868 98.9943 -10.5297 100.205 -10.5448 100.977C-10.5146 101.749 -10.7717 102.96 -10.9985 103.626C-10.9985 103.626 -6.8095 101.28 -4.32935 102.385C-3.28587 104.868 -5.59967 108.985 -5.59967 108.985C-4.93426 108.773 -3.72443 108.516 -2.96829 108.531" fill="#A05C64"/>
<path d="M65.0317 294.546C65.8181 294.531 67.0279 294.773 67.6782 295C67.6782 295 65.3493 290.837 66.423 288.355C68.9032 287.341 73.0015 289.626 73.0015 289.626C72.7897 288.96 72.5327 287.749 72.5478 286.977C72.5175 286.205 72.7746 284.994 73.0015 284.328C73.0015 284.328 68.9032 286.629 66.423 285.615C65.3795 283.132 67.6933 279 67.6933 279C67.0279 279.212 65.803 279.469 65.0468 279.454C64.2756 279.469 63.0657 279.227 62.4003 279C62.4003 279 64.6839 283.072 63.6858 285.554C61.2207 286.69 57.0015 284.328 57.0015 284.328C57.2132 284.994 57.4703 286.205 57.4552 286.977C57.4854 287.749 57.2283 288.96 57.0015 289.626C57.0015 289.626 61.1905 287.28 63.6707 288.385C64.7141 290.868 62.4003 294.985 62.4003 294.985C63.0657 294.773 64.2756 294.516 65.0317 294.531" fill="#A05C64"/>
<path d="M-2.96829 294.546C-2.1819 294.531 -0.972071 294.773 -0.321788 295C-0.321788 295 -2.65071 290.837 -1.57699 288.355C0.903166 287.341 5.00146 289.626 5.00146 289.626C4.78974 288.96 4.53266 287.749 4.54778 286.977C4.51753 286.205 4.77462 284.994 5.00146 284.328C5.00146 284.328 0.903166 286.629 -1.57699 285.615C-2.62046 283.132 -0.306664 279 -0.306664 279C-0.97207 279.212 -2.19702 279.469 -2.95317 279.454C-3.72443 279.469 -4.93426 279.227 -5.59967 279C-5.59967 279 -3.31612 283.072 -4.31423 285.554C-6.77925 286.69 -10.9985 284.328 -10.9985 284.328C-10.7868 284.994 -10.5297 286.205 -10.5448 286.977C-10.5146 287.749 -10.7717 288.96 -10.9985 289.626C-10.9985 289.626 -6.8095 287.28 -4.32935 288.385C-3.28587 290.868 -5.59967 294.985 -5.59967 294.985C-4.93426 294.773 -3.72443 294.516 -2.96829 294.531" fill="#A05C64"/>
<path d="M109.032 387.546C109.818 387.531 111.028 387.773 111.678 388C111.678 388 109.349 383.837 110.423 381.355C112.903 380.341 117.001 382.626 117.001 382.626C116.79 381.96 116.533 380.749 116.548 379.977C116.518 379.205 116.775 377.994 117.001 377.328C117.001 377.328 112.903 379.629 110.423 378.615C109.38 376.132 111.693 372 111.693 372C111.028 372.212 109.803 372.469 109.047 372.454C108.276 372.469 107.066 372.227 106.4 372C106.4 372 108.684 376.072 107.686 378.554C105.221 379.69 101.001 377.328 101.001 377.328C101.213 377.994 101.47 379.205 101.455 379.977C101.485 380.749 101.228 381.96 101.001 382.626C101.001 382.626 105.191 380.28 107.671 381.385C108.714 383.868 106.4 387.985 106.4 387.985C107.066 387.773 108.276 387.516 109.032 387.531" fill="#A05C64"/>
<path d="M31.0317 387.546C31.8181 387.531 33.0279 387.773 33.6782 388C33.6782 388 31.3493 383.837 32.423 381.355C34.9032 380.341 39.0015 382.626 39.0015 382.626C38.7897 381.96 38.5327 380.749 38.5478 379.977C38.5175 379.205 38.7746 377.994 39.0015 377.328C39.0015 377.328 34.9032 379.629 32.423 378.615C31.3795 376.132 33.6933 372 33.6933 372C33.0279 372.212 31.803 372.469 31.0468 372.454C30.2756 372.469 29.0657 372.227 28.4003 372C28.4003 372 30.6839 376.072 29.6858 378.554C27.2207 379.69 23.0015 377.328 23.0015 377.328C23.2132 377.994 23.4703 379.205 23.4552 379.977C23.4854 380.749 23.2283 381.96 23.0015 382.626C23.0015 382.626 27.1905 380.28 29.6707 381.385C30.7141 383.868 28.4003 387.985 28.4003 387.985C29.0657 387.773 30.2756 387.516 31.0317 387.531" fill="#A05C64"/>
<path d="M109.032 77.5459C109.818 77.5308 111.028 77.7729 111.678 78C111.678 78 109.349 73.8373 110.423 71.3548C112.903 70.3406 117.001 72.6263 117.001 72.6263C116.79 71.9603 116.533 70.7493 116.548 69.9773C116.518 69.2053 116.775 67.9943 117.001 67.3283C117.001 67.3283 112.903 69.6291 110.423 68.615C109.38 66.1325 111.693 62 111.693 62C111.028 62.2119 109.803 62.4693 109.047 62.4541C108.276 62.4693 107.066 62.2271 106.4 62C106.4 62 108.684 66.0719 107.686 68.5544C105.221 69.6897 101.001 67.3283 101.001 67.3283C101.213 67.9943 101.47 69.2053 101.455 69.9773C101.485 70.7493 101.228 71.9603 101.001 72.6263C101.001 72.6263 105.191 70.28 107.671 71.3851C108.714 73.8676 106.4 77.9849 106.4 77.9849C107.066 77.7729 108.276 77.5156 109.032 77.5308" fill="#A05C64"/>
<path d="M31.0317 77.5459C31.8181 77.5308 33.0279 77.7729 33.6782 78C33.6782 78 31.3493 73.8373 32.423 71.3548C34.9032 70.3406 39.0015 72.6263 39.0015 72.6263C38.7897 71.9603 38.5327 70.7493 38.5478 69.9773C38.5175 69.2053 38.7746 67.9943 39.0015 67.3283C39.0015 67.3283 34.9032 69.6291 32.423 68.615C31.3795 66.1325 33.6933 62 33.6933 62C33.0279 62.2119 31.803 62.4693 31.0468 62.4541C30.2756 62.4693 29.0657 62.2271 28.4003 62C28.4003 62 30.6839 66.0719 29.6858 68.5544C27.2207 69.6897 23.0015 67.3283 23.0015 67.3283C23.2132 67.9943 23.4703 69.2053 23.4552 69.9773C23.4854 70.7493 23.2283 71.9603 23.0015 72.6263C23.0015 72.6263 27.1905 70.28 29.6707 71.3851C30.7141 73.8676 28.4003 77.9849 28.4003 77.9849C29.0657 77.7729 30.2756 77.5156 31.0317 77.5308" fill="#A05C64"/>
<path d="M65.0317 46.5459C65.8181 46.5308 67.0279 46.7729 67.6782 47C67.6782 47 65.3493 42.8373 66.423 40.3548C68.9032 39.3406 73.0015 41.6263 73.0015 41.6263C72.7897 40.9603 72.5327 39.7493 72.5478 38.9773C72.5175 38.2053 72.7746 36.9943 73.0015 36.3283C73.0015 36.3283 68.9032 38.6291 66.423 37.615C65.3795 35.1325 67.6933 31 67.6933 31C67.0279 31.2119 65.803 31.4693 65.0468 31.4541C64.2756 31.4693 63.0657 31.2271 62.4003 31C62.4003 31 64.6839 35.0719 63.6858 37.5544C61.2207 38.6897 57.0015 36.3283 57.0015 36.3283C57.2132 36.9943 57.4703 38.2053 57.4552 38.9773C57.4854 39.7493 57.2283 40.9603 57.0015 41.6263C57.0015 41.6263 61.1905 39.28 63.6707 40.3851C64.7141 42.8676 62.4003 46.9849 62.4003 46.9849C63.0657 46.7729 64.2756 46.5156 65.0317 46.5308" fill="#A05C64"/>
<path d="M-2.96829 46.5459C-2.1819 46.5308 -0.972071 46.7729 -0.321788 47C-0.321788 47 -2.65071 42.8373 -1.57699 40.3548C0.903166 39.3406 5.00146 41.6263 5.00146 41.6263C4.78974 40.9603 4.53266 39.7493 4.54778 38.9773C4.51753 38.2053 4.77462 36.9943 5.00146 36.3283C5.00146 36.3283 0.903166 38.6291 -1.57699 37.615C-2.62046 35.1325 -0.306664 31 -0.306664 31C-0.97207 31.2119 -2.19702 31.4693 -2.95317 31.4541C-3.72443 31.4693 -4.93426 31.2271 -5.59967 31C-5.59967 31 -3.31612 35.0719 -4.31423 37.5544C-6.77925 38.6897 -10.9985 36.3283 -10.9985 36.3283C-10.7868 36.9943 -10.5297 38.2053 -10.5448 38.9773C-10.5146 39.7493 -10.7717 40.9603 -10.9985 41.6263C-10.9985 41.6263 -6.8095 39.28 -4.32935 40.3851C-3.28587 42.8676 -5.59967 46.9849 -5.59967 46.9849C-4.93426 46.7729 -3.72443 46.5156 -2.96829 46.5308" fill="#A05C64"/>
<path d="M65.0317 232.546C65.8181 232.531 67.0279 232.773 67.6782 233C67.6782 233 65.3493 228.837 66.423 226.355C68.9032 225.341 73.0015 227.626 73.0015 227.626C72.7897 226.96 72.5327 225.749 72.5478 224.977C72.5175 224.205 72.7746 222.994 73.0015 222.328C73.0015 222.328 68.9032 224.629 66.423 223.615C65.3795 221.132 67.6933 217 67.6933 217C67.0279 217.212 65.803 217.469 65.0468 217.454C64.2756 217.469 63.0657 217.227 62.4003 217C62.4003 217 64.6839 221.072 63.6858 223.554C61.2207 224.69 57.0015 222.328 57.0015 222.328C57.2132 222.994 57.4703 224.205 57.4552 224.977C57.4854 225.749 57.2283 226.96 57.0015 227.626C57.0015 227.626 61.1905 225.28 63.6707 226.385C64.7141 228.868 62.4003 232.985 62.4003 232.985C63.0657 232.773 64.2756 232.516 65.0317 232.531" fill="#A05C64"/>
<path d="M-2.96829 232.546C-2.1819 232.531 -0.972071 232.773 -0.321788 233C-0.321788 233 -2.65071 228.837 -1.57699 226.355C0.903166 225.341 5.00146 227.626 5.00146 227.626C4.78974 226.96 4.53266 225.749 4.54778 224.977C4.51753 224.205 4.77462 222.994 5.00146 222.328C5.00146 222.328 0.903166 224.629 -1.57699 223.615C-2.62046 221.132 -0.306664 217 -0.306664 217C-0.97207 217.212 -2.19702 217.469 -2.95317 217.454C-3.72443 217.469 -4.93426 217.227 -5.59967 217C-5.59967 217 -3.31612 221.072 -4.31423 223.554C-6.77925 224.69 -10.9985 222.328 -10.9985 222.328C-10.7868 222.994 -10.5297 224.205 -10.5448 224.977C-10.5146 225.749 -10.7717 226.96 -10.9985 227.626C-10.9985 227.626 -6.8095 225.28 -4.32935 226.385C-3.28587 228.868 -5.59967 232.985 -5.59967 232.985C-4.93426 232.773 -3.72443 232.516 -2.96829 232.531" fill="#A05C64"/>
<path d="M109.032 325.546C109.818 325.531 111.028 325.773 111.678 326C111.678 326 109.349 321.837 110.423 319.355C112.903 318.341 117.001 320.626 117.001 320.626C116.79 319.96 116.533 318.749 116.548 317.977C116.518 317.205 116.775 315.994 117.001 315.328C117.001 315.328 112.903 317.629 110.423 316.615C109.38 314.132 111.693 310 111.693 310C111.028 310.212 109.803 310.469 109.047 310.454C108.276 310.469 107.066 310.227 106.4 310C106.4 310 108.684 314.072 107.686 316.554C105.221 317.69 101.001 315.328 101.001 315.328C101.213 315.994 101.47 317.205 101.455 317.977C101.485 318.749 101.228 319.96 101.001 320.626C101.001 320.626 105.191 318.28 107.671 319.385C108.714 321.868 106.4 325.985 106.4 325.985C107.066 325.773 108.276 325.516 109.032 325.531" fill="#A05C64"/>
<path d="M31.0317 325.546C31.8181 325.531 33.0279 325.773 33.6782 326C33.6782 326 31.3493 321.837 32.423 319.355C34.9032 318.341 39.0015 320.626 39.0015 320.626C38.7897 319.96 38.5327 318.749 38.5478 317.977C38.5175 317.205 38.7746 315.994 39.0015 315.328C39.0015 315.328 34.9032 317.629 32.423 316.615C31.3795 314.132 33.6933 310 33.6933 310C33.0279 310.212 31.803 310.469 31.0468 310.454C30.2756 310.469 29.0657 310.227 28.4003 310C28.4003 310 30.6839 314.072 29.6858 316.554C27.2207 317.69 23.0015 315.328 23.0015 315.328C23.2132 315.994 23.4703 317.205 23.4552 317.977C23.4854 318.749 23.2283 319.96 23.0015 320.626C23.0015 320.626 27.1905 318.28 29.6707 319.385C30.7141 321.868 28.4003 325.985 28.4003 325.985C29.0657 325.773 30.2756 325.516 31.0317 325.531" fill="#A05C64"/>
<path d="M109.032 201.546C109.818 201.531 111.028 201.773 111.678 202C111.678 202 109.349 197.837 110.423 195.355C112.903 194.341 117.001 196.626 117.001 196.626C116.79 195.96 116.533 194.749 116.548 193.977C116.518 193.205 116.775 191.994 117.001 191.328C117.001 191.328 112.903 193.629 110.423 192.615C109.38 190.132 111.693 186 111.693 186C111.028 186.212 109.803 186.469 109.047 186.454C108.276 186.469 107.066 186.227 106.4 186C106.4 186 108.684 190.072 107.686 192.554C105.221 193.69 101.001 191.328 101.001 191.328C101.213 191.994 101.47 193.205 101.455 193.977C101.485 194.749 101.228 195.96 101.001 196.626C101.001 196.626 105.191 194.28 107.671 195.385C108.714 197.868 106.4 201.985 106.4 201.985C107.066 201.773 108.276 201.516 109.032 201.531" fill="#A05C64"/>
<path d="M31.0317 201.546C31.8181 201.531 33.0279 201.773 33.6782 202C33.6782 202 31.3493 197.837 32.423 195.355C34.9032 194.341 39.0015 196.626 39.0015 196.626C38.7897 195.96 38.5327 194.749 38.5478 193.977C38.5175 193.205 38.7746 191.994 39.0015 191.328C39.0015 191.328 34.9032 193.629 32.423 192.615C31.3795 190.132 33.6933 186 33.6933 186C33.0279 186.212 31.803 186.469 31.0468 186.454C30.2756 186.469 29.0657 186.227 28.4003 186C28.4003 186 30.6839 190.072 29.6858 192.554C27.2207 193.69 23.0015 191.328 23.0015 191.328C23.2132 191.994 23.4703 193.205 23.4552 193.977C23.4854 194.749 23.2283 195.96 23.0015 196.626C23.0015 196.626 27.1905 194.28 29.6707 195.385C30.7141 197.868 28.4003 201.985 28.4003 201.985C29.0657 201.773 30.2756 201.516 31.0317 201.531" fill="#A05C64"/>
<path d="M65.0317 170.546C65.8181 170.531 67.0279 170.773 67.6782 171C67.6782 171 65.3493 166.837 66.423 164.355C68.9032 163.341 73.0015 165.626 73.0015 165.626C72.7897 164.96 72.5327 163.749 72.5478 162.977C72.5175 162.205 72.7746 160.994 73.0015 160.328C73.0015 160.328 68.9032 162.629 66.423 161.615C65.3795 159.132 67.6933 155 67.6933 155C67.0279 155.212 65.803 155.469 65.0468 155.454C64.2756 155.469 63.0657 155.227 62.4003 155C62.4003 155 64.6839 159.072 63.6858 161.554C61.2207 162.69 57.0015 160.328 57.0015 160.328C57.2132 160.994 57.4703 162.205 57.4552 162.977C57.4854 163.749 57.2283 164.96 57.0015 165.626C57.0015 165.626 61.1905 163.28 63.6707 164.385C64.7141 166.868 62.4003 170.985 62.4003 170.985C63.0657 170.773 64.2756 170.516 65.0317 170.531" fill="#A05C64"/>
<path d="M-2.96829 170.546C-2.1819 170.531 -0.972071 170.773 -0.321788 171C-0.321788 171 -2.65071 166.837 -1.57699 164.355C0.903166 163.341 5.00146 165.626 5.00146 165.626C4.78974 164.96 4.53266 163.749 4.54778 162.977C4.51753 162.205 4.77462 160.994 5.00146 160.328C5.00146 160.328 0.903166 162.629 -1.57699 161.615C-2.62046 159.132 -0.306664 155 -0.306664 155C-0.97207 155.212 -2.19702 155.469 -2.95317 155.454C-3.72443 155.469 -4.93426 155.227 -5.59967 155C-5.59967 155 -3.31612 159.072 -4.31423 161.554C-6.77925 162.69 -10.9985 160.328 -10.9985 160.328C-10.7868 160.994 -10.5297 162.205 -10.5448 162.977C-10.5146 163.749 -10.7717 164.96 -10.9985 165.626C-10.9985 165.626 -6.8095 163.28 -4.32935 164.385C-3.28587 166.868 -5.59967 170.985 -5.59967 170.985C-4.93426 170.773 -3.72443 170.516 -2.96829 170.531" fill="#A05C64"/>
<path d="M65.0317 356.546C65.8181 356.531 67.0279 356.773 67.6782 357C67.6782 357 65.3493 352.837 66.423 350.355C68.9032 349.341 73.0015 351.626 73.0015 351.626C72.7897 350.96 72.5327 349.749 72.5478 348.977C72.5175 348.205 72.7746 346.994 73.0015 346.328C73.0015 346.328 68.9032 348.629 66.423 347.615C65.3795 345.132 67.6933 341 67.6933 341C67.0279 341.212 65.803 341.469 65.0468 341.454C64.2756 341.469 63.0657 341.227 62.4003 341C62.4003 341 64.6839 345.072 63.6858 347.554C61.2207 348.69 57.0015 346.328 57.0015 346.328C57.2132 346.994 57.4703 348.205 57.4552 348.977C57.4854 349.749 57.2283 350.96 57.0015 351.626C57.0015 351.626 61.1905 349.28 63.6707 350.385C64.7141 352.868 62.4003 356.985 62.4003 356.985C63.0657 356.773 64.2756 356.516 65.0317 356.531" fill="#A05C64"/>
<path d="M-2.96829 356.546C-2.1819 356.531 -0.972071 356.773 -0.321788 357C-0.321788 357 -2.65071 352.837 -1.57699 350.355C0.903166 349.341 5.00146 351.626 5.00146 351.626C4.78974 350.96 4.53266 349.749 4.54778 348.977C4.51753 348.205 4.77462 346.994 5.00146 346.328C5.00146 346.328 0.903166 348.629 -1.57699 347.615C-2.62046 345.132 -0.306664 341 -0.306664 341C-0.97207 341.212 -2.19702 341.469 -2.95317 341.454C-3.72443 341.469 -4.93426 341.227 -5.59967 341C-5.59967 341 -3.31612 345.072 -4.31423 347.554C-6.77925 348.69 -10.9985 346.328 -10.9985 346.328C-10.7868 346.994 -10.5297 348.205 -10.5448 348.977C-10.5146 349.749 -10.7717 350.96 -10.9985 351.626C-10.9985 351.626 -6.8095 349.28 -4.32935 350.385C-3.28587 352.868 -5.59967 356.985 -5.59967 356.985C-4.93426 356.773 -3.72443 356.516 -2.96829 356.531" fill="#A05C64"/>
<path d="M65.0317 418.546C65.8181 418.531 67.0279 418.773 67.6782 419C67.6782 419 65.3493 414.837 66.423 412.355C68.9032 411.341 73.0015 413.626 73.0015 413.626C72.7897 412.96 72.5327 411.749 72.5478 410.977C72.5175 410.205 72.7746 408.994 73.0015 408.328C73.0015 408.328 68.9032 410.629 66.423 409.615C65.3795 407.132 67.6933 403 67.6933 403C67.0279 403.212 65.803 403.469 65.0468 403.454C64.2756 403.469 63.0657 403.227 62.4003 403C62.4003 403 64.6839 407.072 63.6858 409.554C61.2207 410.69 57.0015 408.328 57.0015 408.328C57.2132 408.994 57.4703 410.205 57.4552 410.977C57.4854 411.749 57.2283 412.96 57.0015 413.626C57.0015 413.626 61.1905 411.28 63.6707 412.385C64.7141 414.868 62.4003 418.985 62.4003 418.985C63.0657 418.773 64.2756 418.516 65.0317 418.531" fill="#A05C64"/>
<path d="M-2.96829 418.546C-2.1819 418.531 -0.972071 418.773 -0.321788 419C-0.321788 419 -2.65071 414.837 -1.57699 412.355C0.903166 411.341 5.00146 413.626 5.00146 413.626C4.78974 412.96 4.53266 411.749 4.54778 410.977C4.51753 410.205 4.77462 408.994 5.00146 408.328C5.00146 408.328 0.903166 410.629 -1.57699 409.615C-2.62046 407.132 -0.306664 403 -0.306664 403C-0.97207 403.212 -2.19702 403.469 -2.95317 403.454C-3.72443 403.469 -4.93426 403.227 -5.59967 403C-5.59967 403 -3.31612 407.072 -4.31423 409.554C-6.77925 410.69 -10.9985 408.328 -10.9985 408.328C-10.7868 408.994 -10.5297 410.205 -10.5448 410.977C-10.5146 411.749 -10.7717 412.96 -10.9985 413.626C-10.9985 413.626 -6.8095 411.28 -4.32935 412.385C-3.28587 414.868 -5.59967 418.985 -5.59967 418.985C-4.93426 418.773 -3.72443 418.516 -2.96829 418.531" fill="#A05C64"/>
<path d="M109.032 449.546C109.818 449.531 111.028 449.773 111.678 450C111.678 450 109.349 445.837 110.423 443.355C112.903 442.341 117.001 444.626 117.001 444.626C116.79 443.96 116.533 442.749 116.548 441.977C116.518 441.205 116.775 439.994 117.001 439.328C117.001 439.328 112.903 441.629 110.423 440.615C109.38 438.132 111.693 434 111.693 434C111.028 434.212 109.803 434.469 109.047 434.454C108.276 434.469 107.066 434.227 106.4 434C106.4 434 108.684 438.072 107.686 440.554C105.221 441.69 101.001 439.328 101.001 439.328C101.213 439.994 101.47 441.205 101.455 441.977C101.485 442.749 101.228 443.96 101.001 444.626C101.001 444.626 105.191 442.28 107.671 443.385C108.714 445.868 106.4 449.985 106.4 449.985C107.066 449.773 108.276 449.516 109.032 449.531" fill="#A05C64"/>
<path d="M31.0317 449.546C31.8181 449.531 33.0279 449.773 33.6782 450C33.6782 450 31.3493 445.837 32.423 443.355C34.9032 442.341 39.0015 444.626 39.0015 444.626C38.7897 443.96 38.5327 442.749 38.5478 441.977C38.5175 441.205 38.7746 439.994 39.0015 439.328C39.0015 439.328 34.9032 441.629 32.423 440.615C31.3795 438.132 33.6933 434 33.6933 434C33.0279 434.212 31.803 434.469 31.0468 434.454C30.2756 434.469 29.0657 434.227 28.4003 434C28.4003 434 30.6839 438.072 29.6858 440.554C27.2207 441.69 23.0015 439.328 23.0015 439.328C23.2132 439.994 23.4703 441.205 23.4552 441.977C23.4854 442.749 23.2283 443.96 23.0015 444.626C23.0015 444.626 27.1905 442.28 29.6707 443.385C30.7141 445.868 28.4003 449.985 28.4003 449.985C29.0657 449.773 30.2756 449.516 31.0317 449.531" fill="#A05C64"/>
</svg>
