<svg width="118" height="450" viewBox="0 0 118 450" fill="none" xmlns="http://www.w3.org/2000/svg">
<path d="M120.031 15.5459C120.817 15.5308 122.027 15.7729 122.677 16C122.677 16 120.348 11.8373 121.422 9.35478C123.902 8.34059 128 10.6263 128 10.6263C127.789 9.96027 127.531 8.7493 127.547 7.9773C127.516 7.2053 127.773 5.99433 128 5.32829C128 5.32829 123.902 7.62914 121.422 6.61495C120.378 4.13246 122.692 5.36304e-06 122.692 5.36304e-06C122.027 0.211926 120.802 0.469258 120.046 0.454121C119.274 0.469258 118.065 0.227063 117.399 5.13168e-06C117.399 5.13168e-06 119.683 4.07191 118.685 6.5544C116.22 7.68969 112 5.32829 112 5.32829C112.212 5.99433 112.469 7.2053 112.454 7.9773C112.484 8.7493 112.227 9.96027 112 10.6263C112 10.6263 116.189 8.28004 118.669 9.38506C119.713 11.8676 117.399 15.9849 117.399 15.9849C118.065 15.7729 119.274 15.5156 120.031 15.5308" fill="#A05C64"/>
<path d="M42.0305 15.5459C42.8169 15.5308 44.0267 15.7729 44.677 16C44.677 16 42.3481 11.8373 43.4218 9.35478C45.902 8.34059 50.0003 10.6263 50.0003 10.6263C49.7885 9.96027 49.5315 8.7493 49.5466 7.9773C49.5163 7.2053 49.7734 5.99433 50.0003 5.32829C50.0003 5.32829 45.902 7.62914 43.4218 6.61495C42.3783 4.13246 44.6921 5.36304e-06 44.6921 5.36304e-06C44.0267 0.211926 42.8018 0.469258 42.0456 0.454121C41.2744 0.469258 40.0645 0.227063 39.3991 5.13168e-06C39.3991 5.13168e-06 41.6827 4.07191 40.6846 6.5544C38.2195 7.68969 34.0003 5.32829 34.0003 5.32829C34.212 5.99433 34.4691 7.2053 34.4539 7.9773C34.4842 8.7493 34.2271 9.96027 34.0003 10.6263C34.0003 10.6263 38.1893 8.28004 40.6695 9.38506C41.7129 11.8676 39.3991 15.9849 39.3991 15.9849C40.0645 15.7729 41.2744 15.5156 42.0305 15.5308" fill="#A05C64"/>
<path d="M120.031 263.546C120.817 263.531 122.027 263.773 122.677 264C122.677 264 120.348 259.837 121.422 257.355C123.902 256.341 128 258.626 128 258.626C127.789 257.96 127.531 256.749 127.547 255.977C127.516 255.205 127.773 253.994 128 253.328C128 253.328 123.902 255.629 121.422 254.615C120.378 252.132 122.692 248 122.692 248C122.027 248.212 120.802 248.469 120.046 248.454C119.274 248.469 118.065 248.227 117.399 248C117.399 248 119.683 252.072 118.685 254.554C116.22 255.69 112 253.328 112 253.328C112.212 253.994 112.469 255.205 112.454 255.977C112.484 256.749 112.227 257.96 112 258.626C112 258.626 116.189 256.28 118.669 257.385C119.713 259.868 117.399 263.985 117.399 263.985C118.065 263.773 119.274 263.516 120.031 263.531" fill="#A05C64"/>
<path d="M42.0305 263.546C42.8169 263.531 44.0267 263.773 44.677 264C44.677 264 42.3481 259.837 43.4218 257.355C45.902 256.341 50.0003 258.626 50.0003 258.626C49.7885 257.96 49.5315 256.749 49.5466 255.977C49.5163 255.205 49.7734 253.994 50.0003 253.328C50.0003 253.328 45.902 255.629 43.4218 254.615C42.3783 252.132 44.6921 248 44.6921 248C44.0267 248.212 42.8018 248.469 42.0456 248.454C41.2744 248.469 40.0645 248.227 39.3991 248C39.3991 248 41.6827 252.072 40.6846 254.554C38.2195 255.69 34.0003 253.328 34.0003 253.328C34.212 253.994 34.4691 255.205 34.4539 255.977C34.4842 256.749 34.2271 257.96 34.0003 258.626C34.0003 258.626 38.1893 256.28 40.6695 257.385C41.7129 259.868 39.3991 263.985 39.3991 263.985C40.0645 263.773 41.2744 263.516 42.0305 263.531" fill="#A05C64"/>
<path d="M120.031 139.546C120.817 139.531 122.027 139.773 122.677 140C122.677 140 120.348 135.837 121.422 133.355C123.902 132.341 128 134.626 128 134.626C127.789 133.96 127.531 132.749 127.547 131.977C127.516 131.205 127.773 129.994 128 129.328C128 129.328 123.902 131.629 121.422 130.615C120.378 128.132 122.692 124 122.692 124C122.027 124.212 120.802 124.469 120.046 124.454C119.274 124.469 118.065 124.227 117.399 124C117.399 124 119.683 128.072 118.685 130.554C116.22 131.69 112 129.328 112 129.328C112.212 129.994 112.469 131.205 112.454 131.977C112.484 132.749 112.227 133.96 112 134.626C112 134.626 116.189 132.28 118.669 133.385C119.713 135.868 117.399 139.985 117.399 139.985C118.065 139.773 119.274 139.516 120.031 139.531" fill="#A05C64"/>
<path d="M42.0305 139.546C42.8169 139.531 44.0267 139.773 44.677 140C44.677 140 42.3481 135.837 43.4218 133.355C45.902 132.341 50.0003 134.626 50.0003 134.626C49.7885 133.96 49.5315 132.749 49.5466 131.977C49.5163 131.205 49.7734 129.994 50.0003 129.328C50.0003 129.328 45.902 131.629 43.4218 130.615C42.3783 128.132 44.6921 124 44.6921 124C44.0267 124.212 42.8018 124.469 42.0456 124.454C41.2744 124.469 40.0645 124.227 39.3991 124C39.3991 124 41.6827 128.072 40.6846 130.554C38.2195 131.69 34.0003 129.328 34.0003 129.328C34.212 129.994 34.4691 131.205 34.4539 131.977C34.4842 132.749 34.2271 133.96 34.0003 134.626C34.0003 134.626 38.1893 132.28 40.6695 133.385C41.7129 135.868 39.3991 139.985 39.3991 139.985C40.0645 139.773 41.2744 139.516 42.0305 139.531" fill="#A05C64"/>
<path d="M76.0305 108.546C76.8169 108.531 78.0267 108.773 78.677 109C78.677 109 76.3481 104.837 77.4218 102.355C79.902 101.341 84.0003 103.626 84.0003 103.626C83.7885 102.96 83.5315 101.749 83.5466 100.977C83.5163 100.205 83.7734 98.9943 84.0003 98.3283C84.0003 98.3283 79.902 100.629 77.4218 99.615C76.3783 97.1325 78.6921 93 78.6921 93C78.0267 93.2119 76.8018 93.4693 76.0456 93.4541C75.2744 93.4693 74.0645 93.2271 73.3991 93C73.3991 93 75.6827 97.0719 74.6846 99.5544C72.2195 100.69 68.0003 98.3283 68.0003 98.3283C68.212 98.9943 68.4691 100.205 68.4539 100.977C68.4842 101.749 68.2271 102.96 68.0003 103.626C68.0003 103.626 72.1893 101.28 74.6695 102.385C75.7129 104.868 73.3991 108.985 73.3991 108.985C74.0645 108.773 75.2744 108.516 76.0305 108.531" fill="#A05C64"/>
<path d="M8.03051 108.546C8.8169 108.531 10.0267 108.773 10.677 109C10.677 109 8.34809 104.837 9.42181 102.355C11.902 101.341 16.0003 103.626 16.0003 103.626C15.7885 102.96 15.5315 101.749 15.5466 100.977C15.5163 100.205 15.7734 98.9943 16.0003 98.3283C16.0003 98.3283 11.902 100.629 9.42181 99.615C8.37834 97.1325 10.6921 93 10.6921 93C10.0267 93.2119 8.80178 93.4693 8.04563 93.4541C7.27437 93.4693 6.06454 93.2271 5.39913 93C5.39913 93 7.68268 97.0719 6.68457 99.5544C4.21954 100.69 0.000263578 98.3283 0.000263578 98.3283C0.211983 98.9943 0.469073 100.205 0.453949 100.977C0.484195 101.749 0.227106 102.96 0.000263346 103.626C0.000263346 103.626 4.1893 101.28 6.66945 102.385C7.71293 104.868 5.39913 108.985 5.39913 108.985C6.06454 108.773 7.27437 108.516 8.03051 108.531" fill="#A05C64"/>
<path d="M76.0305 294.546C76.8169 294.531 78.0267 294.773 78.677 295C78.677 295 76.3481 290.837 77.4218 288.355C79.902 287.341 84.0003 289.626 84.0003 289.626C83.7885 288.96 83.5315 287.749 83.5466 286.977C83.5163 286.205 83.7734 284.994 84.0003 284.328C84.0003 284.328 79.902 286.629 77.4218 285.615C76.3783 283.132 78.6921 279 78.6921 279C78.0267 279.212 76.8018 279.469 76.0456 279.454C75.2744 279.469 74.0645 279.227 73.3991 279C73.3991 279 75.6827 283.072 74.6846 285.554C72.2195 286.69 68.0003 284.328 68.0003 284.328C68.212 284.994 68.4691 286.205 68.4539 286.977C68.4842 287.749 68.2271 288.96 68.0003 289.626C68.0003 289.626 72.1893 287.28 74.6695 288.385C75.7129 290.868 73.3991 294.985 73.3991 294.985C74.0645 294.773 75.2744 294.516 76.0305 294.531" fill="#A05C64"/>
<path d="M8.03051 294.546C8.8169 294.531 10.0267 294.773 10.677 295C10.677 295 8.34809 290.837 9.42181 288.355C11.902 287.341 16.0003 289.626 16.0003 289.626C15.7885 288.96 15.5315 287.749 15.5466 286.977C15.5163 286.205 15.7734 284.994 16.0003 284.328C16.0003 284.328 11.902 286.629 9.42181 285.615C8.37834 283.132 10.6921 279 10.6921 279C10.0267 279.212 8.80178 279.469 8.04563 279.454C7.27437 279.469 6.06454 279.227 5.39913 279C5.39913 279 7.68268 283.072 6.68457 285.554C4.21954 286.69 0.000263578 284.328 0.000263578 284.328C0.211983 284.994 0.469073 286.205 0.453949 286.977C0.484195 287.749 0.227106 288.96 0.000263346 289.626C0.000263346 289.626 4.1893 287.28 6.66945 288.385C7.71293 290.868 5.39913 294.985 5.39913 294.985C6.06454 294.773 7.27437 294.516 8.03051 294.531" fill="#A05C64"/>
<path d="M120.031 387.546C120.817 387.531 122.027 387.773 122.677 388C122.677 388 120.348 383.837 121.422 381.355C123.902 380.341 128 382.626 128 382.626C127.789 381.96 127.531 380.749 127.547 379.977C127.516 379.205 127.773 377.994 128 377.328C128 377.328 123.902 379.629 121.422 378.615C120.378 376.132 122.692 372 122.692 372C122.027 372.212 120.802 372.469 120.046 372.454C119.274 372.469 118.065 372.227 117.399 372C117.399 372 119.683 376.072 118.685 378.554C116.22 379.69 112 377.328 112 377.328C112.212 377.994 112.469 379.205 112.454 379.977C112.484 380.749 112.227 381.96 112 382.626C112 382.626 116.189 380.28 118.669 381.385C119.713 383.868 117.399 387.985 117.399 387.985C118.065 387.773 119.274 387.516 120.031 387.531" fill="#A05C64"/>
<path d="M42.0305 387.546C42.8169 387.531 44.0267 387.773 44.677 388C44.677 388 42.3481 383.837 43.4218 381.355C45.902 380.341 50.0003 382.626 50.0003 382.626C49.7885 381.96 49.5315 380.749 49.5466 379.977C49.5163 379.205 49.7734 377.994 50.0003 377.328C50.0003 377.328 45.902 379.629 43.4218 378.615C42.3783 376.132 44.6921 372 44.6921 372C44.0267 372.212 42.8018 372.469 42.0456 372.454C41.2744 372.469 40.0645 372.227 39.3991 372C39.3991 372 41.6827 376.072 40.6846 378.554C38.2195 379.69 34.0003 377.328 34.0003 377.328C34.212 377.994 34.4691 379.205 34.4539 379.977C34.4842 380.749 34.2271 381.96 34.0003 382.626C34.0003 382.626 38.1893 380.28 40.6695 381.385C41.7129 383.868 39.3991 387.985 39.3991 387.985C40.0645 387.773 41.2744 387.516 42.0305 387.531" fill="#A05C64"/>
<path d="M120.031 77.5459C120.817 77.5308 122.027 77.7729 122.677 78C122.677 78 120.348 73.8373 121.422 71.3548C123.902 70.3406 128 72.6263 128 72.6263C127.789 71.9603 127.531 70.7493 127.547 69.9773C127.516 69.2053 127.773 67.9943 128 67.3283C128 67.3283 123.902 69.6291 121.422 68.615C120.378 66.1325 122.692 62 122.692 62C122.027 62.2119 120.802 62.4693 120.046 62.4541C119.274 62.4693 118.065 62.2271 117.399 62C117.399 62 119.683 66.0719 118.685 68.5544C116.22 69.6897 112 67.3283 112 67.3283C112.212 67.9943 112.469 69.2053 112.454 69.9773C112.484 70.7493 112.227 71.9603 112 72.6263C112 72.6263 116.189 70.28 118.669 71.3851C119.713 73.8676 117.399 77.9849 117.399 77.9849C118.065 77.7729 119.274 77.5156 120.031 77.5308" fill="#A05C64"/>
<path d="M42.0305 77.5459C42.8169 77.5308 44.0267 77.7729 44.677 78C44.677 78 42.3481 73.8373 43.4218 71.3548C45.902 70.3406 50.0003 72.6263 50.0003 72.6263C49.7885 71.9603 49.5315 70.7493 49.5466 69.9773C49.5163 69.2053 49.7734 67.9943 50.0003 67.3283C50.0003 67.3283 45.902 69.6291 43.4218 68.615C42.3783 66.1325 44.6921 62 44.6921 62C44.0267 62.2119 42.8018 62.4693 42.0456 62.4541C41.2744 62.4693 40.0645 62.2271 39.3991 62C39.3991 62 41.6827 66.0719 40.6846 68.5544C38.2195 69.6897 34.0003 67.3283 34.0003 67.3283C34.212 67.9943 34.4691 69.2053 34.4539 69.9773C34.4842 70.7493 34.2271 71.9603 34.0003 72.6263C34.0003 72.6263 38.1893 70.28 40.6695 71.3851C41.7129 73.8676 39.3991 77.9849 39.3991 77.9849C40.0645 77.7729 41.2744 77.5156 42.0305 77.5308" fill="#A05C64"/>
<path d="M76.0305 46.5459C76.8169 46.5308 78.0267 46.7729 78.677 47C78.677 47 76.3481 42.8373 77.4218 40.3548C79.902 39.3406 84.0003 41.6263 84.0003 41.6263C83.7885 40.9603 83.5315 39.7493 83.5466 38.9773C83.5163 38.2053 83.7734 36.9943 84.0003 36.3283C84.0003 36.3283 79.902 38.6291 77.4218 37.615C76.3783 35.1325 78.6921 31 78.6921 31C78.0267 31.2119 76.8018 31.4693 76.0456 31.4541C75.2744 31.4693 74.0645 31.2271 73.3991 31C73.3991 31 75.6827 35.0719 74.6846 37.5544C72.2195 38.6897 68.0003 36.3283 68.0003 36.3283C68.212 36.9943 68.4691 38.2053 68.4539 38.9773C68.4842 39.7493 68.2271 40.9603 68.0003 41.6263C68.0003 41.6263 72.1893 39.28 74.6695 40.3851C75.7129 42.8676 73.3991 46.9849 73.3991 46.9849C74.0645 46.7729 75.2744 46.5156 76.0305 46.5308" fill="#A05C64"/>
<path d="M8.03051 46.5459C8.8169 46.5308 10.0267 46.7729 10.677 47C10.677 47 8.34809 42.8373 9.42181 40.3548C11.902 39.3406 16.0003 41.6263 16.0003 41.6263C15.7885 40.9603 15.5315 39.7493 15.5466 38.9773C15.5163 38.2053 15.7734 36.9943 16.0003 36.3283C16.0003 36.3283 11.902 38.6291 9.42181 37.615C8.37834 35.1325 10.6921 31 10.6921 31C10.0267 31.2119 8.80178 31.4693 8.04563 31.4541C7.27437 31.4693 6.06454 31.2271 5.39913 31C5.39913 31 7.68268 35.0719 6.68457 37.5544C4.21954 38.6897 0.000263578 36.3283 0.000263578 36.3283C0.211983 36.9943 0.469073 38.2053 0.453949 38.9773C0.484195 39.7493 0.227106 40.9603 0.000263346 41.6263C0.000263346 41.6263 4.1893 39.28 6.66945 40.3851C7.71293 42.8676 5.39913 46.9849 5.39913 46.9849C6.06454 46.7729 7.27437 46.5156 8.03051 46.5308" fill="#A05C64"/>
<path d="M76.0305 232.546C76.8169 232.531 78.0267 232.773 78.677 233C78.677 233 76.3481 228.837 77.4218 226.355C79.902 225.341 84.0003 227.626 84.0003 227.626C83.7885 226.96 83.5315 225.749 83.5466 224.977C83.5163 224.205 83.7734 222.994 84.0003 222.328C84.0003 222.328 79.902 224.629 77.4218 223.615C76.3783 221.132 78.6921 217 78.6921 217C78.0267 217.212 76.8018 217.469 76.0456 217.454C75.2744 217.469 74.0645 217.227 73.3991 217C73.3991 217 75.6827 221.072 74.6846 223.554C72.2195 224.69 68.0003 222.328 68.0003 222.328C68.212 222.994 68.4691 224.205 68.4539 224.977C68.4842 225.749 68.2271 226.96 68.0003 227.626C68.0003 227.626 72.1893 225.28 74.6695 226.385C75.7129 228.868 73.3991 232.985 73.3991 232.985C74.0645 232.773 75.2744 232.516 76.0305 232.531" fill="#A05C64"/>
<path d="M8.03051 232.546C8.8169 232.531 10.0267 232.773 10.677 233C10.677 233 8.34809 228.837 9.42181 226.355C11.902 225.341 16.0003 227.626 16.0003 227.626C15.7885 226.96 15.5315 225.749 15.5466 224.977C15.5163 224.205 15.7734 222.994 16.0003 222.328C16.0003 222.328 11.902 224.629 9.42181 223.615C8.37834 221.132 10.6921 217 10.6921 217C10.0267 217.212 8.80178 217.469 8.04563 217.454C7.27437 217.469 6.06454 217.227 5.39913 217C5.39913 217 7.68268 221.072 6.68457 223.554C4.21954 224.69 0.000263578 222.328 0.000263578 222.328C0.211983 222.994 0.469073 224.205 0.453949 224.977C0.484195 225.749 0.227106 226.96 0.000263346 227.626C0.000263346 227.626 4.1893 225.28 6.66945 226.385C7.71293 228.868 5.39913 232.985 5.39913 232.985C6.06454 232.773 7.27437 232.516 8.03051 232.531" fill="#A05C64"/>
<path d="M120.031 325.546C120.817 325.531 122.027 325.773 122.677 326C122.677 326 120.348 321.837 121.422 319.355C123.902 318.341 128 320.626 128 320.626C127.789 319.96 127.531 318.749 127.547 317.977C127.516 317.205 127.773 315.994 128 315.328C128 315.328 123.902 317.629 121.422 316.615C120.378 314.132 122.692 310 122.692 310C122.027 310.212 120.802 310.469 120.046 310.454C119.274 310.469 118.065 310.227 117.399 310C117.399 310 119.683 314.072 118.685 316.554C116.22 317.69 112 315.328 112 315.328C112.212 315.994 112.469 317.205 112.454 317.977C112.484 318.749 112.227 319.96 112 320.626C112 320.626 116.189 318.28 118.669 319.385C119.713 321.868 117.399 325.985 117.399 325.985C118.065 325.773 119.274 325.516 120.031 325.531" fill="#A05C64"/>
<path d="M42.0305 325.546C42.8169 325.531 44.0267 325.773 44.677 326C44.677 326 42.3481 321.837 43.4218 319.355C45.902 318.341 50.0003 320.626 50.0003 320.626C49.7885 319.96 49.5315 318.749 49.5466 317.977C49.5163 317.205 49.7734 315.994 50.0003 315.328C50.0003 315.328 45.902 317.629 43.4218 316.615C42.3783 314.132 44.6921 310 44.6921 310C44.0267 310.212 42.8018 310.469 42.0456 310.454C41.2744 310.469 40.0645 310.227 39.3991 310C39.3991 310 41.6827 314.072 40.6846 316.554C38.2195 317.69 34.0003 315.328 34.0003 315.328C34.212 315.994 34.4691 317.205 34.4539 317.977C34.4842 318.749 34.2271 319.96 34.0003 320.626C34.0003 320.626 38.1893 318.28 40.6695 319.385C41.7129 321.868 39.3991 325.985 39.3991 325.985C40.0645 325.773 41.2744 325.516 42.0305 325.531" fill="#A05C64"/>
<path d="M120.031 201.546C120.817 201.531 122.027 201.773 122.677 202C122.677 202 120.348 197.837 121.422 195.355C123.902 194.341 128 196.626 128 196.626C127.789 195.96 127.531 194.749 127.547 193.977C127.516 193.205 127.773 191.994 128 191.328C128 191.328 123.902 193.629 121.422 192.615C120.378 190.132 122.692 186 122.692 186C122.027 186.212 120.802 186.469 120.046 186.454C119.274 186.469 118.065 186.227 117.399 186C117.399 186 119.683 190.072 118.685 192.554C116.22 193.69 112 191.328 112 191.328C112.212 191.994 112.469 193.205 112.454 193.977C112.484 194.749 112.227 195.96 112 196.626C112 196.626 116.189 194.28 118.669 195.385C119.713 197.868 117.399 201.985 117.399 201.985C118.065 201.773 119.274 201.516 120.031 201.531" fill="#A05C64"/>
<path d="M42.0305 201.546C42.8169 201.531 44.0267 201.773 44.677 202C44.677 202 42.3481 197.837 43.4218 195.355C45.902 194.341 50.0003 196.626 50.0003 196.626C49.7885 195.96 49.5315 194.749 49.5466 193.977C49.5163 193.205 49.7734 191.994 50.0003 191.328C50.0003 191.328 45.902 193.629 43.4218 192.615C42.3783 190.132 44.6921 186 44.6921 186C44.0267 186.212 42.8018 186.469 42.0456 186.454C41.2744 186.469 40.0645 186.227 39.3991 186C39.3991 186 41.6827 190.072 40.6846 192.554C38.2195 193.69 34.0003 191.328 34.0003 191.328C34.212 191.994 34.4691 193.205 34.4539 193.977C34.4842 194.749 34.2271 195.96 34.0003 196.626C34.0003 196.626 38.1893 194.28 40.6695 195.385C41.7129 197.868 39.3991 201.985 39.3991 201.985C40.0645 201.773 41.2744 201.516 42.0305 201.531" fill="#A05C64"/>
<path d="M76.0305 170.546C76.8169 170.531 78.0267 170.773 78.677 171C78.677 171 76.3481 166.837 77.4218 164.355C79.902 163.341 84.0003 165.626 84.0003 165.626C83.7885 164.96 83.5315 163.749 83.5466 162.977C83.5163 162.205 83.7734 160.994 84.0003 160.328C84.0003 160.328 79.902 162.629 77.4218 161.615C76.3783 159.132 78.6921 155 78.6921 155C78.0267 155.212 76.8018 155.469 76.0456 155.454C75.2744 155.469 74.0645 155.227 73.3991 155C73.3991 155 75.6827 159.072 74.6846 161.554C72.2195 162.69 68.0003 160.328 68.0003 160.328C68.212 160.994 68.4691 162.205 68.4539 162.977C68.4842 163.749 68.2271 164.96 68.0003 165.626C68.0003 165.626 72.1893 163.28 74.6695 164.385C75.7129 166.868 73.3991 170.985 73.3991 170.985C74.0645 170.773 75.2744 170.516 76.0305 170.531" fill="#A05C64"/>
<path d="M8.03051 170.546C8.8169 170.531 10.0267 170.773 10.677 171C10.677 171 8.34809 166.837 9.42181 164.355C11.902 163.341 16.0003 165.626 16.0003 165.626C15.7885 164.96 15.5315 163.749 15.5466 162.977C15.5163 162.205 15.7734 160.994 16.0003 160.328C16.0003 160.328 11.902 162.629 9.42181 161.615C8.37834 159.132 10.6921 155 10.6921 155C10.0267 155.212 8.80178 155.469 8.04563 155.454C7.27437 155.469 6.06454 155.227 5.39913 155C5.39913 155 7.68268 159.072 6.68457 161.554C4.21954 162.69 0.000263578 160.328 0.000263578 160.328C0.211983 160.994 0.469073 162.205 0.453949 162.977C0.484195 163.749 0.227106 164.96 0.000263346 165.626C0.000263346 165.626 4.1893 163.28 6.66945 164.385C7.71293 166.868 5.39913 170.985 5.39913 170.985C6.06454 170.773 7.27437 170.516 8.03051 170.531" fill="#A05C64"/>
<path d="M76.0305 356.546C76.8169 356.531 78.0267 356.773 78.677 357C78.677 357 76.3481 352.837 77.4218 350.355C79.902 349.341 84.0003 351.626 84.0003 351.626C83.7885 350.96 83.5315 349.749 83.5466 348.977C83.5163 348.205 83.7734 346.994 84.0003 346.328C84.0003 346.328 79.902 348.629 77.4218 347.615C76.3783 345.132 78.6921 341 78.6921 341C78.0267 341.212 76.8018 341.469 76.0456 341.454C75.2744 341.469 74.0645 341.227 73.3991 341C73.3991 341 75.6827 345.072 74.6846 347.554C72.2195 348.69 68.0003 346.328 68.0003 346.328C68.212 346.994 68.4691 348.205 68.4539 348.977C68.4842 349.749 68.2271 350.96 68.0003 351.626C68.0003 351.626 72.1893 349.28 74.6695 350.385C75.7129 352.868 73.3991 356.985 73.3991 356.985C74.0645 356.773 75.2744 356.516 76.0305 356.531" fill="#A05C64"/>
<path d="M8.03051 356.546C8.8169 356.531 10.0267 356.773 10.677 357C10.677 357 8.34809 352.837 9.42181 350.355C11.902 349.341 16.0003 351.626 16.0003 351.626C15.7885 350.96 15.5315 349.749 15.5466 348.977C15.5163 348.205 15.7734 346.994 16.0003 346.328C16.0003 346.328 11.902 348.629 9.42181 347.615C8.37834 345.132 10.6921 341 10.6921 341C10.0267 341.212 8.80178 341.469 8.04563 341.454C7.27437 341.469 6.06454 341.227 5.39913 341C5.39913 341 7.68268 345.072 6.68457 347.554C4.21954 348.69 0.000263578 346.328 0.000263578 346.328C0.211983 346.994 0.469073 348.205 0.453949 348.977C0.484195 349.749 0.227106 350.96 0.000263346 351.626C0.000263346 351.626 4.1893 349.28 6.66945 350.385C7.71293 352.868 5.39913 356.985 5.39913 356.985C6.06454 356.773 7.27437 356.516 8.03051 356.531" fill="#A05C64"/>
<path d="M76.0305 418.546C76.8169 418.531 78.0267 418.773 78.677 419C78.677 419 76.3481 414.837 77.4218 412.355C79.902 411.341 84.0003 413.626 84.0003 413.626C83.7885 412.96 83.5315 411.749 83.5466 410.977C83.5163 410.205 83.7734 408.994 84.0003 408.328C84.0003 408.328 79.902 410.629 77.4218 409.615C76.3783 407.132 78.6921 403 78.6921 403C78.0267 403.212 76.8018 403.469 76.0456 403.454C75.2744 403.469 74.0645 403.227 73.3991 403C73.3991 403 75.6827 407.072 74.6846 409.554C72.2195 410.69 68.0003 408.328 68.0003 408.328C68.212 408.994 68.4691 410.205 68.4539 410.977C68.4842 411.749 68.2271 412.96 68.0003 413.626C68.0003 413.626 72.1893 411.28 74.6695 412.385C75.7129 414.868 73.3991 418.985 73.3991 418.985C74.0645 418.773 75.2744 418.516 76.0305 418.531" fill="#A05C64"/>
<path d="M8.03051 418.546C8.8169 418.531 10.0267 418.773 10.677 419C10.677 419 8.34809 414.837 9.42181 412.355C11.902 411.341 16.0003 413.626 16.0003 413.626C15.7885 412.96 15.5315 411.749 15.5466 410.977C15.5163 410.205 15.7734 408.994 16.0003 408.328C16.0003 408.328 11.902 410.629 9.42181 409.615C8.37834 407.132 10.6921 403 10.6921 403C10.0267 403.212 8.80178 403.469 8.04563 403.454C7.27437 403.469 6.06454 403.227 5.39913 403C5.39913 403 7.68268 407.072 6.68457 409.554C4.21954 410.69 0.000263578 408.328 0.000263578 408.328C0.211983 408.994 0.469073 410.205 0.453949 410.977C0.484195 411.749 0.227106 412.96 0.000263346 413.626C0.000263346 413.626 4.1893 411.28 6.66945 412.385C7.71293 414.868 5.39913 418.985 5.39913 418.985C6.06454 418.773 7.27437 418.516 8.03051 418.531" fill="#A05C64"/>
<path d="M120.031 449.546C120.817 449.531 122.027 449.773 122.677 450C122.677 450 120.348 445.837 121.422 443.355C123.902 442.341 128 444.626 128 444.626C127.789 443.96 127.531 442.749 127.547 441.977C127.516 441.205 127.773 439.994 128 439.328C128 439.328 123.902 441.629 121.422 440.615C120.378 438.132 122.692 434 122.692 434C122.027 434.212 120.802 434.469 120.046 434.454C119.274 434.469 118.065 434.227 117.399 434C117.399 434 119.683 438.072 118.685 440.554C116.22 441.69 112 439.328 112 439.328C112.212 439.994 112.469 441.205 112.454 441.977C112.484 442.749 112.227 443.96 112 444.626C112 444.626 116.189 442.28 118.669 443.385C119.713 445.868 117.399 449.985 117.399 449.985C118.065 449.773 119.274 449.516 120.031 449.531" fill="#A05C64"/>
<path d="M42.0305 449.546C42.8169 449.531 44.0267 449.773 44.677 450C44.677 450 42.3481 445.837 43.4218 443.355C45.902 442.341 50.0003 444.626 50.0003 444.626C49.7885 443.96 49.5315 442.749 49.5466 441.977C49.5163 441.205 49.7734 439.994 50.0003 439.328C50.0003 439.328 45.902 441.629 43.4218 440.615C42.3783 438.132 44.6921 434 44.6921 434C44.0267 434.212 42.8018 434.469 42.0456 434.454C41.2744 434.469 40.0645 434.227 39.3991 434C39.3991 434 41.6827 438.072 40.6846 440.554C38.2195 441.69 34.0003 439.328 34.0003 439.328C34.212 439.994 34.4691 441.205 34.4539 441.977C34.4842 442.749 34.2271 443.96 34.0003 444.626C34.0003 444.626 38.1893 442.28 40.6695 443.385C41.7129 445.868 39.3991 449.985 39.3991 449.985C40.0645 449.773 41.2744 449.516 42.0305 449.531" fill="#A05C64"/>
</svg>
