<svg width="117" height="450" viewBox="0 0 117 450" fill="none" xmlns="http://www.w3.org/2000/svg">
<path d="M109.031 15.5459C109.818 15.5308 111.027 15.7729 111.678 16C111.678 16 109.349 11.8373 110.423 9.35478C112.903 8.34059 117.001 10.6263 117.001 10.6263C116.789 9.96027 116.532 8.7493 116.547 7.9773C116.517 7.2053 116.774 5.99433 117.001 5.32829C117.001 5.32829 112.903 7.62914 110.423 6.61495C109.379 4.13246 111.693 5.36304e-06 111.693 5.36304e-06C111.027 0.211926 109.802 0.469258 109.046 0.454121C108.275 0.469258 107.065 0.227063 106.4 5.13168e-06C106.4 5.13168e-06 108.683 4.07191 107.685 6.5544C105.22 7.68969 101.001 5.32829 101.001 5.32829C101.213 5.99433 101.47 7.2053 101.455 7.9773C101.485 8.7493 101.228 9.96027 101.001 10.6263C101.001 10.6263 105.19 8.28004 107.67 9.38506C108.714 11.8676 106.4 15.9849 106.4 15.9849C107.065 15.7729 108.275 15.5156 109.031 15.5308" fill="#F8D2BE"/>
<path d="M31.0312 15.5459C31.8176 15.5308 33.0274 15.7729 33.6777 16C33.6777 16 31.3488 11.8373 32.4225 9.35478C34.9027 8.34059 39.001 10.6263 39.001 10.6263C38.7893 9.96027 38.5322 8.7493 38.5473 7.9773C38.517 7.2053 38.7741 5.99433 39.001 5.32829C39.001 5.32829 34.9027 7.62914 32.4225 6.61495C31.379 4.13246 33.6928 5.36304e-06 33.6928 5.36304e-06C33.0274 0.211926 31.8025 0.469258 31.0463 0.454121C30.2751 0.469258 29.0652 0.227063 28.3998 5.13168e-06C28.3998 5.13168e-06 30.6834 4.07191 29.6853 6.5544C27.2203 7.68969 23.001 5.32829 23.001 5.32829C23.2127 5.99433 23.4698 7.2053 23.4547 7.9773C23.4849 8.7493 23.2278 9.96027 23.001 10.6263C23.001 10.6263 27.19 8.28004 29.6702 9.38506C30.7136 11.8676 28.3998 15.9849 28.3998 15.9849C29.0652 15.7729 30.2751 15.5156 31.0312 15.5308" fill="#F8D2BE"/>
<path d="M109.031 263.546C109.818 263.531 111.027 263.773 111.678 264C111.678 264 109.349 259.837 110.423 257.355C112.903 256.341 117.001 258.626 117.001 258.626C116.789 257.96 116.532 256.749 116.547 255.977C116.517 255.205 116.774 253.994 117.001 253.328C117.001 253.328 112.903 255.629 110.423 254.615C109.379 252.132 111.693 248 111.693 248C111.027 248.212 109.802 248.469 109.046 248.454C108.275 248.469 107.065 248.227 106.4 248C106.4 248 108.683 252.072 107.685 254.554C105.22 255.69 101.001 253.328 101.001 253.328C101.213 253.994 101.47 255.205 101.455 255.977C101.485 256.749 101.228 257.96 101.001 258.626C101.001 258.626 105.19 256.28 107.67 257.385C108.714 259.868 106.4 263.985 106.4 263.985C107.065 263.773 108.275 263.516 109.031 263.531" fill="#F8D2BE"/>
<path d="M31.0312 263.546C31.8176 263.531 33.0274 263.773 33.6777 264C33.6777 264 31.3488 259.837 32.4225 257.355C34.9027 256.341 39.001 258.626 39.001 258.626C38.7893 257.96 38.5322 256.749 38.5473 255.977C38.517 255.205 38.7741 253.994 39.001 253.328C39.001 253.328 34.9027 255.629 32.4225 254.615C31.379 252.132 33.6928 248 33.6928 248C33.0274 248.212 31.8025 248.469 31.0463 248.454C30.2751 248.469 29.0652 248.227 28.3998 248C28.3998 248 30.6834 252.072 29.6853 254.554C27.2203 255.69 23.001 253.328 23.001 253.328C23.2127 253.994 23.4698 255.205 23.4547 255.977C23.4849 256.749 23.2278 257.96 23.001 258.626C23.001 258.626 27.19 256.28 29.6702 257.385C30.7136 259.868 28.3998 263.985 28.3998 263.985C29.0652 263.773 30.2751 263.516 31.0312 263.531" fill="#F8D2BE"/>
<path d="M109.031 139.546C109.818 139.531 111.027 139.773 111.678 140C111.678 140 109.349 135.837 110.423 133.355C112.903 132.341 117.001 134.626 117.001 134.626C116.789 133.96 116.532 132.749 116.547 131.977C116.517 131.205 116.774 129.994 117.001 129.328C117.001 129.328 112.903 131.629 110.423 130.615C109.379 128.132 111.693 124 111.693 124C111.027 124.212 109.802 124.469 109.046 124.454C108.275 124.469 107.065 124.227 106.4 124C106.4 124 108.683 128.072 107.685 130.554C105.22 131.69 101.001 129.328 101.001 129.328C101.213 129.994 101.47 131.205 101.455 131.977C101.485 132.749 101.228 133.96 101.001 134.626C101.001 134.626 105.19 132.28 107.67 133.385C108.714 135.868 106.4 139.985 106.4 139.985C107.065 139.773 108.275 139.516 109.031 139.531" fill="#F8D2BE"/>
<path d="M31.0312 139.546C31.8176 139.531 33.0274 139.773 33.6777 140C33.6777 140 31.3488 135.837 32.4225 133.355C34.9027 132.341 39.001 134.626 39.001 134.626C38.7893 133.96 38.5322 132.749 38.5473 131.977C38.517 131.205 38.7741 129.994 39.001 129.328C39.001 129.328 34.9027 131.629 32.4225 130.615C31.379 128.132 33.6928 124 33.6928 124C33.0274 124.212 31.8025 124.469 31.0463 124.454C30.2751 124.469 29.0652 124.227 28.3998 124C28.3998 124 30.6834 128.072 29.6853 130.554C27.2203 131.69 23.001 129.328 23.001 129.328C23.2127 129.994 23.4698 131.205 23.4547 131.977C23.4849 132.749 23.2278 133.96 23.001 134.626C23.001 134.626 27.19 132.28 29.6702 133.385C30.7136 135.868 28.3998 139.985 28.3998 139.985C29.0652 139.773 30.2751 139.516 31.0312 139.531" fill="#F8D2BE"/>
<path d="M65.0312 108.546C65.8176 108.531 67.0274 108.773 67.6777 109C67.6777 109 65.3488 104.837 66.4225 102.355C68.9027 101.341 73.001 103.626 73.001 103.626C72.7893 102.96 72.5322 101.749 72.5473 100.977C72.517 100.205 72.7741 98.9943 73.001 98.3283C73.001 98.3283 68.9027 100.629 66.4225 99.615C65.379 97.1325 67.6928 93 67.6928 93C67.0274 93.2119 65.8025 93.4693 65.0463 93.4541C64.2751 93.4693 63.0652 93.2271 62.3998 93C62.3998 93 64.6834 97.0719 63.6853 99.5544C61.2203 100.69 57.001 98.3283 57.001 98.3283C57.2127 98.9943 57.4698 100.205 57.4547 100.977C57.4849 101.749 57.2278 102.96 57.001 103.626C57.001 103.626 61.19 101.28 63.6702 102.385C64.7136 104.868 62.3998 108.985 62.3998 108.985C63.0652 108.773 64.2751 108.516 65.0312 108.531" fill="#F8D2BE"/>
<path d="M-2.96878 108.546C-2.18239 108.531 -0.972559 108.773 -0.322276 109C-0.322276 109 -2.6512 104.837 -1.57747 102.355C0.902678 101.341 5.00098 103.626 5.00098 103.626C4.78926 102.96 4.53217 101.749 4.54729 100.977C4.51704 100.205 4.77413 98.9943 5.00098 98.3283C5.00098 98.3283 0.902678 100.629 -1.57747 99.615C-2.62095 97.1325 -0.307152 93 -0.307152 93C-0.972559 93.2119 -2.19751 93.4693 -2.95365 93.4541C-3.72492 93.4693 -4.93475 93.2271 -5.60016 93C-5.60016 93 -3.3166 97.0719 -4.31471 99.5544C-6.77974 100.69 -10.999 98.3283 -10.999 98.3283C-10.7873 98.9943 -10.5302 100.205 -10.5453 100.977C-10.5151 101.749 -10.7722 102.96 -10.999 103.626C-10.999 103.626 -6.80999 101.28 -4.32984 102.385C-3.28636 104.868 -5.60016 108.985 -5.60016 108.985C-4.93475 108.773 -3.72492 108.516 -2.96878 108.531" fill="#F8D2BE"/>
<path d="M65.0312 294.546C65.8176 294.531 67.0274 294.773 67.6777 295C67.6777 295 65.3488 290.837 66.4225 288.355C68.9027 287.341 73.001 289.626 73.001 289.626C72.7893 288.96 72.5322 287.749 72.5473 286.977C72.517 286.205 72.7741 284.994 73.001 284.328C73.001 284.328 68.9027 286.629 66.4225 285.615C65.379 283.132 67.6928 279 67.6928 279C67.0274 279.212 65.8025 279.469 65.0463 279.454C64.2751 279.469 63.0652 279.227 62.3998 279C62.3998 279 64.6834 283.072 63.6853 285.554C61.2203 286.69 57.001 284.328 57.001 284.328C57.2127 284.994 57.4698 286.205 57.4547 286.977C57.4849 287.749 57.2278 288.96 57.001 289.626C57.001 289.626 61.19 287.28 63.6702 288.385C64.7136 290.868 62.3998 294.985 62.3998 294.985C63.0652 294.773 64.2751 294.516 65.0312 294.531" fill="#F8D2BE"/>
<path d="M-2.96878 294.546C-2.18239 294.531 -0.972559 294.773 -0.322276 295C-0.322276 295 -2.6512 290.837 -1.57747 288.355C0.902678 287.341 5.00098 289.626 5.00098 289.626C4.78926 288.96 4.53217 287.749 4.54729 286.977C4.51704 286.205 4.77413 284.994 5.00098 284.328C5.00098 284.328 0.902678 286.629 -1.57747 285.615C-2.62095 283.132 -0.307152 279 -0.307152 279C-0.972559 279.212 -2.19751 279.469 -2.95365 279.454C-3.72492 279.469 -4.93475 279.227 -5.60016 279C-5.60016 279 -3.3166 283.072 -4.31471 285.554C-6.77974 286.69 -10.999 284.328 -10.999 284.328C-10.7873 284.994 -10.5302 286.205 -10.5453 286.977C-10.5151 287.749 -10.7722 288.96 -10.999 289.626C-10.999 289.626 -6.80999 287.28 -4.32984 288.385C-3.28636 290.868 -5.60016 294.985 -5.60016 294.985C-4.93475 294.773 -3.72492 294.516 -2.96878 294.531" fill="#F8D2BE"/>
<path d="M109.031 387.546C109.818 387.531 111.027 387.773 111.678 388C111.678 388 109.349 383.837 110.423 381.355C112.903 380.341 117.001 382.626 117.001 382.626C116.789 381.96 116.532 380.749 116.547 379.977C116.517 379.205 116.774 377.994 117.001 377.328C117.001 377.328 112.903 379.629 110.423 378.615C109.379 376.132 111.693 372 111.693 372C111.027 372.212 109.802 372.469 109.046 372.454C108.275 372.469 107.065 372.227 106.4 372C106.4 372 108.683 376.072 107.685 378.554C105.22 379.69 101.001 377.328 101.001 377.328C101.213 377.994 101.47 379.205 101.455 379.977C101.485 380.749 101.228 381.96 101.001 382.626C101.001 382.626 105.19 380.28 107.67 381.385C108.714 383.868 106.4 387.985 106.4 387.985C107.065 387.773 108.275 387.516 109.031 387.531" fill="#F8D2BE"/>
<path d="M31.0312 387.546C31.8176 387.531 33.0274 387.773 33.6777 388C33.6777 388 31.3488 383.837 32.4225 381.355C34.9027 380.341 39.001 382.626 39.001 382.626C38.7893 381.96 38.5322 380.749 38.5473 379.977C38.517 379.205 38.7741 377.994 39.001 377.328C39.001 377.328 34.9027 379.629 32.4225 378.615C31.379 376.132 33.6928 372 33.6928 372C33.0274 372.212 31.8025 372.469 31.0463 372.454C30.2751 372.469 29.0652 372.227 28.3998 372C28.3998 372 30.6834 376.072 29.6853 378.554C27.2203 379.69 23.001 377.328 23.001 377.328C23.2127 377.994 23.4698 379.205 23.4547 379.977C23.4849 380.749 23.2278 381.96 23.001 382.626C23.001 382.626 27.19 380.28 29.6702 381.385C30.7136 383.868 28.3998 387.985 28.3998 387.985C29.0652 387.773 30.2751 387.516 31.0312 387.531" fill="#F8D2BE"/>
<path d="M109.031 77.5459C109.818 77.5308 111.027 77.7729 111.678 78C111.678 78 109.349 73.8373 110.423 71.3548C112.903 70.3406 117.001 72.6263 117.001 72.6263C116.789 71.9603 116.532 70.7493 116.547 69.9773C116.517 69.2053 116.774 67.9943 117.001 67.3283C117.001 67.3283 112.903 69.6291 110.423 68.615C109.379 66.1325 111.693 62 111.693 62C111.027 62.2119 109.802 62.4693 109.046 62.4541C108.275 62.4693 107.065 62.2271 106.4 62C106.4 62 108.683 66.0719 107.685 68.5544C105.22 69.6897 101.001 67.3283 101.001 67.3283C101.213 67.9943 101.47 69.2053 101.455 69.9773C101.485 70.7493 101.228 71.9603 101.001 72.6263C101.001 72.6263 105.19 70.28 107.67 71.3851C108.714 73.8676 106.4 77.9849 106.4 77.9849C107.065 77.7729 108.275 77.5156 109.031 77.5308" fill="#F8D2BE"/>
<path d="M31.0312 77.5459C31.8176 77.5308 33.0274 77.7729 33.6777 78C33.6777 78 31.3488 73.8373 32.4225 71.3548C34.9027 70.3406 39.001 72.6263 39.001 72.6263C38.7893 71.9603 38.5322 70.7493 38.5473 69.9773C38.517 69.2053 38.7741 67.9943 39.001 67.3283C39.001 67.3283 34.9027 69.6291 32.4225 68.615C31.379 66.1325 33.6928 62 33.6928 62C33.0274 62.2119 31.8025 62.4693 31.0463 62.4541C30.2751 62.4693 29.0652 62.2271 28.3998 62C28.3998 62 30.6834 66.0719 29.6853 68.5544C27.2203 69.6897 23.001 67.3283 23.001 67.3283C23.2127 67.9943 23.4698 69.2053 23.4547 69.9773C23.4849 70.7493 23.2278 71.9603 23.001 72.6263C23.001 72.6263 27.19 70.28 29.6702 71.3851C30.7136 73.8676 28.3998 77.9849 28.3998 77.9849C29.0652 77.7729 30.2751 77.5156 31.0312 77.5308" fill="#F8D2BE"/>
<path d="M65.0312 46.5459C65.8176 46.5308 67.0274 46.7729 67.6777 47C67.6777 47 65.3488 42.8373 66.4225 40.3548C68.9027 39.3406 73.001 41.6263 73.001 41.6263C72.7893 40.9603 72.5322 39.7493 72.5473 38.9773C72.517 38.2053 72.7741 36.9943 73.001 36.3283C73.001 36.3283 68.9027 38.6291 66.4225 37.615C65.379 35.1325 67.6928 31 67.6928 31C67.0274 31.2119 65.8025 31.4693 65.0463 31.4541C64.2751 31.4693 63.0652 31.2271 62.3998 31C62.3998 31 64.6834 35.0719 63.6853 37.5544C61.2203 38.6897 57.001 36.3283 57.001 36.3283C57.2127 36.9943 57.4698 38.2053 57.4547 38.9773C57.4849 39.7493 57.2278 40.9603 57.001 41.6263C57.001 41.6263 61.19 39.28 63.6702 40.3851C64.7136 42.8676 62.3998 46.9849 62.3998 46.9849C63.0652 46.7729 64.2751 46.5156 65.0312 46.5308" fill="#F8D2BE"/>
<path d="M-2.96878 46.5459C-2.18239 46.5308 -0.972559 46.7729 -0.322276 47C-0.322276 47 -2.6512 42.8373 -1.57747 40.3548C0.902678 39.3406 5.00098 41.6263 5.00098 41.6263C4.78926 40.9603 4.53217 39.7493 4.54729 38.9773C4.51704 38.2053 4.77413 36.9943 5.00098 36.3283C5.00098 36.3283 0.902678 38.6291 -1.57747 37.615C-2.62095 35.1325 -0.307152 31 -0.307152 31C-0.972559 31.2119 -2.19751 31.4693 -2.95365 31.4541C-3.72492 31.4693 -4.93475 31.2271 -5.60016 31C-5.60016 31 -3.3166 35.0719 -4.31471 37.5544C-6.77974 38.6897 -10.999 36.3283 -10.999 36.3283C-10.7873 36.9943 -10.5302 38.2053 -10.5453 38.9773C-10.5151 39.7493 -10.7722 40.9603 -10.999 41.6263C-10.999 41.6263 -6.80999 39.28 -4.32984 40.3851C-3.28636 42.8676 -5.60016 46.9849 -5.60016 46.9849C-4.93475 46.7729 -3.72492 46.5156 -2.96878 46.5308" fill="#F8D2BE"/>
<path d="M65.0312 232.546C65.8176 232.531 67.0274 232.773 67.6777 233C67.6777 233 65.3488 228.837 66.4225 226.355C68.9027 225.341 73.001 227.626 73.001 227.626C72.7893 226.96 72.5322 225.749 72.5473 224.977C72.517 224.205 72.7741 222.994 73.001 222.328C73.001 222.328 68.9027 224.629 66.4225 223.615C65.379 221.132 67.6928 217 67.6928 217C67.0274 217.212 65.8025 217.469 65.0463 217.454C64.2751 217.469 63.0652 217.227 62.3998 217C62.3998 217 64.6834 221.072 63.6853 223.554C61.2203 224.69 57.001 222.328 57.001 222.328C57.2127 222.994 57.4698 224.205 57.4547 224.977C57.4849 225.749 57.2278 226.96 57.001 227.626C57.001 227.626 61.19 225.28 63.6702 226.385C64.7136 228.868 62.3998 232.985 62.3998 232.985C63.0652 232.773 64.2751 232.516 65.0312 232.531" fill="#F8D2BE"/>
<path d="M-2.96878 232.546C-2.18239 232.531 -0.972559 232.773 -0.322276 233C-0.322276 233 -2.6512 228.837 -1.57747 226.355C0.902678 225.341 5.00098 227.626 5.00098 227.626C4.78926 226.96 4.53217 225.749 4.54729 224.977C4.51704 224.205 4.77413 222.994 5.00098 222.328C5.00098 222.328 0.902678 224.629 -1.57747 223.615C-2.62095 221.132 -0.307152 217 -0.307152 217C-0.972559 217.212 -2.19751 217.469 -2.95365 217.454C-3.72492 217.469 -4.93475 217.227 -5.60016 217C-5.60016 217 -3.3166 221.072 -4.31471 223.554C-6.77974 224.69 -10.999 222.328 -10.999 222.328C-10.7873 222.994 -10.5302 224.205 -10.5453 224.977C-10.5151 225.749 -10.7722 226.96 -10.999 227.626C-10.999 227.626 -6.80999 225.28 -4.32984 226.385C-3.28636 228.868 -5.60016 232.985 -5.60016 232.985C-4.93475 232.773 -3.72492 232.516 -2.96878 232.531" fill="#F8D2BE"/>
<path d="M109.031 325.546C109.818 325.531 111.027 325.773 111.678 326C111.678 326 109.349 321.837 110.423 319.355C112.903 318.341 117.001 320.626 117.001 320.626C116.789 319.96 116.532 318.749 116.547 317.977C116.517 317.205 116.774 315.994 117.001 315.328C117.001 315.328 112.903 317.629 110.423 316.615C109.379 314.132 111.693 310 111.693 310C111.027 310.212 109.802 310.469 109.046 310.454C108.275 310.469 107.065 310.227 106.4 310C106.4 310 108.683 314.072 107.685 316.554C105.22 317.69 101.001 315.328 101.001 315.328C101.213 315.994 101.47 317.205 101.455 317.977C101.485 318.749 101.228 319.96 101.001 320.626C101.001 320.626 105.19 318.28 107.67 319.385C108.714 321.868 106.4 325.985 106.4 325.985C107.065 325.773 108.275 325.516 109.031 325.531" fill="#F8D2BE"/>
<path d="M31.0312 325.546C31.8176 325.531 33.0274 325.773 33.6777 326C33.6777 326 31.3488 321.837 32.4225 319.355C34.9027 318.341 39.001 320.626 39.001 320.626C38.7893 319.96 38.5322 318.749 38.5473 317.977C38.517 317.205 38.7741 315.994 39.001 315.328C39.001 315.328 34.9027 317.629 32.4225 316.615C31.379 314.132 33.6928 310 33.6928 310C33.0274 310.212 31.8025 310.469 31.0463 310.454C30.2751 310.469 29.0652 310.227 28.3998 310C28.3998 310 30.6834 314.072 29.6853 316.554C27.2203 317.69 23.001 315.328 23.001 315.328C23.2127 315.994 23.4698 317.205 23.4547 317.977C23.4849 318.749 23.2278 319.96 23.001 320.626C23.001 320.626 27.19 318.28 29.6702 319.385C30.7136 321.868 28.3998 325.985 28.3998 325.985C29.0652 325.773 30.2751 325.516 31.0312 325.531" fill="#F8D2BE"/>
<path d="M109.031 201.546C109.818 201.531 111.027 201.773 111.678 202C111.678 202 109.349 197.837 110.423 195.355C112.903 194.341 117.001 196.626 117.001 196.626C116.789 195.96 116.532 194.749 116.547 193.977C116.517 193.205 116.774 191.994 117.001 191.328C117.001 191.328 112.903 193.629 110.423 192.615C109.379 190.132 111.693 186 111.693 186C111.027 186.212 109.802 186.469 109.046 186.454C108.275 186.469 107.065 186.227 106.4 186C106.4 186 108.683 190.072 107.685 192.554C105.22 193.69 101.001 191.328 101.001 191.328C101.213 191.994 101.47 193.205 101.455 193.977C101.485 194.749 101.228 195.96 101.001 196.626C101.001 196.626 105.19 194.28 107.67 195.385C108.714 197.868 106.4 201.985 106.4 201.985C107.065 201.773 108.275 201.516 109.031 201.531" fill="#F8D2BE"/>
<path d="M31.0312 201.546C31.8176 201.531 33.0274 201.773 33.6777 202C33.6777 202 31.3488 197.837 32.4225 195.355C34.9027 194.341 39.001 196.626 39.001 196.626C38.7893 195.96 38.5322 194.749 38.5473 193.977C38.517 193.205 38.7741 191.994 39.001 191.328C39.001 191.328 34.9027 193.629 32.4225 192.615C31.379 190.132 33.6928 186 33.6928 186C33.0274 186.212 31.8025 186.469 31.0463 186.454C30.2751 186.469 29.0652 186.227 28.3998 186C28.3998 186 30.6834 190.072 29.6853 192.554C27.2203 193.69 23.001 191.328 23.001 191.328C23.2127 191.994 23.4698 193.205 23.4547 193.977C23.4849 194.749 23.2278 195.96 23.001 196.626C23.001 196.626 27.19 194.28 29.6702 195.385C30.7136 197.868 28.3998 201.985 28.3998 201.985C29.0652 201.773 30.2751 201.516 31.0312 201.531" fill="#F8D2BE"/>
<path d="M65.0312 170.546C65.8176 170.531 67.0274 170.773 67.6777 171C67.6777 171 65.3488 166.837 66.4225 164.355C68.9027 163.341 73.001 165.626 73.001 165.626C72.7893 164.96 72.5322 163.749 72.5473 162.977C72.517 162.205 72.7741 160.994 73.001 160.328C73.001 160.328 68.9027 162.629 66.4225 161.615C65.379 159.132 67.6928 155 67.6928 155C67.0274 155.212 65.8025 155.469 65.0463 155.454C64.2751 155.469 63.0652 155.227 62.3998 155C62.3998 155 64.6834 159.072 63.6853 161.554C61.2203 162.69 57.001 160.328 57.001 160.328C57.2127 160.994 57.4698 162.205 57.4547 162.977C57.4849 163.749 57.2278 164.96 57.001 165.626C57.001 165.626 61.19 163.28 63.6702 164.385C64.7136 166.868 62.3998 170.985 62.3998 170.985C63.0652 170.773 64.2751 170.516 65.0312 170.531" fill="#F8D2BE"/>
<path d="M-2.96878 170.546C-2.18239 170.531 -0.972559 170.773 -0.322276 171C-0.322276 171 -2.6512 166.837 -1.57747 164.355C0.902678 163.341 5.00098 165.626 5.00098 165.626C4.78926 164.96 4.53217 163.749 4.54729 162.977C4.51704 162.205 4.77413 160.994 5.00098 160.328C5.00098 160.328 0.902678 162.629 -1.57747 161.615C-2.62095 159.132 -0.307152 155 -0.307152 155C-0.972559 155.212 -2.19751 155.469 -2.95365 155.454C-3.72492 155.469 -4.93475 155.227 -5.60016 155C-5.60016 155 -3.3166 159.072 -4.31471 161.554C-6.77974 162.69 -10.999 160.328 -10.999 160.328C-10.7873 160.994 -10.5302 162.205 -10.5453 162.977C-10.5151 163.749 -10.7722 164.96 -10.999 165.626C-10.999 165.626 -6.80999 163.28 -4.32984 164.385C-3.28636 166.868 -5.60016 170.985 -5.60016 170.985C-4.93475 170.773 -3.72492 170.516 -2.96878 170.531" fill="#F8D2BE"/>
<path d="M65.0312 356.546C65.8176 356.531 67.0274 356.773 67.6777 357C67.6777 357 65.3488 352.837 66.4225 350.355C68.9027 349.341 73.001 351.626 73.001 351.626C72.7893 350.96 72.5322 349.749 72.5473 348.977C72.517 348.205 72.7741 346.994 73.001 346.328C73.001 346.328 68.9027 348.629 66.4225 347.615C65.379 345.132 67.6928 341 67.6928 341C67.0274 341.212 65.8025 341.469 65.0463 341.454C64.2751 341.469 63.0652 341.227 62.3998 341C62.3998 341 64.6834 345.072 63.6853 347.554C61.2203 348.69 57.001 346.328 57.001 346.328C57.2127 346.994 57.4698 348.205 57.4547 348.977C57.4849 349.749 57.2278 350.96 57.001 351.626C57.001 351.626 61.19 349.28 63.6702 350.385C64.7136 352.868 62.3998 356.985 62.3998 356.985C63.0652 356.773 64.2751 356.516 65.0312 356.531" fill="#F8D2BE"/>
<path d="M-2.96878 356.546C-2.18239 356.531 -0.972559 356.773 -0.322276 357C-0.322276 357 -2.6512 352.837 -1.57747 350.355C0.902678 349.341 5.00098 351.626 5.00098 351.626C4.78926 350.96 4.53217 349.749 4.54729 348.977C4.51704 348.205 4.77413 346.994 5.00098 346.328C5.00098 346.328 0.902678 348.629 -1.57747 347.615C-2.62095 345.132 -0.307152 341 -0.307152 341C-0.972559 341.212 -2.19751 341.469 -2.95365 341.454C-3.72492 341.469 -4.93475 341.227 -5.60016 341C-5.60016 341 -3.3166 345.072 -4.31471 347.554C-6.77974 348.69 -10.999 346.328 -10.999 346.328C-10.7873 346.994 -10.5302 348.205 -10.5453 348.977C-10.5151 349.749 -10.7722 350.96 -10.999 351.626C-10.999 351.626 -6.80999 349.28 -4.32984 350.385C-3.28636 352.868 -5.60016 356.985 -5.60016 356.985C-4.93475 356.773 -3.72492 356.516 -2.96878 356.531" fill="#F8D2BE"/>
<path d="M65.0312 418.546C65.8176 418.531 67.0274 418.773 67.6777 419C67.6777 419 65.3488 414.837 66.4225 412.355C68.9027 411.341 73.001 413.626 73.001 413.626C72.7893 412.96 72.5322 411.749 72.5473 410.977C72.517 410.205 72.7741 408.994 73.001 408.328C73.001 408.328 68.9027 410.629 66.4225 409.615C65.379 407.132 67.6928 403 67.6928 403C67.0274 403.212 65.8025 403.469 65.0463 403.454C64.2751 403.469 63.0652 403.227 62.3998 403C62.3998 403 64.6834 407.072 63.6853 409.554C61.2203 410.69 57.001 408.328 57.001 408.328C57.2127 408.994 57.4698 410.205 57.4547 410.977C57.4849 411.749 57.2278 412.96 57.001 413.626C57.001 413.626 61.19 411.28 63.6702 412.385C64.7136 414.868 62.3998 418.985 62.3998 418.985C63.0652 418.773 64.2751 418.516 65.0312 418.531" fill="#F8D2BE"/>
<path d="M-2.96878 418.546C-2.18239 418.531 -0.972559 418.773 -0.322276 419C-0.322276 419 -2.6512 414.837 -1.57747 412.355C0.902678 411.341 5.00098 413.626 5.00098 413.626C4.78926 412.96 4.53217 411.749 4.54729 410.977C4.51704 410.205 4.77413 408.994 5.00098 408.328C5.00098 408.328 0.902678 410.629 -1.57747 409.615C-2.62095 407.132 -0.307152 403 -0.307152 403C-0.972559 403.212 -2.19751 403.469 -2.95365 403.454C-3.72492 403.469 -4.93475 403.227 -5.60016 403C-5.60016 403 -3.3166 407.072 -4.31471 409.554C-6.77974 410.69 -10.999 408.328 -10.999 408.328C-10.7873 408.994 -10.5302 410.205 -10.5453 410.977C-10.5151 411.749 -10.7722 412.96 -10.999 413.626C-10.999 413.626 -6.80999 411.28 -4.32984 412.385C-3.28636 414.868 -5.60016 418.985 -5.60016 418.985C-4.93475 418.773 -3.72492 418.516 -2.96878 418.531" fill="#F8D2BE"/>
<path d="M109.031 449.546C109.818 449.531 111.027 449.773 111.678 450C111.678 450 109.349 445.837 110.423 443.355C112.903 442.341 117.001 444.626 117.001 444.626C116.789 443.96 116.532 442.749 116.547 441.977C116.517 441.205 116.774 439.994 117.001 439.328C117.001 439.328 112.903 441.629 110.423 440.615C109.379 438.132 111.693 434 111.693 434C111.027 434.212 109.802 434.469 109.046 434.454C108.275 434.469 107.065 434.227 106.4 434C106.4 434 108.683 438.072 107.685 440.554C105.22 441.69 101.001 439.328 101.001 439.328C101.213 439.994 101.47 441.205 101.455 441.977C101.485 442.749 101.228 443.96 101.001 444.626C101.001 444.626 105.19 442.28 107.67 443.385C108.714 445.868 106.4 449.985 106.4 449.985C107.065 449.773 108.275 449.516 109.031 449.531" fill="#F8D2BE"/>
<path d="M31.0312 449.546C31.8176 449.531 33.0274 449.773 33.6777 450C33.6777 450 31.3488 445.837 32.4225 443.355C34.9027 442.341 39.001 444.626 39.001 444.626C38.7893 443.96 38.5322 442.749 38.5473 441.977C38.517 441.205 38.7741 439.994 39.001 439.328C39.001 439.328 34.9027 441.629 32.4225 440.615C31.379 438.132 33.6928 434 33.6928 434C33.0274 434.212 31.8025 434.469 31.0463 434.454C30.2751 434.469 29.0652 434.227 28.3998 434C28.3998 434 30.6834 438.072 29.6853 440.554C27.2203 441.69 23.001 439.328 23.001 439.328C23.2127 439.994 23.4698 441.205 23.4547 441.977C23.4849 442.749 23.2278 443.96 23.001 444.626C23.001 444.626 27.19 442.28 29.6702 443.385C30.7136 445.868 28.3998 449.985 28.3998 449.985C29.0652 449.773 30.2751 449.516 31.0312 449.531" fill="#F8D2BE"/>
</svg>
