<svg width="260" height="45" viewBox="0 0 260 45" fill="none" xmlns="http://www.w3.org/2000/svg">
<path d="M28.5811 44.9943H25.1362L25.1039 36.1382L22.3254 39.8008L20.1219 39.8441L24.9427 33.3142C25.5876 32.4432 24.8244 31.0962 24.3085 30.4145L20.0843 24.8423C20.928 24.7557 21.8632 24.7341 22.3469 24.8693L25.0985 28.3858V4.33312L17.999 19.2375C17.0478 21.2392 16.4673 23.0786 15.1345 25.3562L5.16509 4.64149C5.00924 10.7656 5.01461 16.4135 5.26721 22.543C5.29945 23.3004 6.82039 23.4681 7.39007 23.5222L8.52406 23.625C8.75516 23.6467 8.45957 24.6962 8.42195 24.6204H0.28519L0.021847 23.9063C-0.230747 23.2301 1.76851 23.7494 2.84338 23.1868C3.2572 22.9704 3.47218 21.883 3.47218 21.315L3.48292 3.07801C3.48292 2.75341 3.2357 1.95274 3.00461 1.73093C2.73052 1.46584 1.93511 1.35223 1.4568 1.33059L0.263692 1.28731C-0.0372708 1.2819 0.0433443 0.264833 0.156206 0.124174L6.69678 0.0971241L12.1679 11.6582L15.989 19.4918L19.4501 12.3398L25.1469 0.0808942C29.8387 0.56779 34.8315 -0.930767 38.6311 1.10879C41.2269 2.50455 41.7697 5.66938 40.6304 8.29861C39.1363 11.7502 35.4871 13.3894 31.7305 13.0161C30.8867 12.9349 30.3385 12.4264 30.3869 11.5229C32.3593 11.9449 33.9716 12.0315 35.471 11.0252C36.8791 10.0785 37.6046 8.37435 37.5939 6.42677C37.5831 4.47919 36.6641 2.55324 34.724 1.88241C32.7838 1.21157 30.6717 1.31977 28.5972 2.02307L28.608 28.3804L31.3274 24.9775C31.6176 24.615 32.8591 24.6854 33.5363 24.9396L28.7746 31.3071C28.4844 31.6913 28.5112 32.968 28.8283 33.3954L33.547 39.7467C32.7838 39.9144 31.7573 39.9198 31.3489 39.6872L28.6349 36.2356L28.5757 44.9997L28.5811 44.9943Z" fill="#D56E68"/>
<path d="M52.5152 18.4374L53.1601 18.3725C54.2995 18.3076 54.5144 17.9614 54.5789 16.4682L54.8584 6.5139C54.6434 6.01618 54.2565 5.77814 53.6545 5.69159L52.8806 5.60503L52.8161 5.25879H57.5026L61.1571 15.4079H61.2001L64.9622 5.25879H69.6701L69.6056 5.60503L68.4447 5.69159C67.8428 5.7565 67.5848 5.95126 67.5848 6.12438L67.7998 16.901C67.8428 18.0696 67.9933 18.2643 68.8532 18.3509L69.6486 18.4374L69.7131 18.7837H63.5003L63.5648 18.4374L64.6397 18.3292C65.2631 18.2643 65.4351 17.9397 65.3921 16.8577L65.1341 6.34078H65.0696L60.4692 18.6538H59.9103L55.5893 6.86014C55.5463 6.70866 55.3743 6.53554 55.3098 6.44898L55.0949 16.5331C55.0304 17.9614 55.3098 18.3076 56.6212 18.3725L57.2446 18.4374L57.3091 18.7837H52.4507L52.5152 18.4374Z" fill="#59262C"/>
<path d="M70.1431 14.3688C70.1431 11.4042 72.2498 9.11035 75.1735 9.11035C77.0437 9.11035 78.4625 9.9543 78.4625 11.1878C78.4625 11.9235 77.8821 12.3996 77.2587 12.3996C76.5063 12.3996 75.9689 11.7288 76.0548 10.9714C76.0548 10.4953 76.3773 10.214 76.3773 10.0841C76.3128 9.82447 75.7324 9.52151 75.1735 9.52151C73.6256 9.52151 72.4218 11.0796 72.4218 13.5032C72.4218 15.9269 73.7761 17.6148 75.6679 17.6148C76.7858 17.6148 77.6456 17.2036 78.3766 16.0351L78.613 16.1649C77.7101 18.026 76.3988 19.1079 74.5285 19.1079C72.0133 19.1079 70.1431 17.0738 70.1431 14.3688Z" fill="#59262C"/>
<path d="M79.3008 18.4374L79.9457 18.3725C81.0851 18.3076 81.3001 17.9614 81.3646 16.4682L81.644 6.5139C81.4291 6.01618 81.0421 5.77814 80.4402 5.69159L79.6663 5.60503L79.6018 5.25879H84.2882L87.9428 15.4079H87.9858L91.7478 5.25879H96.4557L96.3912 5.60503L95.2304 5.69159C94.6284 5.7565 94.3705 5.95126 94.3705 6.12438L94.5855 16.901C94.6284 18.0696 94.7789 18.2643 95.6388 18.3509L96.4342 18.4374L96.4987 18.7837H90.286L90.3505 18.4374L91.4253 18.3292C92.0488 18.2643 92.2207 17.9397 92.1777 16.8577L91.9198 6.34078H91.8553L87.2548 18.6538H86.6959L82.3749 6.86014C82.3319 6.70866 82.16 6.53554 82.0955 6.44898L81.8805 16.5331C81.816 17.9614 82.0955 18.3076 83.4068 18.3725L84.0302 18.4374L84.0947 18.7837H79.2363L79.3008 18.4374Z" fill="#59262C"/>
<path d="M102.475 17.3335L102.432 17.3118C101.615 18.2207 100.734 19.0214 99.6157 19.0214C98.3474 19.0214 97.294 18.0476 97.294 16.8141C97.294 15.2777 98.5623 14.2173 102.539 13.2652L102.561 12.7026C102.604 10.6901 101.765 9.82447 100.433 9.82447C99.6802 9.82447 98.9493 10.1923 98.9493 10.3871C98.9493 10.5386 99.5297 10.993 99.5297 11.5989C99.5297 12.1399 99.0568 12.6376 98.3689 12.6376C97.681 12.6376 97.208 12.2265 97.208 11.6638C97.208 10.4087 99.8737 9.11035 101.701 9.11035C103.958 9.11035 104.84 9.97594 104.711 12.7675L104.517 16.7276C104.474 17.4633 104.754 17.8096 105.205 17.8096C105.549 17.8096 105.85 17.5282 106.151 17.2469L106.344 17.4417C105.85 18.1125 105.033 19.043 104.087 19.043C103.141 19.043 102.582 18.4588 102.475 17.3335ZM102.41 16.9223L102.539 13.6331C99.9812 14.239 99.3792 15.1046 99.3792 16.1433C99.3792 17.0738 100.046 17.7014 100.777 17.7014C101.378 17.7014 101.873 17.4633 102.41 16.9223Z" fill="#59262C"/>
<path d="M106.495 18.4372L106.882 18.4156C107.484 18.3723 107.721 18.3074 107.721 18.0477V6.49202C107.721 5.84282 107.592 5.66971 107.033 5.51823L106.323 5.25855L106.345 5.02051L109.87 4.06836V10.8849L109.913 10.9065C110.881 10.1059 112.106 9.11044 113.525 9.11044C114.191 9.11044 114.793 9.34847 115.245 9.78127C115.739 10.3223 115.954 11.1446 115.954 12.0967V18.0693C115.954 18.2208 115.997 18.329 116.986 18.4156L117.308 18.4372L117.373 18.7834H112.514L112.579 18.4372L113.009 18.4156C113.718 18.3723 113.826 18.2424 113.826 18.0477V12.681C113.826 11.1446 113.159 10.6036 111.956 10.6036C111.074 10.6036 110.365 10.9715 109.87 11.3826V18.091C109.87 18.2857 109.978 18.3506 110.838 18.4156L111.246 18.4372L111.311 18.7834H106.431L106.495 18.4372Z" fill="#59262C"/>
<path d="M117.932 14.1308C117.932 11.3393 120.103 9.11035 123.048 9.11035C125.993 9.11035 128.014 11.2743 128.014 13.9793C128.014 16.8358 125.886 19.0863 122.898 19.0863C119.909 19.0863 117.932 16.879 117.932 14.1308ZM125.585 14.3688C125.585 12.4645 125.198 10.9281 124.467 10.1707C124.123 9.82447 123.65 9.52151 122.941 9.52151C121.264 9.52151 120.361 11.4691 120.361 13.7846C120.361 15.7321 120.705 17.2253 121.457 18.0043C121.823 18.3938 122.317 18.6752 123.005 18.6752C124.596 18.6752 125.585 16.7492 125.585 14.3688Z" fill="#59262C"/>
<path d="M128.982 18.4371L129.39 18.4155C130.013 18.3722 130.25 18.3073 130.25 18.0476V12.1832C130.25 10.8415 130.078 10.6251 129.347 10.452L128.853 10.3438L128.874 10.0841L132.4 9.13199L132.357 10.9065H132.4C133.367 10.1058 134.614 9.11035 136.011 9.11035C136.699 9.11035 137.301 9.32675 137.731 9.78119C138.247 10.3005 138.44 11.1445 138.44 12.1183V18.0692C138.44 18.2207 138.505 18.3289 139.494 18.4155L139.816 18.4371L139.881 18.7834H135.044L135.108 18.4371L135.517 18.4155C136.248 18.3722 136.312 18.2424 136.312 18.0476V12.7026C136.312 11.1445 135.689 10.6035 134.463 10.6035C133.582 10.6035 132.873 10.9714 132.357 11.3825V18.0909C132.357 18.2856 132.486 18.3506 133.324 18.4155L133.732 18.4371L133.775 18.7834H128.917L128.982 18.4371Z" fill="#59262C"/>
<path d="M144.288 18.4374L145.255 18.3509C145.943 18.286 146.201 18.1345 146.201 17.983V5.99454C146.201 5.82142 146.072 5.7565 145.105 5.66995L144.309 5.60503L144.245 5.25879H150.307C153.918 5.25879 155.681 6.53554 155.681 8.6346C155.681 11.0799 153.36 12.573 150.135 12.573C149.576 12.573 149.06 12.5298 148.609 12.4865V18.0479C148.609 18.221 148.738 18.3076 149.705 18.3725L150.737 18.4374L150.801 18.7837H144.223L144.288 18.4374ZM153.08 8.9592C153.08 6.86013 152.091 5.66995 149.898 5.69159H148.609V11.9671C149.039 12.0753 149.382 12.1619 150.07 12.1619C151.855 12.1619 153.08 10.9284 153.08 8.9592Z" fill="#59262C"/>
<path d="M161.335 17.3335L161.292 17.3118C160.475 18.2207 159.593 19.0214 158.476 19.0214C157.207 19.0214 156.154 18.0476 156.154 16.8141C156.154 15.2777 157.422 14.2173 161.399 13.2652L161.421 12.7026C161.464 10.6901 160.625 9.82447 159.292 9.82447C158.54 9.82447 157.809 10.1923 157.809 10.3871C157.809 10.5386 158.39 10.993 158.39 11.5989C158.39 12.1399 157.917 12.6376 157.229 12.6376C156.541 12.6376 156.068 12.2265 156.068 11.6638C156.068 10.4087 158.734 9.11035 160.561 9.11035C162.818 9.11035 163.699 9.97594 163.57 12.7675L163.377 16.7276C163.334 17.4633 163.613 17.8096 164.065 17.8096C164.409 17.8096 164.71 17.5282 165.011 17.2469L165.204 17.4417C164.71 18.1125 163.893 19.043 162.947 19.043C162.001 19.043 161.442 18.4588 161.335 17.3335ZM161.27 16.9223L161.399 13.6331C158.841 14.239 158.239 15.1046 158.239 16.1433C158.239 17.0738 158.906 17.7014 159.636 17.7014C160.238 17.7014 160.733 17.4633 161.27 16.9223Z" fill="#59262C"/>
<path d="M165.548 18.4371L165.957 18.4155C166.58 18.3722 166.817 18.3073 166.817 18.0476V12.1832C166.817 10.8415 166.645 10.6251 165.914 10.452L165.419 10.3438L165.441 10.0841L168.967 9.13199L168.924 12.3563H168.988C169.719 10.2789 170.579 9.11035 171.869 9.11035C172.686 9.11035 173.33 9.67299 173.33 10.452C173.33 11.1012 172.858 11.7288 172.105 11.7288C171.439 11.7288 170.88 11.2743 170.751 10.5169C170.041 10.7333 169.461 11.6206 168.924 13.3085V18.0909C168.924 18.2856 169.095 18.3722 169.955 18.4155L170.6 18.4371L170.665 18.7834H165.484L165.548 18.4371Z" fill="#59262C"/>
<path d="M179.049 17.3335L179.006 17.3118C178.189 18.2207 177.307 19.0214 176.189 19.0214C174.921 19.0214 173.868 18.0476 173.868 16.8141C173.868 15.2777 175.136 14.2173 179.113 13.2652L179.135 12.7026C179.178 10.6901 178.339 9.82447 177.006 9.82447C176.254 9.82447 175.523 10.1923 175.523 10.3871C175.523 10.5386 176.103 10.993 176.103 11.5989C176.103 12.1399 175.63 12.6376 174.943 12.6376C174.255 12.6376 173.782 12.2265 173.782 11.6638C173.782 10.4087 176.447 9.11035 178.275 9.11035C180.532 9.11035 181.413 9.97594 181.284 12.7675L181.091 16.7276C181.048 17.4633 181.327 17.8096 181.779 17.8096C182.123 17.8096 182.424 17.5282 182.725 17.2469L182.918 17.4417C182.424 18.1125 181.607 19.043 180.661 19.043C179.715 19.043 179.156 18.4588 179.049 17.3335ZM178.984 16.9223L179.113 13.6331C176.555 14.239 175.953 15.1046 175.953 16.1433C175.953 17.0738 176.619 17.7014 177.35 17.7014C177.952 17.7014 178.447 17.4633 178.984 16.9223Z" fill="#59262C"/>
<path d="M184.466 16.4033L184.573 10.5389L182.854 10.474L183.047 9.93303L184.401 8.89432L186.379 7.29297L186.702 7.35789L186.68 9.43531H189.991L189.69 10.4524H186.68L186.551 16.0787C186.53 17.2689 187.067 17.8099 188.163 17.8099C188.873 17.8099 189.475 17.5502 189.948 17.1824L190.055 17.3988C189.174 18.3293 188.077 19.065 186.917 19.065C185.326 19.065 184.444 18.2427 184.466 16.4033Z" fill="#59262C"/>
<path d="M190.399 14.3473C190.399 11.3827 192.485 9.08887 195.322 9.08887C197.558 9.08887 198.869 10.4305 198.869 12.1834C198.869 12.3781 198.848 12.5729 198.805 12.7893C198.805 12.7893 192.936 12.7244 192.721 12.7244C192.678 12.9191 192.657 13.3519 192.657 13.5683C192.678 15.992 194.032 17.615 195.924 17.615C197.064 17.615 197.988 17.2038 198.719 16.0352L198.955 16.1651C198.052 18.0261 196.698 19.1081 194.806 19.1081C192.27 19.1081 190.399 17.0523 190.399 14.3473ZM196.677 12.3348C196.698 10.8633 196.225 9.52166 195.043 9.52166C193.946 9.52166 192.979 10.7335 192.743 12.3565C192.743 12.3565 196.698 12.3348 196.677 12.3348Z" fill="#59262C"/>
<path d="M199.944 18.4371L200.353 18.4155C200.976 18.3722 201.213 18.3073 201.213 18.0476V12.1832C201.213 10.8415 201.041 10.6251 200.31 10.452L199.815 10.3438L199.837 10.0841L203.363 9.13199L203.32 12.3563H203.384C204.115 10.2789 204.975 9.11035 206.265 9.11035C207.082 9.11035 207.726 9.67299 207.726 10.452C207.726 11.1012 207.254 11.7288 206.501 11.7288C205.835 11.7288 205.276 11.2743 205.147 10.5169C204.437 10.7333 203.857 11.6206 203.32 13.3085V18.0909C203.32 18.2856 203.491 18.3722 204.351 18.4155L204.996 18.4371L205.061 18.7834H199.88L199.944 18.4371Z" fill="#59262C"/>
<path d="M53.1388 38.9304L52.9453 35.3598H53.3968L54.1707 37.329C54.9446 38.6058 56.0839 39.19 57.4383 39.19C59.244 39.1684 60.3189 37.9998 60.3189 36.4201C60.3189 34.6673 58.9646 33.9748 57.0728 33.304C54.9661 32.5466 53.2893 31.6161 53.2893 29.3656C53.2893 27.3963 54.9016 25.5353 57.7392 25.5137C58.9216 25.5137 59.8675 25.7517 60.6629 25.9681L61.5658 25.6651L61.6088 29.5387H61.2003L59.8675 26.6389C59.2655 26.2711 58.5561 25.9897 57.6532 25.9897C56.1699 25.9897 55.181 26.9852 55.181 28.2186C55.181 29.8416 56.5784 30.4692 58.2767 31.0967C60.6414 31.9191 62.3182 32.9361 62.3182 35.3381C62.3182 37.4805 60.3619 39.6445 57.3093 39.6445C55.826 39.6445 54.3426 39.3199 53.1388 38.9304Z" fill="#59262C"/>
<path d="M63.6079 34.9264C63.6079 31.9618 65.7147 29.668 68.6383 29.668C70.5086 29.668 71.9274 30.5119 71.9274 31.7454C71.9274 32.4811 71.347 32.9572 70.7235 32.9572C69.9711 32.9572 69.4337 32.2864 69.5197 31.529C69.5197 31.0529 69.8422 30.7716 69.8422 30.6418C69.7777 30.3821 69.1972 30.0791 68.6383 30.0791C67.0905 30.0791 65.8866 31.6372 65.8866 34.0609C65.8866 36.4845 67.241 38.1724 69.1327 38.1724C70.2506 38.1724 71.1105 37.7613 71.8414 36.5927L72.0779 36.7225C71.175 38.5836 69.8636 39.6656 67.9934 39.6656C65.4782 39.6656 63.6079 37.6314 63.6079 34.9264Z" fill="#59262C"/>
<path d="M72.5509 38.9948L72.9378 38.9732C73.5398 38.9299 73.7762 38.865 73.7762 38.6053V27.0496C73.7762 26.4004 73.6472 26.2273 73.0883 26.0758L72.3789 25.8162L72.4004 25.5781L75.926 24.626V31.4425L75.969 31.4642C76.9363 30.6635 78.1617 29.6681 79.5805 29.6681C80.2469 29.6681 80.8489 29.9061 81.3003 30.3389C81.7948 30.8799 82.0097 31.7022 82.0097 32.6543V38.6269C82.0097 38.7784 82.0527 38.8866 83.0416 38.9732L83.3641 38.9948L83.4286 39.3411H78.5701L78.6346 38.9948L79.0646 38.9732C79.774 38.9299 79.8815 38.8001 79.8815 38.6053V33.2386C79.8815 31.7022 79.2151 31.1612 78.0112 31.1612C77.1298 31.1612 76.4204 31.5291 75.926 31.9402V38.6486C75.926 38.8433 76.0335 38.9083 76.8934 38.9732L77.3018 38.9948L77.3663 39.3411H72.4864L72.5509 38.9948Z" fill="#59262C"/>
<path d="M83.9873 34.6884C83.9873 31.8969 86.1585 29.668 89.1037 29.668C92.0488 29.668 94.0696 31.832 94.0696 34.5369C94.0696 37.3934 91.9413 39.6439 88.9532 39.6439C85.9651 39.6439 83.9873 37.4367 83.9873 34.6884ZM91.6404 34.9264C91.6404 33.0221 91.2534 31.4857 90.5225 30.7283C90.1786 30.3821 89.7056 30.0791 88.9962 30.0791C87.3194 30.0791 86.4165 32.0267 86.4165 34.3422C86.4165 36.2898 86.7605 37.7829 87.5129 38.5619C87.8783 38.9515 88.3728 39.2328 89.0607 39.2328C90.6515 39.2328 91.6404 37.3068 91.6404 34.9264Z" fill="#59262C"/>
<path d="M94.9293 38.9948L95.3378 38.9732C95.9612 38.9299 96.1547 38.865 96.1547 38.6053V27.4392C96.1547 26.4004 96.0042 26.2273 95.4453 26.0758L94.7358 25.8162L94.7788 25.5781L98.2829 24.626V38.6486C98.2829 38.8433 98.4334 38.9083 99.2503 38.9732L99.6157 38.9948L99.6802 39.3411H94.8648L94.9293 38.9948Z" fill="#59262C"/>
<path d="M105.742 37.8911L105.699 37.8695C104.883 38.7783 104.001 39.579 102.883 39.579C101.615 39.579 100.562 38.6052 100.562 37.3717C100.562 35.8353 101.83 34.775 105.807 33.8228L105.828 33.2602C105.871 31.2477 105.033 30.3821 103.7 30.3821C102.948 30.3821 102.217 30.75 102.217 30.9447C102.217 31.0962 102.797 31.5506 102.797 32.1565C102.797 32.6975 102.324 33.1953 101.636 33.1953C100.949 33.1953 100.476 32.7841 100.476 32.2215C100.476 30.9664 103.141 29.668 104.969 29.668C107.226 29.668 108.107 30.5336 107.978 33.3251L107.785 37.2852C107.742 38.0209 108.021 38.3672 108.473 38.3672C108.817 38.3672 109.118 38.0859 109.418 37.8045L109.612 37.9993C109.118 38.6701 108.301 39.6006 107.355 39.6006C106.409 39.6006 105.85 39.0164 105.742 37.8911ZM105.678 37.4799L105.807 34.1907C103.249 34.7966 102.647 35.6622 102.647 36.7009C102.647 37.6314 103.313 38.259 104.044 38.259C104.646 38.259 105.141 38.0209 105.678 37.4799Z" fill="#59262C"/>
<path d="M109.956 38.9947L110.365 38.9731C110.988 38.9298 111.224 38.8649 111.224 38.6052V32.7408C111.224 31.3992 111.052 31.1828 110.322 31.0096L109.827 30.9014L109.849 30.6418L113.374 29.6896L113.331 32.9139H113.396C114.127 30.8365 114.987 29.668 116.276 29.668C117.093 29.668 117.738 30.2306 117.738 31.0096C117.738 31.6588 117.265 32.2864 116.513 32.2864C115.846 32.2864 115.287 31.8319 115.158 31.0746C114.449 31.291 113.869 32.1782 113.331 33.8661V38.6485C113.331 38.8433 113.503 38.9298 114.363 38.9731L115.008 38.9947L115.073 39.341H109.892L109.956 38.9947Z" fill="#59262C"/>
<path d="M118.598 39.1246L118.448 36.3763L118.921 36.3547L119.415 37.6098C119.974 38.6052 120.726 39.2328 121.758 39.2328C122.876 39.2328 123.693 38.5187 123.693 37.5016C123.693 36.4845 122.683 35.9435 121.393 35.4674C119.953 34.9264 118.641 34.2989 118.641 32.5461C118.641 30.7932 120.017 29.668 122.038 29.668C122.855 29.668 123.564 29.8194 124.102 30.0358L124.875 29.7978L124.983 32.611L124.553 32.6326L123.435 30.6201C123.091 30.3604 122.575 30.0791 121.973 30.0791C120.92 30.0791 120.318 30.7067 120.318 31.5939C120.318 32.6326 121.178 33.0005 122.532 33.5199C124.037 34.1041 125.413 34.7317 125.413 36.5494C125.413 38.1508 124.102 39.6439 121.608 39.6439C120.426 39.6439 119.394 39.4275 118.598 39.1246Z" fill="#59262C"/>
<path d="M126.316 38.9948L126.702 38.9732C127.304 38.9299 127.541 38.865 127.541 38.6053V27.0496C127.541 26.4004 127.412 26.2273 126.853 26.0758L126.144 25.8162L126.165 25.5781L129.691 24.626V31.4425L129.734 31.4642C130.701 30.6635 131.926 29.6681 133.345 29.6681C134.012 29.6681 134.614 29.9061 135.065 30.3389C135.559 30.8799 135.774 31.7022 135.774 32.6543V38.6269C135.774 38.7784 135.817 38.8866 136.806 38.9732L137.129 38.9948L137.193 39.3411H132.335L132.399 38.9948L132.829 38.9732C133.539 38.9299 133.646 38.8001 133.646 38.6053V33.2386C133.646 31.7022 132.98 31.1612 131.776 31.1612C130.894 31.1612 130.185 31.5291 129.691 31.9402V38.6486C129.691 38.8433 129.798 38.9083 130.658 38.9732L131.066 38.9948L131.131 39.3411H126.251L126.316 38.9948Z" fill="#59262C"/>
<path d="M137.731 38.995L138.139 38.9734C138.762 38.9301 138.999 38.8652 138.999 38.6055V32.7195C138.999 31.3995 138.848 31.1831 138.096 31.0099L137.623 30.9017L137.645 30.6421L141.127 29.6899V38.6488C141.127 38.8436 141.256 38.9085 142.138 38.9734L142.481 38.995L142.546 39.3413H137.666L137.731 38.995ZM138.526 26.6603C138.526 26.0111 138.977 25.2754 139.88 25.2754C140.783 25.2754 141.256 26.0111 141.256 26.6603C141.256 27.3095 140.805 28.0453 139.88 28.0453C138.956 28.0453 138.526 27.2879 138.526 26.6603Z" fill="#59262C"/>
<path d="M142.955 44.4213L143.406 44.3996C144.008 44.3564 144.266 44.2914 144.266 44.0534V32.7141C144.266 31.3941 144.094 31.1777 143.363 31.0046L142.89 30.8964L142.912 30.6367L146.416 29.6846L146.373 31.5889L146.459 31.6105C147.319 30.5718 148.436 29.7711 149.726 29.7711C151.919 29.7711 153.553 31.7187 153.553 34.3588C153.553 37.6913 151.059 39.6389 148.522 39.6389C147.684 39.6389 146.953 39.4874 146.416 39.2494H146.394V44.0967C146.394 44.2698 146.502 44.3564 147.383 44.3996L148.136 44.4213L148.2 44.7675H142.89L142.955 44.4213ZM151.231 35.0567C151.231 32.8494 150.156 31.1831 148.501 31.1831C147.62 31.1831 146.889 31.6376 146.394 32.2002V37.2856C146.953 38.3459 147.899 39.1899 148.888 39.1899C150.307 39.1899 151.231 37.3721 151.231 35.0567Z" fill="#59262C"/>
<path d="M158.54 38.9951L159.378 38.9085C160.066 38.8436 160.281 38.6921 160.281 38.5406V26.5522C160.281 26.379 160.195 26.3141 159.206 26.2276L158.562 26.1626L158.497 25.8164H169.267L169.482 30.0145H169.009L168.794 29.2571C168.042 27.1364 167.397 26.2276 164.301 26.2276L162.689 26.2492V32.3516L163.57 32.33C165.462 32.2651 166.129 32.0054 166.516 30.8368L166.774 30.1444L167.161 30.166L166.666 35.035H166.279L166.193 34.3858C166.107 33.109 165.57 32.8493 163.441 32.7844L162.689 32.7628V38.6055C162.689 38.7787 162.818 38.8652 163.785 38.9301L164.839 38.9951L164.903 39.3413H158.476L158.54 38.9951Z" fill="#59262C"/>
<path d="M169.289 34.6884C169.289 31.8969 171.46 29.668 174.405 29.668C177.351 29.668 179.371 31.832 179.371 34.5369C179.371 37.3934 177.243 39.6439 174.255 39.6439C171.267 39.6439 169.289 37.4367 169.289 34.6884ZM176.942 34.9264C176.942 33.0221 176.555 31.4857 175.824 30.7283C175.48 30.3821 175.007 30.0791 174.298 30.0791C172.621 30.0791 171.718 32.0267 171.718 34.3422C171.718 36.2898 172.062 37.7829 172.815 38.5619C173.18 38.9515 173.675 39.2328 174.362 39.2328C175.953 39.2328 176.942 37.3068 176.942 34.9264Z" fill="#59262C"/>
<path d="M187.347 37.8486H187.282C186.315 38.7142 185.111 39.6447 183.714 39.6447C183.026 39.6447 182.488 39.4066 182.015 38.9522C181.5 38.4328 181.306 37.6322 181.306 36.6151L181.349 30.6642C181.349 30.4694 181.263 30.4261 180.274 30.3396L179.93 30.2963L179.866 29.9717H183.499L183.434 36.0525C183.434 37.6105 184.079 38.1515 185.305 38.1515C186.164 38.1515 186.831 37.7837 187.325 37.3941V31.0537C187.325 30.5127 187.153 30.4045 186.293 30.3396L185.885 30.2963L185.821 29.9717H189.454V37.5456C189.454 38.1083 189.54 38.2597 189.862 38.3463L190.872 38.606L190.851 38.844L187.325 39.688L187.347 37.8486Z" fill="#59262C"/>
<path d="M191.324 38.9947L191.732 38.9731C192.356 38.9298 192.592 38.8649 192.592 38.6052V32.7408C192.592 31.3992 192.42 31.1828 191.689 31.0096L191.195 30.9014L191.216 30.6418L194.742 29.6896L194.699 31.4641H194.742C195.709 30.6634 196.956 29.668 198.353 29.668C199.041 29.668 199.643 29.8844 200.073 30.3388C200.589 30.8582 200.783 31.7021 200.783 32.6759V38.6269C200.783 38.7783 200.847 38.8865 201.836 38.9731L202.158 38.9947L202.223 39.341H197.386L197.451 38.9947L197.859 38.9731C198.59 38.9298 198.654 38.8 198.654 38.6052V33.2602C198.654 31.7021 198.031 31.1611 196.806 31.1611C195.924 31.1611 195.215 31.529 194.699 31.9402V38.6485C194.699 38.8433 194.828 38.9082 195.666 38.9731L196.075 38.9947L196.118 39.341H191.259L191.324 38.9947Z" fill="#59262C"/>
<path d="M209.983 37.8263L209.919 37.8046C209.08 38.8433 207.963 39.6224 206.673 39.6224C204.502 39.6224 202.803 37.6748 202.803 34.9914C202.803 31.6589 205.34 29.7763 207.898 29.7763C208.693 29.7763 209.36 29.8845 209.94 30.1441C209.94 30.1441 209.983 30.1225 209.983 30.1441V26.8332C209.983 26.2057 209.833 25.9893 209.274 25.8811L208.371 25.643L208.414 25.405L212.09 24.626V37.7613C212.09 38.3456 212.198 38.4755 212.499 38.562L213.53 38.8001L213.509 39.0597L209.983 39.6873V37.8263ZM209.983 37.2853V32.1134C209.446 31.053 208.479 30.2307 207.511 30.2307C206.006 30.2307 205.146 32.0268 205.146 34.3206C205.146 36.6144 206.221 38.2591 207.898 38.2591C208.801 38.2591 209.446 37.8263 209.983 37.2853Z" fill="#59262C"/>
<path d="M219.292 37.8911L219.249 37.8695C218.432 38.7783 217.55 39.579 216.433 39.579C215.164 39.579 214.111 38.6052 214.111 37.3717C214.111 35.8353 215.379 34.775 219.356 33.8228L219.378 33.2602C219.421 31.2477 218.582 30.3821 217.25 30.3821C216.497 30.3821 215.766 30.75 215.766 30.9447C215.766 31.0962 216.347 31.5506 216.347 32.1565C216.347 32.6975 215.874 33.1953 215.186 33.1953C214.498 33.1953 214.025 32.7841 214.025 32.2215C214.025 30.9664 216.691 29.668 218.518 29.668C220.775 29.668 221.656 30.5336 221.527 33.3251L221.334 37.2852C221.291 38.0209 221.57 38.3672 222.022 38.3672C222.366 38.3672 222.667 38.0859 222.968 37.8045L223.161 37.9993C222.667 38.6701 221.85 39.6006 220.904 39.6006C219.958 39.6006 219.399 39.0164 219.292 37.8911ZM219.227 37.4799L219.356 34.1907C216.798 34.7966 216.196 35.6622 216.196 36.7009C216.196 37.6314 216.863 38.259 217.593 38.259C218.195 38.259 218.69 38.0209 219.227 37.4799Z" fill="#59262C"/>
<path d="M224.709 36.9609L224.816 31.0966L223.097 31.0316L223.29 30.4906L224.644 29.4519L226.622 27.8506L226.945 27.9155L226.923 29.9929H230.234L229.933 31.01H226.923L226.794 36.6364C226.773 37.8265 227.31 38.3675 228.407 38.3675C229.116 38.3675 229.718 38.1079 230.191 37.74L230.298 37.9564C229.417 38.8869 228.321 39.6226 227.16 39.6226C225.569 39.6226 224.687 38.8003 224.709 36.9609Z" fill="#59262C"/>
<path d="M230.836 38.995L231.244 38.9734C231.868 38.9301 232.104 38.8652 232.104 38.6055V32.7195C232.104 31.3995 231.954 31.1831 231.201 31.0099L230.729 30.9017L230.75 30.6421L234.233 29.6899V38.6488C234.233 38.8436 234.362 38.9085 235.243 38.9734L235.587 38.995L235.651 39.3413H230.772L230.836 38.995ZM231.631 26.6603C231.631 26.0111 232.083 25.2754 232.986 25.2754C233.889 25.2754 234.362 26.0111 234.362 26.6603C234.362 27.3095 233.91 28.0453 232.986 28.0453C232.061 28.0453 231.631 27.2879 231.631 26.6603Z" fill="#59262C"/>
<path d="M236.425 34.6884C236.425 31.8969 238.597 29.668 241.542 29.668C244.487 29.668 246.508 31.832 246.508 34.5369C246.508 37.3934 244.379 39.6439 241.391 39.6439C238.403 39.6439 236.425 37.4367 236.425 34.6884ZM244.078 34.9264C244.078 33.0221 243.691 31.4857 242.96 30.7283C242.617 30.3821 242.144 30.0791 241.434 30.0791C239.757 30.0791 238.854 32.0267 238.854 34.3422C238.854 36.2898 239.198 37.7829 239.951 38.5619C240.316 38.9515 240.811 39.2328 241.499 39.2328C243.089 39.2328 244.078 37.3068 244.078 34.9264Z" fill="#59262C"/>
<path d="M247.475 38.9947L247.883 38.9731C248.507 38.9298 248.743 38.8649 248.743 38.6052V32.7408C248.743 31.3992 248.571 31.1828 247.84 31.0096L247.346 30.9014L247.367 30.6418L250.893 29.6896L250.85 31.4641H250.893C251.86 30.6634 253.107 29.668 254.504 29.668C255.192 29.668 255.794 29.8844 256.224 30.3388C256.74 30.8582 256.934 31.7021 256.934 32.6759V38.6269C256.934 38.7783 256.998 38.8865 257.987 38.9731L258.309 38.9947L258.374 39.341H253.537L253.601 38.9947L254.01 38.9731C254.741 38.9298 254.805 38.8 254.805 38.6052V33.2602C254.805 31.7021 254.182 31.1611 252.957 31.1611C252.075 31.1611 251.366 31.529 250.85 31.9402V38.6485C250.85 38.8433 250.979 38.9082 251.817 38.9731L252.226 38.9947L252.269 39.341H247.41L247.475 38.9947Z" fill="#59262C"/>
</svg>
