<?xml version="1.0" encoding="UTF-8"?>
<svg id="Layer_1" xmlns="http://www.w3.org/2000/svg" version="1.1" viewBox="0 0 561.6 142.73">
  <!-- Generator: Adobe Illustrator 30.4.0, SVG Export Plug-In . SVG Version: 2.1.4 Build 226)  -->
  <defs>
    <style>
      .st0 {
        fill: #59262c;
      }

      .st1 {
        fill: #d56e68;
      }
    </style>
  </defs>
  <path class="st1" d="M117.12,30.69c-1.2-1.79-2.86-3.1-5-3.92-2.14-.82-5.07-1.23-8.8-1.23-.52,0-1.08.01-1.69.04l-1.81.06v-.03c-3.52.09-6.07.14-7.64.14-1.71,0-3.81-.05-6.3-.14-1.11,2.9-3.3,7.77-6.59,14.61l-12.01,25.2-13.35-27.46c-1.71-3.54-3.6-7.66-5.67-12.35-2.09.09-4.27.14-6.55.14s-4.61-.05-7.08-.14v2.25c2.79.05,4.49.17,5.09.37.6.2,1.03.5,1.3.91.27.41.44,1.73.51,3.96.07,3.05.11,6.17.11,9.35v16.28c-.09,6.17-.15,9.5-.18,9.99-.07,1.81-.25,2.94-.53,3.41-.23.35-.65.63-1.26.83s-2.29.32-5.04.37v2.25l8.76-.25,8.48.25v-2.25c-2.79-.05-4.49-.17-5.09-.37-.6-.2-1.03-.51-1.3-.93-.27-.42-.44-1.75-.51-3.97-.09-3.02-.14-6.13-.14-9.32v-24.66l16.82,34.93,2.39,5.1c.26.54.54,1.26.84,2.15h1.37c1.57-3.82,2.75-6.61,3.52-8.37,1.08-2.41,2.57-5.6,4.47-9.57l11.89-24.87v50.35l-6.21-8.11h-4.44l10.65,13.98v3.16l-10.47,13.79h4.35l6.12-8.03v18.4h6.86v-18.4l6.05,8.02h4.35l-10.4-13.81v-3.15l10.59-13.97h-4.44l-6.15,8.1V31.45h-.02c.07-1.08.2-1.83.4-2.25,2.39-.71,4.64-1.07,6.74-1.07,2.49,0,4.6.42,6.35,1.27,1.75.85,3.05,2.09,3.91,3.72.86,1.63,1.29,3.46,1.29,5.48s-.44,4-1.32,5.73c-.88,1.73-2.11,3.02-3.7,3.88-1.58.86-3.26,1.29-5.02,1.29-1.2,0-2.84-.25-4.93-.74l.74,2.6c1.74.33,3.36.49,4.86.49,1.78,0,3.38-.21,4.79-.63,2.06-.61,4.05-1.62,5.95-3.04,1.9-1.42,3.35-3.15,4.35-5.19,1-2.04,1.5-4.09,1.5-6.16,0-2.3-.6-4.35-1.79-6.14Z"/>
  <g>
    <g>
      <path class="st0" d="M154.26,65.71v-1.49c1.32-.09,2.11-.19,2.36-.28.14-.05.25-.13.33-.25.11-.15.18-.38.21-.67.08-.67.15-2.13.21-4.38.04-1.09.05-2.96.05-5.62,0-2.38-.02-4.49-.05-6.32s-.11-2.93-.23-3.28c-.05-.16-.12-.29-.22-.38s-.29-.16-.57-.2c-.77-.13-1.47-.21-2.09-.23v-1.49c2.41.07,4.08.11,4.99.11,1.21,0,2.42-.04,3.64-.11l1.55,3.48,1.23,2.64,5.59,11.53c1.2-2.31,2.09-4.1,2.69-5.38l2.32-4.87c1.29-2.72,2.08-4.39,2.36-5.02s.61-1.42.98-2.38c1.54.08,2.52.12,2.95.12l5.24-.12v1.49h-.25c-1.18-.01-1.93.13-2.25.41s-.47.84-.47,1.66c0,.97,0,1.71-.02,2.21l-.09,4.94v6.17c0,1.5,0,2.38.02,2.64.09,1.49.18,2.4.25,2.74.04.16.1.3.19.4s.23.18.4.23.91.12,2.21.2v1.49l-5.61-.11-5.48.11v-1.49c1.45-.05,2.28-.13,2.49-.25s.35-.4.44-.83.13-1.89.13-4.36v-12.8l-4.08,8.24-1.95,4.1c-.52,1.08-1.24,2.64-2.18,4.69-.57,1.24-1.03,2.24-1.35,3.01h-1.2c-.42-.98-1.03-2.33-1.83-4.04-1.36-2.93-2.39-5.12-3.09-6.56l-4.62-9.44v8.63c0,1.44.02,3.16.06,5.14s.08,3.11.13,3.38.12.45.22.57.28.22.53.3c.25.08.97.16,2.15.23v1.49c-1.31-.07-2.65-.11-4.03-.11-1.79,0-3.22.04-4.27.11Z"/>
      <path class="st0" d="M202.8,63.39l-.77,1.71c-1.01.5-1.83.83-2.45.99s-1.38.24-2.26.24c-1.92,0-3.48-.38-4.68-1.12s-2.1-1.82-2.72-3.22c-.45-.98-.67-2.3-.67-3.94,0-1.23.12-2.24.35-3.02.23-.79.57-1.48,1-2.07.29-.4.69-.77,1.18-1.12l2.71-1.71c.91-.59,1.54-.94,1.88-1.05.56-.21,1.29-.32,2.2-.32.75,0,1.45.06,2.1.18s1.25.31,1.8.55l.18.3-.44,2.87c-.04.26-.09,1.07-.18,2.43h-1.37c-.07-1.04-.16-1.82-.26-2.32-.25-.4-.63-.72-1.14-.98s-1.15-.38-1.9-.38c-.89,0-1.6.16-2.13.49s-.91.88-1.16,1.65-.37,1.71-.37,2.81c0,1.48.25,2.8.76,3.96s1.17,2.02,2,2.57,1.84.82,3.05.82c.55,0,1.07-.06,1.56-.18s.96-.3,1.41-.54l.33.4Z"/>
      <path class="st0" d="M203.5,65.71v-1.49c1.32-.09,2.11-.19,2.36-.28.14-.05.25-.13.33-.25.11-.15.18-.38.21-.67.08-.67.15-2.13.21-4.38.04-1.09.05-2.96.05-5.62,0-2.38-.02-4.49-.05-6.32s-.11-2.93-.23-3.28c-.05-.16-.12-.29-.22-.38s-.29-.16-.57-.2c-.77-.13-1.47-.21-2.09-.23v-1.49c2.41.07,4.08.11,4.99.11,1.21,0,2.42-.04,3.64-.11l1.55,3.48,1.23,2.64,5.59,11.53c1.2-2.31,2.09-4.1,2.69-5.38l2.32-4.87c1.29-2.72,2.08-4.39,2.36-5.02s.61-1.42.98-2.38c1.54.08,2.52.12,2.95.12l5.24-.12v1.49h-.25c-1.18-.01-1.93.13-2.25.41s-.47.84-.47,1.66c0,.97,0,1.71-.02,2.21l-.09,4.94v6.17c0,1.5,0,2.38.02,2.64.09,1.49.18,2.4.25,2.74.04.16.1.3.19.4s.23.18.4.23.91.12,2.21.2v1.49l-5.61-.11-5.48.11v-1.49c1.45-.05,2.28-.13,2.49-.25s.35-.4.44-.83.13-1.89.13-4.36v-12.8l-4.08,8.24-1.95,4.1c-.52,1.08-1.24,2.64-2.18,4.69-.57,1.24-1.03,2.24-1.35,3.01h-1.2c-.42-.98-1.03-2.33-1.83-4.04-1.36-2.93-2.39-5.12-3.09-6.56l-4.62-9.44v8.63c0,1.44.02,3.16.06,5.14s.08,3.11.13,3.38.12.45.22.57.28.22.53.3c.25.08.97.16,2.15.23v1.49c-1.31-.07-2.65-.11-4.03-.11-1.79,0-3.22.04-4.27.11Z"/>
      <path class="st0" d="M254.01,64.39v1.32c-1.35-.06-2.54-.09-3.59-.09-.98,0-1.94.03-2.87.09l-.16-.19.16-2.3c-.42.27-1.66,1.2-3.73,2.78-.53.12-1.03.18-1.51.18-1.28,0-2.28-.38-3-1.12s-1.08-1.83-1.08-3.23c0-.95.16-1.73.48-2.34s.67-1.06,1.04-1.34.94-.57,1.71-.83c1.85-.66,3.88-1.17,6.08-1.55.02-1.39-.26-2.46-.86-3.18-.61-.73-1.54-1.09-2.78-1.09-.5,0-.98.06-1.44.19-.2.06-.43.18-.7.35l-.74,1.78-1.2-.26.11-2.27c.87-.59,1.69-1.1,2.48-1.53s1.34-.7,1.65-.79c.43-.13,1.04-.19,1.83-.19,1.28,0,2.33.18,3.16.55s1.44.81,1.83,1.31.66,1.04.81,1.62.22,1.3.22,2.18c0,.38-.03,1.35-.09,2.94-.04,1.05-.05,1.92-.05,2.58,0,2.09.06,3.35.18,3.8.05.21.14.35.28.42.19.09.78.18,1.78.25ZM247.55,57.22c-1,.21-1.91.47-2.73.76s-1.4.67-1.71,1.11-.47.99-.47,1.66c0,.75.19,1.33.57,1.74s.88.62,1.5.62c.53,0,1.06-.15,1.59-.46s.95-.69,1.26-1.16v-4.27Z"/>
      <path class="st0" d="M274.5,64.32v1.39c-1.76-.05-2.91-.07-3.45-.07-.36,0-1.56.02-3.59.07l-.18-.18.25-3.67c.04-.64.05-1.41.05-2.3v-3.41c0-1.59-.27-2.7-.8-3.31s-1.3-.92-2.29-.92c-.73,0-1.36.18-1.9.54s-.95.86-1.23,1.48c-.11.22-.16.7-.16,1.44v2.21c0,.91.02,2.08.05,3.49s.08,2.25.12,2.5c.04.14.08.25.14.32s.14.13.25.18c.18.08.45.14.81.18l1.35.07v1.39c-3.2-.08-4.98-.12-5.34-.12l-4.36.12v-1.39c1.04-.05,1.66-.09,1.84-.14s.32-.11.4-.2.16-.21.2-.38c.08-.36.14-1.48.18-3.34s.05-3.52.05-4.97v-5.7c0-1.89-.05-3.6-.14-5.13-.04-.79-.09-1.25-.16-1.39-.05-.08-.11-.15-.19-.19-.13-.08-.35-.15-.65-.19-.2-.04-.71-.07-1.53-.11v-1.3c1.65-.2,2.85-.38,3.59-.54s1.81-.47,3.21-.91l.39.21-.14,4.18c-.05,2.12-.07,4.09-.07,5.91v1.69l3.09-2.57c.82-.32,1.67-.47,2.55-.47.93,0,1.75.15,2.47.45s1.29.69,1.7,1.19.7,1.03.87,1.61.25,1.34.25,2.28c0,.32-.02,1.23-.07,2.74-.04,1.11-.05,2.03-.05,2.74,0,2.17.04,3.44.12,3.81.06.26.19.44.39.54s.86.17,1.97.19Z"/>
      <path class="st0" d="M275.53,57.41c0-1.99.34-3.64,1.02-4.95s1.7-2.29,3.06-2.95c1.36-.66,2.94-.99,4.75-.99,2.71,0,4.77.71,6.18,2.13,1.41,1.42,2.12,3.5,2.12,6.24,0,1.58-.21,2.95-.62,4.11-.41,1.16-.96,2.09-1.65,2.8s-1.42,1.25-2.18,1.61c-1.3.61-2.77.91-4.39.91-2.65,0-4.69-.75-6.13-2.26s-2.15-3.72-2.15-6.65ZM280.39,56.57c0,3.12.46,5.34,1.37,6.66.61.88,1.48,1.32,2.6,1.32.96,0,1.72-.33,2.29-1,.75-.89,1.12-2.61,1.12-5.17,0-1.79-.15-3.33-.45-4.61s-.74-2.18-1.32-2.68-1.28-.76-2.1-.76c-.7,0-1.32.18-1.85.55s-.94.99-1.23,1.86-.44,2.15-.44,3.82Z"/>
      <path class="st0" d="M313.88,64.36v1.35c-1.59-.08-2.89-.12-3.9-.12-1.16,0-2.17.04-3.02.12l-.32-.32c.02-.25.1-1.26.23-3.04l.09-2.88v-1.39c0-2.05-.08-3.4-.24-4.04s-.48-1.16-.98-1.56-1.15-.59-1.97-.59-1.5.2-2.04.59-.88.79-1.02,1.19c-.08.23-.12,1.17-.11,2.81v2.95c0,.86.02,1.9.07,3.15.01.55.06.91.14,1.09.06.13.13.22.23.28.14.09.42.18.83.26.14.02.63.07,1.48.14v1.35c-1.28-.05-2.84-.07-4.69-.07-2.14,0-3.81.02-4.99.07v-1.35c.91,0,1.55-.06,1.9-.19.16-.06.29-.16.37-.3.12-.22.18-.64.19-1.27l.07-1.56c.01-.33.02-.86.02-1.6v-2.3c0-1.04-.04-2.31-.11-3.8-.04-.75-.08-1.17-.15-1.27s-.17-.17-.31-.22c-.22-.08-.88-.14-1.99-.18v-1.35c2.13-.36,3.53-.63,4.2-.81s1.42-.46,2.27-.84l.47.21v2.83l3.2-2.57c.39-.15.71-.25.98-.31s.63-.08,1.1-.08c1.25,0,2.19.14,2.82.42s1.16.68,1.59,1.19.74,1.04.91,1.6.26,1.43.26,2.61c0,1.34-.01,2.19-.04,2.55-.01.14-.02.31-.02.51l.02,1.81c.01,1.98.04,3.21.1,3.67s.16.77.32.91.51.22,1.05.25c.2.01.53.04.98.09Z"/>
      <path class="st0" d="M323.45,42.58v-1.46l5.2.12,7.86-.16c1.54,0,2.75.16,3.64.47s1.66.89,2.29,1.72c.64.83.96,1.91.96,3.23s-.31,2.55-.92,3.69-1.58,2.07-2.88,2.8-2.7,1.1-4.19,1.1c-.38,0-.74-.02-1.1-.06s-.71-.1-1.06-.18c-.12-.33-.33-.74-.63-1.25l.37-.39c.26.08.5.14.73.18s.44.06.62.06c1.14,0,2.07-.4,2.81-1.2s1.11-1.97,1.11-3.51-.39-2.81-1.16-3.62-1.85-1.21-3.23-1.21c-.66,0-1.39.08-2.2.23-.06.73-.09,1.79-.11,3.2l-.05,3.45v6.66c0,1.64.02,3.34.07,5.1.04,1.02.1,1.66.19,1.93.05.12.13.22.24.31s.31.16.61.2l2.37.16v1.55c-3-.07-5.26-.11-6.77-.11-1.66,0-3.25.04-4.76.11v-1.55c1.3-.02,2.12-.12,2.46-.3.11-.06.19-.15.25-.26.08-.16.15-.59.19-1.28.13-1.88.19-3.96.19-6.26v-6.21l-.07-3.3c-.02-1.42-.05-2.3-.08-2.65s-.08-.6-.17-.76c-.05-.09-.13-.18-.24-.25s-.31-.13-.61-.19l-1.93-.12Z"/>
      <path class="st0" d="M360.23,64.39v1.32c-1.35-.06-2.54-.09-3.59-.09-.98,0-1.94.03-2.87.09l-.16-.19.16-2.3c-.42.27-1.66,1.2-3.73,2.78-.53.12-1.03.18-1.51.18-1.28,0-2.28-.38-3-1.12s-1.08-1.83-1.08-3.23c0-.95.16-1.73.48-2.34s.67-1.06,1.04-1.34.94-.57,1.71-.83c1.85-.66,3.88-1.17,6.08-1.55.02-1.39-.26-2.46-.86-3.18-.61-.73-1.54-1.09-2.78-1.09-.5,0-.98.06-1.44.19-.2.06-.43.18-.7.35l-.74,1.78-1.2-.26.11-2.27c.87-.59,1.69-1.1,2.48-1.53s1.34-.7,1.65-.79c.43-.13,1.04-.19,1.83-.19,1.28,0,2.33.18,3.16.55s1.44.81,1.83,1.31.66,1.04.81,1.62.22,1.3.22,2.18c0,.38-.03,1.35-.09,2.94-.04,1.05-.05,1.92-.05,2.58,0,2.09.06,3.35.18,3.8.05.21.14.35.28.42.19.09.78.18,1.78.25ZM353.78,57.22c-1,.21-1.91.47-2.73.76s-1.4.67-1.71,1.11-.47.99-.47,1.66c0,.75.19,1.33.57,1.74s.88.62,1.5.62c.53,0,1.06-.15,1.59-.46s.95-.69,1.26-1.16v-4.27Z"/>
      <path class="st0" d="M370.97,64.36v1.35c-1.32-.06-2.8-.09-4.43-.09-1.82,0-3.7.03-5.66.09v-1.35c.91,0,1.55-.06,1.9-.19.16-.06.29-.16.37-.3.12-.22.18-.64.19-1.27l.07-1.56c.01-.33.02-.86.02-1.6v-2.3c0-1.04-.04-2.31-.11-3.8-.04-.75-.08-1.17-.15-1.27s-.17-.17-.31-.22c-.22-.08-.88-.14-1.99-.18v-1.35c2.13-.36,3.53-.63,4.2-.81s1.42-.46,2.27-.84l.47.21-.04,3.55c.76-.79,1.35-1.44,1.76-1.95.61-.73,1.07-1.19,1.37-1.39.42-.28.98-.42,1.67-.42.43,0,.83.07,1.18.21l-.11,2.5c-.04,1.36-.06,2.14-.09,2.34l-.74.23c-.29-.39-.57-.66-.84-.81-.43-.25-.91-.37-1.42-.37-.69,0-1.29.21-1.78.64s-.79.86-.89,1.31c-.05.26-.07,1.25-.07,2.97v1.76l.04,2.39c.01.9.04,1.46.1,1.66s.17.37.36.48.59.2,1.21.25l1.44.14Z"/>
      <path class="st0" d="M389.72,64.39v1.32c-1.35-.06-2.54-.09-3.59-.09-.98,0-1.94.03-2.87.09l-.16-.19.16-2.3c-.42.27-1.66,1.2-3.73,2.78-.53.12-1.03.18-1.51.18-1.28,0-2.28-.38-3-1.12s-1.08-1.83-1.08-3.23c0-.95.16-1.73.48-2.34s.67-1.06,1.04-1.34.94-.57,1.71-.83c1.85-.66,3.88-1.17,6.08-1.55.02-1.39-.26-2.46-.86-3.18-.61-.73-1.54-1.09-2.78-1.09-.5,0-.98.06-1.44.19-.2.06-.43.18-.7.35l-.74,1.78-1.2-.26.11-2.27c.87-.59,1.69-1.1,2.48-1.53s1.34-.7,1.65-.79c.43-.13,1.04-.19,1.83-.19,1.28,0,2.33.18,3.16.55s1.44.81,1.83,1.31.66,1.04.81,1.62.22,1.3.22,2.18c0,.38-.03,1.35-.09,2.94-.04,1.05-.05,1.92-.05,2.58,0,2.09.06,3.35.18,3.8.05.21.14.35.28.42.19.09.78.18,1.78.25ZM383.27,57.22c-1,.21-1.91.47-2.73.76s-1.4.67-1.71,1.11-.47.99-.47,1.66c0,.75.19,1.33.57,1.74s.88.62,1.5.62c.53,0,1.06-.15,1.59-.46s.95-.69,1.26-1.16v-4.27Z"/>
      <path class="st0" d="M390.09,52.33v-.79l1.58-1c.26-.16.5-.34.74-.53v-2.36c0-.84-.05-1.89-.14-3.13,1.14-.38,1.88-.63,2.21-.76.06-.02.8-.37,2.23-1.04l.46.35-.18,1.83-.12,2.02-.16,3.08h.58c1.56,0,2.74-.06,3.53-.18l-.3,2.37c-.14.02-.27.04-.39.04l-1.72-.04h-1.71v5.87c0,1.8.02,2.87.05,3.2.05.55.24.98.59,1.29s.85.47,1.5.47c.4.01.72,0,.96-.03s.55-.08.92-.17l.28.72-.63.63c-.52.53-.97.99-1.35,1.39-.46.2-.86.33-1.22.4s-.72.1-1.1.1c-1.36,0-2.43-.35-3.21-1.05s-1.17-1.57-1.17-2.61l.07-5.8v-4.34h-.47c-.64,0-1.26.02-1.85.05Z"/>
      <path class="st0" d="M416.33,63l-.77,1.72c-.96.59-1.95,1.02-2.97,1.3-.76.2-1.63.3-2.6.3-1.16,0-2.18-.13-3.07-.4s-1.64-.64-2.27-1.11-1.18-1.04-1.65-1.72-.82-1.46-1.03-2.36-.32-1.86-.32-2.92c0-1.54.21-2.91.62-4.11.28-.84.61-1.45.98-1.83.23-.23.84-.67,1.83-1.32s1.7-1.07,2.14-1.27c.82-.36,1.79-.54,2.9-.54,1.57,0,2.86.33,3.87.98s1.72,1.49,2.14,2.51.62,2.26.62,3.71c0,.33-.01.64-.04.95-.29.09-.74.2-1.34.32-.8.15-1.34.23-1.62.25-.88.07-2.04.11-3.48.12s-2.24.02-2.39.04c-.15.01-.32.02-.51.02h-1.16c.09,1.85.67,3.31,1.72,4.39s2.36,1.61,3.9,1.61c.67,0,1.28-.07,1.85-.22s1.3-.45,2.21-.91l.42.49ZM412.14,55.73c.05-1.86-.21-3.17-.76-3.92-.56-.74-1.29-1.11-2.18-1.11s-1.67.39-2.27,1.16c-.61.79-.89,2.07-.84,3.87.69.11,1.85.16,3.46.16,1.03,0,1.89-.05,2.58-.16Z"/>
      <path class="st0" d="M427.93,64.36v1.35c-1.32-.06-2.8-.09-4.43-.09-1.82,0-3.7.03-5.66.09v-1.35c.91,0,1.55-.06,1.9-.19.16-.06.29-.16.37-.3.12-.22.18-.64.19-1.27l.07-1.56c.01-.33.02-.86.02-1.6v-2.3c0-1.04-.04-2.31-.11-3.8-.04-.75-.08-1.17-.15-1.27s-.17-.17-.31-.22c-.22-.08-.88-.14-1.99-.18v-1.35c2.13-.36,3.53-.63,4.2-.81s1.42-.46,2.27-.84l.47.21-.04,3.55c.76-.79,1.35-1.44,1.76-1.95.61-.73,1.07-1.19,1.37-1.39.42-.28.98-.42,1.67-.42.43,0,.83.07,1.18.21l-.11,2.5c-.04,1.36-.06,2.14-.09,2.34l-.74.23c-.29-.39-.57-.66-.84-.81-.43-.25-.91-.37-1.42-.37-.69,0-1.29.21-1.78.64s-.79.86-.89,1.31c-.05.26-.07,1.25-.07,2.97v1.76l.04,2.39c.01.9.04,1.46.1,1.66s.17.37.36.48.59.2,1.21.25l1.44.14Z"/>
    </g>
    <g>
      <path class="st0" d="M170.34,82.55h-1.48c-.02-1.36-.08-2.32-.18-2.88-.36-.52-.99-.97-1.89-1.37s-1.9-.6-3.01-.6c-1.59,0-2.83.4-3.7,1.2-.87.8-1.31,1.74-1.31,2.82.01.77.14,1.4.39,1.88s.6.86,1.05,1.14,1.13.54,2.02.77c.68.14,1.63.32,2.84.53s2,.36,2.36.44c.95.25,1.72.54,2.3.89s1.05.74,1.4,1.2.63,1.02.85,1.71.33,1.46.33,2.31c0,1.5-.31,2.82-.93,3.96-.47.86-1.12,1.64-1.95,2.35s-1.69,1.24-2.57,1.59c-1.41.56-3.09.84-5.06.84-1.44,0-2.72-.13-3.85-.4s-2.36-.73-3.71-1.39c.36-1.34.55-3.37.56-6.1h1.48c-.02.84.04,1.89.19,3.15.45.73,1.21,1.37,2.29,1.92s2.26.83,3.53.83c1.11,0,2.11-.2,2.98-.59s1.51-.93,1.9-1.63.59-1.48.59-2.36c0-.74-.14-1.37-.41-1.9-.28-.53-.71-.95-1.29-1.27s-1.62-.64-3.09-.98c-2.12-.45-3.52-.77-4.18-.97-1.01-.3-1.82-.74-2.43-1.32s-1.08-1.27-1.38-2.08-.46-1.69-.46-2.63c0-1.31.28-2.52.83-3.63s1.28-1.97,2.18-2.58,1.92-1.05,3.06-1.31,2.3-.4,3.5-.4,2.45.11,3.61.33,2.18.54,3.03.97l.14.42c-.16.76-.28,1.51-.36,2.24s-.13,1.7-.17,2.89Z"/>
      <path class="st0" d="M188.26,98.39l-.77,1.71c-1.01.5-1.83.83-2.45.99s-1.38.24-2.26.24c-1.92,0-3.48-.38-4.68-1.12s-2.1-1.82-2.72-3.22c-.45-.98-.67-2.3-.67-3.94,0-1.23.12-2.24.35-3.02.23-.79.57-1.48,1-2.07.29-.4.69-.77,1.18-1.12l2.71-1.71c.91-.59,1.54-.94,1.88-1.05.56-.21,1.29-.32,2.2-.32.75,0,1.45.06,2.1.18s1.25.31,1.8.55l.18.3-.44,2.87c-.04.26-.09,1.07-.18,2.43h-1.37c-.07-1.04-.16-1.82-.26-2.32-.25-.4-.63-.72-1.14-.98s-1.15-.38-1.9-.38c-.89,0-1.6.16-2.13.49s-.91.88-1.16,1.65-.37,1.71-.37,2.81c0,1.48.25,2.8.76,3.96s1.17,2.02,2,2.57,1.84.82,3.05.82c.55,0,1.07-.06,1.56-.18s.96-.3,1.41-.54l.33.4Z"/>
      <path class="st0" d="M209.1,99.32v1.39c-1.76-.05-2.91-.07-3.45-.07-.36,0-1.56.02-3.59.07l-.18-.18.25-3.67c.04-.64.05-1.41.05-2.3v-3.41c0-1.59-.27-2.7-.8-3.31s-1.3-.92-2.29-.92c-.73,0-1.36.18-1.9.54s-.95.86-1.23,1.48c-.11.22-.16.7-.16,1.44v2.21c0,.91.02,2.08.05,3.49s.08,2.25.12,2.5c.04.14.08.25.14.32s.14.13.25.18c.18.08.45.14.81.18l1.35.07v1.39c-3.2-.08-4.98-.12-5.34-.12l-4.36.12v-1.39c1.04-.05,1.66-.09,1.84-.14s.32-.11.4-.2.16-.21.2-.38c.08-.36.14-1.48.18-3.34s.05-3.52.05-4.97v-5.7c0-1.89-.05-3.6-.14-5.13-.04-.79-.09-1.25-.16-1.39-.05-.08-.11-.15-.19-.19-.13-.08-.35-.15-.65-.19-.2-.04-.71-.07-1.53-.11v-1.3c1.65-.2,2.85-.38,3.59-.54s1.81-.47,3.21-.91l.39.21-.14,4.18c-.05,2.12-.07,4.09-.07,5.91v1.69l3.09-2.57c.82-.32,1.67-.47,2.55-.47.93,0,1.75.15,2.47.45s1.29.69,1.7,1.19.7,1.03.87,1.61.25,1.34.25,2.28c0,.32-.02,1.23-.07,2.74-.04,1.11-.05,2.03-.05,2.74,0,2.17.04,3.44.12,3.81.06.26.19.44.39.54s.86.17,1.97.19Z"/>
      <path class="st0" d="M210.45,92.41c0-1.99.34-3.64,1.02-4.95s1.7-2.29,3.06-2.95,2.94-.99,4.75-.99c2.71,0,4.77.71,6.18,2.13s2.12,3.5,2.12,6.24c0,1.58-.21,2.95-.62,4.11s-.96,2.09-1.65,2.8-1.42,1.25-2.18,1.61c-1.3.61-2.77.91-4.39.91-2.65,0-4.69-.75-6.13-2.26s-2.15-3.72-2.15-6.65ZM215.32,91.57c0,3.12.46,5.34,1.37,6.66.61.88,1.48,1.32,2.6,1.32.96,0,1.72-.33,2.29-1,.75-.89,1.12-2.61,1.12-5.17,0-1.79-.15-3.33-.45-4.61s-.74-2.18-1.32-2.68-1.28-.76-2.1-.76c-.7,0-1.32.18-1.85.55s-.94.99-1.23,1.86-.44,2.15-.44,3.82Z"/>
      <path class="st0" d="M238.81,99.3v1.41c-1.46-.09-2.99-.14-4.59-.14s-3.39.05-5.38.14v-1.39c1.11-.04,1.79-.08,2.02-.14.18-.05.31-.11.4-.2s.15-.23.18-.41c.08-.35.14-1.46.18-3.32s.05-3.52.05-4.96v-5.8c0-1.84-.04-3.52-.12-5.04-.05-.82-.11-1.31-.18-1.46-.05-.08-.11-.15-.19-.19-.14-.09-.36-.16-.67-.21-.18-.02-.7-.05-1.58-.09v-1.3c1.45-.15,2.61-.32,3.48-.5s2.03-.5,3.5-.96l.37.21-.14,3.55c-.06,1.99-.09,4.44-.11,7.33v4.5c0,1.7.01,2.97.04,3.81.05,2.1.08,3.37.11,3.81s.06.72.12.83c.04.08.09.15.18.21.11.08.29.15.54.19.11.02.7.06,1.79.12Z"/>
      <path class="st0" d="M255.96,99.39v1.32c-1.35-.06-2.54-.09-3.59-.09-.98,0-1.94.03-2.87.09l-.16-.19.16-2.3c-.42.27-1.66,1.2-3.73,2.78-.53.12-1.03.18-1.51.18-1.28,0-2.28-.38-3-1.12s-1.08-1.83-1.08-3.23c0-.95.16-1.73.48-2.34s.67-1.06,1.04-1.34.94-.57,1.71-.83c1.85-.66,3.88-1.17,6.08-1.55.02-1.39-.26-2.46-.86-3.18-.61-.73-1.54-1.09-2.78-1.09-.5,0-.98.06-1.44.19-.2.06-.43.18-.7.35l-.74,1.78-1.2-.26.11-2.27c.87-.59,1.69-1.1,2.48-1.53s1.34-.7,1.65-.79c.43-.13,1.04-.19,1.83-.19,1.28,0,2.33.18,3.16.55s1.44.81,1.83,1.31.66,1.04.81,1.62.22,1.3.22,2.18c0,.38-.03,1.35-.09,2.94-.04,1.05-.05,1.92-.05,2.58,0,2.09.06,3.35.18,3.8.05.21.14.35.28.42.19.09.78.18,1.78.25ZM249.51,92.22c-1,.21-1.91.47-2.73.76s-1.4.67-1.71,1.11-.47.99-.47,1.66c0,.75.19,1.33.57,1.74s.88.62,1.5.62c.53,0,1.06-.15,1.59-.46s.95-.69,1.26-1.16v-4.27Z"/>
      <path class="st0" d="M266.89,99.36v1.35c-1.32-.06-2.8-.09-4.43-.09-1.82,0-3.7.03-5.66.09v-1.35c.91,0,1.55-.06,1.9-.19.16-.06.29-.16.37-.3.12-.22.18-.64.19-1.27l.07-1.56c.01-.33.02-.86.02-1.6v-2.3c0-1.04-.04-2.31-.11-3.8-.04-.75-.08-1.17-.15-1.27s-.17-.17-.31-.22c-.22-.08-.88-.14-1.99-.18v-1.35c2.13-.36,3.53-.63,4.2-.81s1.42-.46,2.27-.84l.47.21-.04,3.55c.76-.79,1.35-1.44,1.76-1.95.61-.73,1.07-1.19,1.37-1.39.42-.28.98-.42,1.67-.42.43,0,.83.07,1.18.21l-.11,2.5c-.04,1.36-.06,2.14-.09,2.34l-.74.23c-.29-.39-.57-.66-.84-.81-.43-.25-.91-.37-1.42-.37-.69,0-1.29.21-1.78.64s-.79.86-.89,1.31c-.05.26-.07,1.25-.07,2.97v1.76l.04,2.39c.01.9.04,1.46.1,1.66s.17.37.36.48.59.2,1.21.25l1.44.14Z"/>
      <path class="st0" d="M270.52,95.17h1.41c.06,1.31.12,2.14.18,2.48.53.64,1.11,1.12,1.74,1.43s1.36.47,2.18.47c1.1,0,1.95-.26,2.53-.79s.88-1.17.88-1.92c0-.49-.1-.9-.29-1.22s-.58-.62-1.17-.89c-.46-.16-1.33-.39-2.63-.67s-2.28-.59-2.94-.93-1.19-.85-1.56-1.52-.56-1.46-.56-2.36c0-1.62.61-2.96,1.83-4.03s2.97-1.61,5.26-1.61c.95,0,1.82.08,2.62.25s1.52.41,2.16.74l.05.18c-.07.41-.12.83-.16,1.25s-.09,1.42-.16,2.99l-1.35-.02c-.01-.13-.03-.35-.05-.65-.04-.53-.11-1.04-.21-1.53-.36-.47-.81-.82-1.34-1.05s-1.16-.35-1.87-.35c-1,0-1.77.22-2.31.67s-.82.98-.82,1.6.12,1.1.37,1.41.61.53,1.09.69,1.37.35,2.66.59,2.17.44,2.61.61c.64.25,1.16.56,1.55.93s.68.84.89,1.4.31,1.17.31,1.84c0,1.75-.68,3.22-2.03,4.41s-3.25,1.79-5.7,1.79c-.82,0-1.62-.07-2.39-.22s-1.72-.41-2.83-.8l-.19-.26c.09-.9.15-1.54.18-1.92l.11-2.95Z"/>
      <path class="st0" d="M304.61,99.32v1.39c-1.76-.05-2.91-.07-3.45-.07-.36,0-1.56.02-3.59.07l-.18-.18.25-3.67c.04-.64.05-1.41.05-2.3v-3.41c0-1.59-.27-2.7-.8-3.31s-1.3-.92-2.29-.92c-.73,0-1.36.18-1.9.54s-.95.86-1.23,1.48c-.11.22-.16.7-.16,1.44v2.21c0,.91.02,2.08.05,3.49s.08,2.25.12,2.5c.04.14.08.25.14.32s.14.13.25.18c.18.08.45.14.81.18l1.35.07v1.39c-3.2-.08-4.98-.12-5.34-.12l-4.36.12v-1.39c1.04-.05,1.66-.09,1.84-.14s.32-.11.4-.2.16-.21.2-.38c.08-.36.14-1.48.18-3.34s.05-3.52.05-4.97v-5.7c0-1.89-.05-3.6-.14-5.13-.04-.79-.09-1.25-.16-1.39-.05-.08-.11-.15-.19-.19-.13-.08-.35-.15-.65-.19-.2-.04-.71-.07-1.53-.11v-1.3c1.65-.2,2.85-.38,3.59-.54s1.81-.47,3.21-.91l.39.21-.14,4.18c-.05,2.12-.07,4.09-.07,5.91v1.69l3.09-2.57c.82-.32,1.67-.47,2.55-.47.93,0,1.75.15,2.47.45s1.29.69,1.7,1.19.7,1.03.87,1.61.25,1.34.25,2.28c0,.32-.02,1.23-.07,2.74-.04,1.11-.05,2.03-.05,2.74,0,2.17.04,3.44.12,3.81.06.26.19.44.39.54s.86.17,1.97.19Z"/>
      <path class="st0" d="M305.66,100.71v-1.3c1.31-.09,2.06-.2,2.25-.31s.3-.32.35-.62c.12-.64.18-2.3.18-4.97,0-3.67-.05-5.75-.16-6.26-.05-.23-.12-.39-.23-.46-.23-.15-1.03-.23-2.39-.25v-1.34c1.77-.19,3.11-.39,4.01-.6s1.89-.53,2.95-.97l.42.23c-.14,1.83-.21,3.54-.21,5.15v5.98c0,2.04.05,3.25.14,3.62.05.21.14.35.28.42.32.15,1.08.25,2.3.3v1.37c-1.66-.05-3.47-.07-5.43-.07-1.69,0-3.18.02-4.46.07ZM310.48,75.26c.75,0,1.39.26,1.91.79s.78,1.16.78,1.9-.26,1.39-.78,1.92c-.52.53-1.16.79-1.91.79s-1.37-.26-1.9-.79c-.53-.53-.79-1.17-.79-1.92s.26-1.37.78-1.9,1.16-.79,1.91-.79Z"/>
      <path class="st0" d="M323.32,100.59v6.5c0,.54.05.88.16,1.01s.3.23.58.29c.12.02.91.09,2.37.21v1.39l-5.57-.12-4.61.12v-1.39c1.07,0,1.72-.05,1.97-.14.14-.05.25-.13.34-.25s.14-.27.17-.45c.06-.47.11-1.48.16-3.02l.05-3.78v-8.14c0-1.48-.02-2.77-.07-3.88s-.13-1.76-.25-1.96c-.08-.13-.21-.23-.37-.29s-.83-.1-2-.11v-1.37c1.75-.19,3.06-.39,3.96-.6s1.81-.53,2.76-.95l.4.26-.05,2.95c.18-.14.47-.38.88-.72l1.76-1.44c.12-.11.29-.27.53-.49.46-.19.84-.31,1.15-.38s.74-.1,1.29-.1c1.24,0,2.24.18,3.01.53,1.09.5,1.99,1.29,2.69,2.35s1.05,2.35,1.05,3.88c0,.96-.13,1.92-.39,2.87-.26.95-.55,1.71-.87,2.27s-.67,1.03-1.03,1.41c-.27.28-.72.66-1.36,1.12s-1.23.93-1.77,1.37-.93.74-1.16.9c-.38.23-.73.4-1.07.49-.47.14-1.01.21-1.63.21-.49,0-1-.05-1.51-.14s-1.04-.23-1.56-.4ZM323.32,97.21c.54.55,1.1.96,1.69,1.24s1.2.41,1.83.41c.84,0,1.59-.21,2.24-.63s1.16-1.13,1.53-2.13.55-2.14.55-3.45c0-.83-.09-1.62-.28-2.36s-.45-1.35-.77-1.81-.78-.85-1.34-1.16-1.19-.47-1.85-.47-1.3.16-1.96.49-1.2.74-1.63,1.25v8.61Z"/>
      <path class="st0" d="M361.24,92.17h-1.41c-.04-1.46-.13-2.35-.3-2.65-.08-.15-.29-.26-.63-.33-.87-.15-2.24-.23-4.11-.23-.27,0-.74,0-1.41.02v1.95c0,2.78.03,4.73.1,5.84s.16,1.77.27,1.96c.08.13.23.23.44.31s1.13.17,2.76.29v1.39l-6.89-.12c-1,0-2.57.04-4.73.12v-1.46c1.35-.02,2.13-.08,2.34-.16.11-.04.19-.1.26-.19.11-.14.19-.45.25-.91.04-.27.08-1.12.14-2.54s.09-2.45.09-3.07v-7.28c0-.16-.05-1.8-.16-4.92-.02-.9-.09-1.54-.19-1.92-.04-.13-.09-.23-.17-.29s-.24-.13-.49-.18-.94-.12-2.07-.19v-1.48l6.24.11,8.46-.14c1.18,0,2.3.06,3.36.18l.16.25c-.13.67-.24,1.52-.33,2.55s-.15,1.93-.16,2.71h-1.44c0-.28-.03-.91-.09-1.9-.02-.52-.06-.83-.11-.93-.04-.08-.09-.14-.16-.18-.21-.14-.7-.28-1.47-.41s-1.67-.2-2.7-.2c-.2,0-.75.02-1.66.05s-1.53.06-1.85.09c-.13,1.17-.19,3.29-.19,6.35v2.46c1.5.05,2.51.07,3.04.07,1.52,0,2.48-.07,2.88-.21.15-.05.26-.18.33-.4.11-.29.17-.96.19-2h1.53c-.08,1.99-.12,4.54-.12,7.63Z"/>
      <path class="st0" d="M364.64,92.41c0-1.99.34-3.64,1.02-4.95.68-1.31,1.7-2.29,3.06-2.95s2.94-.99,4.75-.99c2.71,0,4.77.71,6.18,2.13s2.12,3.5,2.12,6.24c0,1.58-.21,2.95-.62,4.11s-.96,2.09-1.65,2.8-1.42,1.25-2.18,1.61c-1.3.61-2.77.91-4.39.91-2.65,0-4.69-.75-6.13-2.26s-2.15-3.72-2.15-6.65ZM369.51,91.57c0,3.12.46,5.34,1.37,6.66.61.88,1.48,1.32,2.6,1.32.96,0,1.72-.33,2.29-1,.75-.89,1.12-2.61,1.12-5.17,0-1.79-.15-3.33-.45-4.61s-.74-2.18-1.32-2.68-1.28-.76-2.1-.76c-.7,0-1.32.18-1.85.55s-.94.99-1.23,1.86-.44,2.15-.44,3.82Z"/>
      <path class="st0" d="M383,86.61v-1.34c1.01-.06,2.02-.19,3.04-.4s2.33-.59,3.92-1.12l.25.19c-.16,2.32-.25,4.46-.25,6.43v1.97c0,1.68.04,2.79.12,3.36.12.74.4,1.29.84,1.67s1.04.56,1.78.56c.84,0,1.55-.22,2.13-.66s.97-.89,1.2-1.36c.14-.3.21-.94.21-1.9v-3.01l-.04-2.5c0-.81-.05-1.29-.16-1.46-.06-.11-.18-.19-.35-.25s-.89-.12-2.14-.19v-1.34c1.82-.23,3.05-.42,3.71-.56s1.77-.46,3.34-.97l.33.19-.19,3.23c-.09,2.3-.14,3.58-.14,3.85v3.6c0,2.14.05,3.47.16,3.97.05.21.13.36.26.44.22.12.94.21,2.16.26v1.41l-3.62-.09-3.32.09-.12-.14.11-1.35c.01-.22.02-.67.02-1.35-.46.36-.86.7-1.2,1l-1.99,1.88c-.81.29-1.62.44-2.44.44-1.58,0-2.82-.43-3.73-1.3s-1.35-2.02-1.35-3.46c0-.18.02-.83.05-1.95.01-.6.02-1.37.02-2.32l-.04-3.71c0-.68-.04-1.1-.13-1.27s-.23-.29-.43-.37-.87-.15-2-.19Z"/>
      <path class="st0" d="M424.23,99.36v1.35c-1.59-.08-2.89-.12-3.9-.12-1.16,0-2.17.04-3.02.12l-.32-.32c.02-.25.1-1.26.23-3.04l.09-2.88v-1.39c0-2.05-.08-3.4-.24-4.04s-.48-1.16-.98-1.56-1.15-.59-1.97-.59-1.5.2-2.04.59-.88.79-1.02,1.19c-.08.23-.12,1.17-.11,2.81v2.95c0,.86.02,1.9.07,3.15.01.55.06.91.14,1.09.06.13.13.22.23.28.14.09.42.18.83.26.14.02.63.07,1.48.14v1.35c-1.28-.05-2.84-.07-4.69-.07-2.14,0-3.81.02-4.99.07v-1.35c.91,0,1.55-.06,1.9-.19.16-.06.29-.16.37-.3.12-.22.18-.64.19-1.27l.07-1.56c.01-.33.02-.86.02-1.6v-2.3c0-1.04-.04-2.31-.11-3.8-.04-.75-.08-1.17-.15-1.27s-.17-.17-.31-.22c-.22-.08-.88-.14-1.99-.18v-1.35c2.13-.36,3.53-.63,4.2-.81s1.42-.46,2.27-.84l.47.21v2.83l3.2-2.57c.39-.15.71-.25.98-.31s.63-.08,1.1-.08c1.25,0,2.19.14,2.82.42s1.16.68,1.59,1.19.74,1.04.91,1.6.26,1.43.26,2.61c0,1.34-.01,2.19-.04,2.55-.01.14-.02.31-.02.51l.02,1.81c.01,1.98.04,3.21.1,3.67s.16.77.32.91.51.22,1.05.25c.2.01.53.04.98.09Z"/>
      <path class="st0" d="M444.98,99.45v1.27l-3.69-.05-3.16.05-.16-.14.09-1.39.04-1.44c-.81.68-1.69,1.44-2.65,2.29-.38.35-.74.65-1.11.9-.45.18-1.04.26-1.78.26-1.95,0-3.56-.71-4.83-2.14s-1.92-3.37-1.92-5.84c0-1.37.19-2.6.56-3.67.28-.82.61-1.45.98-1.9.27-.33,1.06-.95,2.36-1.86s2.24-1.48,2.81-1.7,1.3-.33,2.21-.33c.56,0,1.03.04,1.4.12s1,.3,1.91.65c.04-.68.05-1.4.05-2.16,0-.89-.03-1.97-.09-3.23-.02-.61-.09-.99-.19-1.14-.08-.12-.2-.19-.35-.23s-.87-.07-2.16-.11v-1.3c2.5-.25,4.81-.76,6.94-1.53l.46.26c-.14,3.14-.22,4.99-.23,5.54-.04,3.06-.05,7.34-.05,12.85v1.63c0,.8.03,1.66.09,2.58.04.66.09,1.06.18,1.2s.22.25.4.33.82.15,1.9.23ZM438.04,88.21c-.64-.77-1.17-1.28-1.58-1.51-.77-.45-1.62-.67-2.55-.67-.81,0-1.47.2-1.98.59s-.89,1.03-1.14,1.91-.38,1.89-.38,3.04c0,2.13.46,3.78,1.37,4.94.68.86,1.59,1.28,2.74,1.28.87,0,1.63-.25,2.28-.74s1.04-.97,1.16-1.42.18-1.85.18-4.18l-.11-3.23Z"/>
      <path class="st0" d="M461.97,99.39v1.32c-1.35-.06-2.54-.09-3.59-.09-.98,0-1.94.03-2.87.09l-.16-.19.16-2.3c-.42.27-1.66,1.2-3.73,2.78-.53.12-1.03.18-1.51.18-1.28,0-2.28-.38-3-1.12s-1.08-1.83-1.08-3.23c0-.95.16-1.73.48-2.34s.67-1.06,1.04-1.34.94-.57,1.71-.83c1.85-.66,3.88-1.17,6.08-1.55.02-1.39-.26-2.46-.86-3.18-.61-.73-1.54-1.09-2.78-1.09-.5,0-.98.06-1.44.19-.2.06-.43.18-.7.35l-.74,1.78-1.2-.26.11-2.27c.87-.59,1.69-1.1,2.48-1.53s1.34-.7,1.65-.79c.43-.13,1.04-.19,1.83-.19,1.28,0,2.33.18,3.16.55s1.44.81,1.83,1.31.66,1.04.81,1.62.22,1.3.22,2.18c0,.38-.03,1.35-.09,2.94-.04,1.05-.05,1.92-.05,2.58,0,2.09.06,3.35.18,3.8.05.21.14.35.28.42.19.09.78.18,1.78.25ZM455.52,92.22c-1,.21-1.91.47-2.73.76s-1.4.67-1.71,1.11-.47.99-.47,1.66c0,.75.19,1.33.57,1.74s.88.62,1.5.62c.53,0,1.06-.15,1.59-.46s.95-.69,1.26-1.16v-4.27Z"/>
      <path class="st0" d="M462.53,87.33v-.79l1.58-1c.26-.16.5-.34.74-.53v-2.36c0-.84-.05-1.89-.14-3.13,1.14-.38,1.88-.63,2.21-.76.06-.02.8-.37,2.23-1.04l.46.35-.18,1.83-.12,2.02-.16,3.08h.58c1.56,0,2.74-.06,3.53-.18l-.3,2.37c-.14.02-.27.04-.39.04l-1.72-.04h-1.71v5.87c0,1.8.02,2.87.05,3.2.05.55.24.98.59,1.29s.85.47,1.5.47c.4.01.72,0,.96-.03s.55-.08.92-.17l.28.72-.63.63c-.52.53-.97.99-1.35,1.39-.46.2-.86.33-1.22.4s-.72.1-1.1.1c-1.36,0-2.43-.35-3.21-1.05s-1.17-1.57-1.17-2.61l.07-5.8v-4.34h-.47c-.64,0-1.26.02-1.85.05Z"/>
      <path class="st0" d="M473.84,100.71v-1.3c1.31-.09,2.06-.2,2.25-.31s.3-.32.35-.62c.12-.64.18-2.3.18-4.97,0-3.67-.05-5.75-.16-6.26-.05-.23-.12-.39-.23-.46-.23-.15-1.03-.23-2.39-.25v-1.34c1.77-.19,3.11-.39,4.01-.6s1.89-.53,2.95-.97l.42.23c-.14,1.83-.21,3.54-.21,5.15v5.98c0,2.04.05,3.25.14,3.62.05.21.14.35.28.42.32.15,1.08.25,2.3.3v1.37c-1.66-.05-3.47-.07-5.43-.07-1.69,0-3.18.02-4.46.07ZM478.66,75.26c.75,0,1.39.26,1.91.79s.78,1.16.78,1.9-.26,1.39-.78,1.92c-.52.53-1.16.79-1.91.79s-1.37-.26-1.9-.79c-.53-.53-.79-1.17-.79-1.92s.26-1.37.78-1.9,1.16-.79,1.91-.79Z"/>
      <path class="st0" d="M485.05,92.41c0-1.99.34-3.64,1.02-4.95s1.7-2.29,3.06-2.95,2.94-.99,4.75-.99c2.71,0,4.77.71,6.18,2.13s2.12,3.5,2.12,6.24c0,1.58-.21,2.95-.62,4.11-.41,1.16-.96,2.09-1.65,2.8s-1.42,1.25-2.18,1.61c-1.3.61-2.77.91-4.39.91-2.65,0-4.69-.75-6.13-2.26s-2.15-3.72-2.15-6.65ZM489.92,91.57c0,3.12.46,5.34,1.37,6.66.61.88,1.48,1.32,2.6,1.32.96,0,1.72-.33,2.29-1,.75-.89,1.12-2.61,1.12-5.17,0-1.79-.15-3.33-.45-4.61s-.74-2.18-1.32-2.68-1.28-.76-2.1-.76c-.7,0-1.32.18-1.85.55s-.94.99-1.23,1.86-.44,2.15-.44,3.82Z"/>
      <path class="st0" d="M523.73,99.36v1.35c-1.59-.08-2.89-.12-3.9-.12-1.16,0-2.17.04-3.02.12l-.32-.32c.02-.25.1-1.26.23-3.04l.09-2.88v-1.39c0-2.05-.08-3.4-.24-4.04s-.48-1.16-.98-1.56-1.15-.59-1.97-.59-1.5.2-2.04.59-.88.79-1.02,1.19c-.08.23-.12,1.17-.11,2.81v2.95c0,.86.02,1.9.07,3.15.01.55.06.91.14,1.09.06.13.13.22.23.28.14.09.42.18.83.26.14.02.63.07,1.48.14v1.35c-1.28-.05-2.84-.07-4.69-.07-2.14,0-3.81.02-4.99.07v-1.35c.91,0,1.55-.06,1.9-.19.16-.06.29-.16.37-.3.12-.22.18-.64.19-1.27l.07-1.56c.01-.33.02-.86.02-1.6v-2.3c0-1.04-.04-2.31-.11-3.8-.04-.75-.08-1.17-.15-1.27s-.17-.17-.31-.22c-.22-.08-.88-.14-1.99-.18v-1.35c2.13-.36,3.53-.63,4.2-.81s1.42-.46,2.27-.84l.47.21v2.83l3.2-2.57c.39-.15.71-.25.98-.31s.63-.08,1.1-.08c1.25,0,2.19.14,2.82.42s1.16.68,1.59,1.19.74,1.04.91,1.6.26,1.43.26,2.61c0,1.34-.01,2.19-.04,2.55-.01.14-.02.31-.02.51l.02,1.81c.01,1.98.04,3.21.1,3.67s.16.77.32.91.51.22,1.05.25c.2.01.53.04.98.09Z"/>
    </g>
  </g>
</svg>