<svg width="331" height="61" viewBox="0 0 331 61" fill="none" xmlns="http://www.w3.org/2000/svg">
<g clip-path="url(#clip0_3823_2535)">
<path d="M55.8198 3.44265C55.0076 2.24879 53.8842 1.37508 52.4359 0.828171C50.9876 0.281265 49.0047 0.0078125 46.4804 0.0078125C46.1284 0.0078125 45.7495 0.0144821 45.3366 0.0344908L44.1117 0.0745083V0.0544996C41.7295 0.114526 40.0037 0.147874 38.9412 0.147874C37.7839 0.147874 36.3627 0.114526 34.6775 0.0544996C33.9263 1.98868 32.4442 5.23676 30.2177 9.79876L22.0897 26.6061L13.0548 8.29143C11.8976 5.9304 10.6185 3.18253 9.21757 0.0544996C7.80312 0.114526 6.32777 0.147874 4.78474 0.147874C3.24171 0.147874 1.66485 0.107856 0 0.04783V1.54849C1.88818 1.58183 3.03868 1.66187 3.44474 1.79526C3.85081 1.92865 4.14181 2.12874 4.32454 2.40219C4.50727 2.67565 4.62232 3.55603 4.66969 5.04335C4.71707 7.07757 4.74414 9.15848 4.74414 11.2794V22.1375C4.68323 26.2526 4.64262 28.4736 4.62232 28.8004C4.57495 30.0076 4.45313 30.7613 4.26363 31.0747C4.10798 31.3082 3.82373 31.4949 3.41091 31.6283C2.99808 31.7617 1.86111 31.8417 0 31.8751V33.3757L5.92848 33.209L11.6675 33.3757V31.8751C9.77928 31.8417 8.62878 31.7617 8.22272 31.6283C7.81666 31.4949 7.52565 31.2882 7.34292 31.008C7.1602 30.7279 7.04515 29.8409 6.99777 28.3602C6.93686 26.346 6.90302 24.2718 6.90302 22.1442V5.70364L18.2862 29.0005L19.9037 32.402C20.0797 32.7621 20.2692 33.2423 20.4722 33.8359H21.3994C22.4619 31.2882 23.2605 29.4273 23.7816 28.2535C24.5125 26.6461 25.5209 24.5185 26.8067 21.8707L34.8535 5.28345V38.8648L30.6508 33.4558H27.6459L34.8535 42.7798V44.8874L27.7678 54.0848H30.7117L34.8535 48.7291V61.0011H39.4961V48.7291L43.5906 54.0781H46.5345L39.4961 44.8674V42.7665L46.6631 33.4491H43.6582L39.4961 38.8515V3.94954H39.4826C39.53 3.22922 39.6179 2.729 39.7533 2.44888C41.3708 1.97534 42.8935 1.73523 44.3147 1.73523C45.9999 1.73523 47.4278 2.01536 48.6122 2.58227C49.7965 3.14919 50.6763 3.97621 51.2583 5.06336C51.8404 6.1505 52.1314 7.37103 52.1314 8.71829C52.1314 10.0655 51.8336 11.3861 51.238 12.54C50.6425 13.6938 49.8101 14.5542 48.734 15.1278C47.6647 15.7013 46.5277 15.9881 45.3366 15.9881C44.5245 15.9881 43.4146 15.8214 42.0002 15.4946L42.501 17.2287C43.6786 17.4488 44.7749 17.5555 45.7901 17.5555C46.9947 17.5555 48.0775 17.4154 49.0318 17.1353C50.4259 16.7285 51.7727 16.0548 53.0585 15.1077C54.3444 14.1607 55.3257 13.0068 56.0025 11.6462C56.6792 10.2856 57.0176 8.91837 57.0176 7.53777C57.0176 6.00377 56.6116 4.6365 55.8062 3.44265H55.8198Z" fill="#D56E68"/>
<path d="M80.954 26.7989V25.8052C81.8474 25.7451 82.382 25.6784 82.5512 25.6184C82.646 25.5851 82.7204 25.5317 82.7745 25.4517C82.849 25.3516 82.8964 25.1982 82.9167 25.0048C82.9708 24.558 83.0182 23.5842 83.0588 22.0835C83.0859 21.3566 83.0926 20.1093 83.0926 18.3352C83.0926 16.7479 83.0791 15.3406 83.0588 14.1201C83.0385 12.8995 82.9843 12.1659 82.9031 11.9324C82.8693 11.8257 82.8219 11.739 82.7542 11.679C82.6866 11.619 82.558 11.5723 82.3685 11.5456C81.8474 11.4589 81.3736 11.4055 80.954 11.3922V10.3984C82.585 10.4451 83.7152 10.4718 84.3311 10.4718C85.15 10.4718 85.9689 10.4451 86.7945 10.3984L87.8435 12.7195L88.6759 14.4802L92.4591 22.1703C93.2712 20.6296 93.8735 19.4357 94.2796 18.582L95.8497 15.3339C96.7227 13.5198 97.2574 12.406 97.4469 11.9858C97.6363 11.5656 97.8597 11.0387 98.1101 10.3984C99.1523 10.4518 99.8155 10.4785 100.107 10.4785L103.653 10.3984V11.3922H103.484C102.685 11.3855 102.177 11.4789 101.961 11.6657C101.744 11.8524 101.643 12.2259 101.643 12.7728C101.643 13.4198 101.643 13.9133 101.629 14.2468L101.568 17.5416V21.6567C101.568 22.6571 101.568 23.2441 101.582 23.4175C101.643 24.4112 101.704 25.0182 101.751 25.2449C101.778 25.3516 101.819 25.445 101.88 25.5117C101.941 25.5784 102.035 25.6318 102.15 25.6651C102.265 25.6985 102.766 25.7451 103.646 25.7985V26.7923L99.8494 26.7189L96.1407 26.7923V25.7985C97.122 25.7652 97.6837 25.7118 97.8258 25.6318C97.968 25.5517 98.0627 25.365 98.1236 25.0782C98.1845 24.7914 98.2116 23.8176 98.2116 22.1703V13.6332L95.4504 19.1289L94.1307 21.8634C93.7788 22.5838 93.2915 23.6242 92.6553 24.9915C92.2696 25.8185 91.9583 26.4855 91.7417 26.999H90.9296C90.6453 26.3454 90.2325 25.445 89.6911 24.3045C88.7707 22.3503 88.0736 20.8897 87.5999 19.9293L84.4732 13.6332V19.389C84.4732 20.3495 84.4868 21.4966 84.5138 22.8172C84.5409 24.1378 84.568 24.8914 84.6018 25.0715C84.6356 25.2516 84.683 25.3716 84.7507 25.4517C84.8184 25.5317 84.9402 25.5984 85.1094 25.6518C85.2786 25.7051 85.7658 25.7585 86.5644 25.8052V26.7989C85.6779 26.7523 84.771 26.7256 83.8371 26.7256C82.6256 26.7256 81.6579 26.7523 80.9473 26.7989H80.954Z" fill="#59262C"/>
<path d="M113.805 25.2508L113.284 26.3913C112.6 26.7247 112.045 26.9448 111.626 27.0516C111.206 27.1583 110.692 27.2116 110.096 27.2116C108.797 27.2116 107.741 26.9582 106.929 26.4646C106.117 25.9711 105.508 25.2508 105.088 24.317C104.784 23.6634 104.635 22.783 104.635 21.6892C104.635 20.8688 104.716 20.1952 104.872 19.675C105.027 19.1548 105.257 18.6879 105.548 18.2944C105.745 18.0276 106.015 17.7808 106.347 17.5474L108.181 16.4069C108.797 16.0134 109.223 15.78 109.453 15.7066C109.832 15.5665 110.326 15.4932 110.942 15.4932C111.45 15.4932 111.924 15.5332 112.363 15.6132C112.803 15.6933 113.209 15.82 113.582 15.98L113.703 16.1801L113.406 18.0943C113.379 18.2677 113.345 18.8079 113.284 19.715H112.357C112.309 19.0214 112.248 18.5011 112.181 18.1677C112.012 17.9009 111.754 17.6875 111.409 17.514C111.064 17.3406 110.631 17.2606 110.123 17.2606C109.521 17.2606 109.041 17.3673 108.682 17.5874C108.323 17.8075 108.066 18.1743 107.897 18.6879C107.728 19.2015 107.646 19.8284 107.646 20.562C107.646 21.5491 107.816 22.4295 108.161 23.2032C108.506 23.9769 108.953 24.5505 109.514 24.9173C110.076 25.2841 110.76 25.4642 111.578 25.4642C111.951 25.4642 112.303 25.4242 112.634 25.3441C112.966 25.2641 113.284 25.144 113.588 24.984L113.812 25.2508H113.805Z" fill="#59262C"/>
<path d="M114.278 26.7989V25.8052C115.172 25.7451 115.706 25.6784 115.875 25.6184C115.97 25.5851 116.045 25.5317 116.099 25.4517C116.173 25.3516 116.221 25.1982 116.241 25.0048C116.295 24.558 116.342 23.5842 116.383 22.0835C116.41 21.3566 116.417 20.1093 116.417 18.3352C116.417 16.7479 116.403 15.3406 116.383 14.1201C116.363 12.8995 116.309 12.1659 116.227 11.9324C116.194 11.8257 116.146 11.739 116.078 11.679C116.011 11.619 115.882 11.5723 115.693 11.5456C115.172 11.4589 114.698 11.4055 114.278 11.3922V10.3984C115.909 10.4451 117.039 10.4718 117.655 10.4718C118.474 10.4718 119.293 10.4451 120.119 10.3984L121.168 12.7195L122 14.4802L125.783 22.1703C126.595 20.6296 127.198 19.4357 127.604 18.582L129.174 15.3339C130.047 13.5198 130.582 12.406 130.771 11.9858C130.961 11.5656 131.184 11.0387 131.434 10.3984C132.477 10.4518 133.14 10.4785 133.431 10.4785L136.977 10.3984V11.3922H136.808C136.009 11.3855 135.502 11.4789 135.285 11.6657C135.069 11.8524 134.967 12.2259 134.967 12.7728C134.967 13.4198 134.967 13.9133 134.953 14.2468L134.893 17.5416V21.6567C134.893 22.6571 134.893 23.2441 134.906 23.4175C134.967 24.4112 135.028 25.0182 135.075 25.2449C135.102 25.3516 135.143 25.445 135.204 25.5117C135.265 25.5784 135.36 25.6318 135.475 25.6651C135.59 25.6985 136.09 25.7451 136.97 25.7985V26.7923L133.174 26.7189L129.465 26.7923V25.7985C130.446 25.7652 131.008 25.7118 131.15 25.6318C131.292 25.5517 131.387 25.365 131.448 25.0782C131.509 24.7914 131.536 23.8176 131.536 22.1703V13.6332L128.775 19.1289L127.455 21.8634C127.103 22.5838 126.616 23.6242 125.98 24.9915C125.594 25.8185 125.282 26.4855 125.066 26.999H124.254C123.97 26.3454 123.557 25.445 123.015 24.3045C122.095 22.3503 121.398 20.8897 120.924 19.9293L117.797 13.6332V19.389C117.797 20.3495 117.811 21.4966 117.838 22.8172C117.865 24.1378 117.892 24.8914 117.926 25.0715C117.96 25.2516 118.007 25.3716 118.075 25.4517C118.143 25.5317 118.264 25.5984 118.434 25.6518C118.603 25.7051 119.09 25.7585 119.889 25.8052V26.7989C119.002 26.7523 118.095 26.7256 117.161 26.7256C115.95 26.7256 114.982 26.7523 114.271 26.7989H114.278Z" fill="#59262C"/>
<path d="M148.461 25.9181V26.7984C147.547 26.7584 146.742 26.7384 146.031 26.7384C145.368 26.7384 144.718 26.7584 144.089 26.7984L143.98 26.6717L144.089 25.1377C143.804 25.3178 142.965 25.9381 141.564 26.9919C141.206 27.0719 140.867 27.1119 140.542 27.1119C139.676 27.1119 138.999 26.8585 138.512 26.3649C138.025 25.8714 137.781 25.1444 137.781 24.2106C137.781 23.577 137.89 23.0568 138.106 22.65C138.323 22.2431 138.56 21.943 138.81 21.7562C139.06 21.5695 139.446 21.3761 139.967 21.2027C141.219 20.7625 142.593 20.4223 144.082 20.1689C144.095 19.2418 143.906 18.5282 143.5 18.0479C143.087 17.5611 142.458 17.321 141.619 17.321C141.28 17.321 140.955 17.361 140.644 17.4477C140.509 17.4877 140.353 17.5677 140.17 17.6811L139.669 18.8683L138.857 18.6949L138.932 17.1809C139.521 16.7874 140.075 16.4472 140.61 16.1605C141.145 15.8737 141.517 15.6936 141.727 15.6336C142.018 15.5469 142.431 15.5068 142.965 15.5068C143.832 15.5068 144.542 15.6269 145.104 15.8737C145.666 16.1204 146.078 16.4139 146.342 16.7474C146.606 17.0809 146.789 17.441 146.891 17.8279C146.992 18.2147 147.039 18.6949 147.039 19.2818C147.039 19.5353 147.019 20.1822 146.979 21.2427C146.951 21.943 146.945 22.5232 146.945 22.9634C146.945 24.3574 146.985 25.1977 147.066 25.4979C147.1 25.6379 147.161 25.7313 147.256 25.778C147.385 25.838 147.784 25.898 148.461 25.9447V25.9181ZM144.095 21.136C143.419 21.276 142.803 21.4494 142.248 21.6429C141.693 21.8363 141.3 22.0897 141.091 22.3832C140.881 22.6766 140.773 23.0435 140.773 23.4903C140.773 23.9905 140.901 24.3774 141.158 24.6508C141.415 24.9243 141.754 25.0643 142.173 25.0643C142.532 25.0643 142.891 24.9643 143.25 24.7575C143.608 24.5508 143.892 24.2973 144.102 23.9839V21.136H144.095Z" fill="#59262C"/>
<path d="M162.336 25.8711V26.7982C161.145 26.7648 160.367 26.7515 160.001 26.7515C159.758 26.7515 158.946 26.7648 157.572 26.7982L157.45 26.6781L157.619 24.2304C157.646 23.8035 157.653 23.29 157.653 22.6964V20.422C157.653 19.3616 157.47 18.6212 157.112 18.2144C156.753 17.8076 156.232 17.6008 155.562 17.6008C155.068 17.6008 154.641 17.7209 154.276 17.961C153.91 18.2011 153.633 18.5345 153.443 18.9481C153.369 19.0948 153.335 19.4149 153.335 19.9085V21.3825C153.335 21.9894 153.349 22.7697 153.369 23.7101C153.389 24.6505 153.423 25.2108 153.45 25.3775C153.477 25.4709 153.504 25.5443 153.545 25.591C153.586 25.6376 153.64 25.6777 153.714 25.711C153.836 25.7644 154.019 25.8044 154.262 25.8311L155.176 25.8778V26.8048C153.01 26.7515 151.806 26.7248 151.562 26.7248L148.611 26.8048V25.8778C149.315 25.8444 149.735 25.8177 149.857 25.7844C149.978 25.751 150.073 25.711 150.127 25.651C150.181 25.591 150.236 25.5109 150.263 25.3975C150.317 25.1574 150.357 24.4104 150.384 23.1699C150.412 21.9294 150.418 20.8222 150.418 19.8551V16.0535C150.418 14.7929 150.384 13.6524 150.324 12.632C150.296 12.1051 150.263 11.7983 150.215 11.7049C150.181 11.6515 150.141 11.6048 150.087 11.5782C149.999 11.5248 149.85 11.4781 149.647 11.4514C149.511 11.4248 149.166 11.4048 148.611 11.3781V10.511C149.728 10.3776 150.54 10.2576 151.041 10.1509C151.542 10.0442 152.266 9.83741 153.213 9.54395L153.477 9.68401L153.383 12.4719C153.349 13.8858 153.335 15.1998 153.335 16.4136V17.5408L155.426 15.8267C155.981 15.6133 156.557 15.5132 157.152 15.5132C157.782 15.5132 158.336 15.6133 158.824 15.8134C159.311 16.0134 159.697 16.2736 159.974 16.607C160.252 16.9405 160.448 17.294 160.563 17.6808C160.678 18.0677 160.732 18.5746 160.732 19.2015C160.732 19.4149 160.719 20.0219 160.685 21.029C160.658 21.7693 160.651 22.3829 160.651 22.8564C160.651 24.3037 160.678 25.1508 160.732 25.3975C160.773 25.571 160.861 25.691 160.996 25.7577C161.132 25.8244 161.578 25.8711 162.329 25.8844L162.336 25.8711Z" fill="#59262C"/>
<path d="M163.025 21.2623C163.025 19.935 163.255 18.8345 163.716 17.9608C164.176 17.0871 164.866 16.4335 165.787 15.9933C166.707 15.5531 167.776 15.333 169.001 15.333C170.835 15.333 172.229 15.8065 173.184 16.7536C174.138 17.7007 174.618 19.088 174.618 20.9154C174.618 21.9692 174.476 22.883 174.199 23.6566C173.921 24.4303 173.549 25.0506 173.082 25.5241C172.615 25.9977 172.121 26.3578 171.607 26.5979C170.727 27.0048 169.732 27.2049 168.636 27.2049C166.842 27.2049 165.462 26.7046 164.487 25.6975C163.513 24.6904 163.032 23.2165 163.032 21.2623H163.025ZM166.321 20.702C166.321 22.7829 166.633 24.2636 167.248 25.144C167.661 25.7309 168.25 26.0243 169.008 26.0243C169.658 26.0243 170.172 25.8043 170.558 25.3574C171.065 24.7638 171.316 23.6166 171.316 21.9092C171.316 20.7154 171.214 19.6882 171.011 18.8345C170.808 17.9808 170.51 17.3806 170.118 17.0471C169.725 16.7136 169.252 16.5402 168.697 16.5402C168.223 16.5402 167.803 16.6603 167.445 16.907C167.086 17.1538 166.809 17.5673 166.612 18.1476C166.416 18.7278 166.314 19.5815 166.314 20.6954L166.321 20.702Z" fill="#59262C"/>
<path d="M188.987 25.8902V26.7906C187.911 26.7372 187.031 26.7105 186.348 26.7105C185.563 26.7105 184.879 26.7372 184.304 26.7906L184.087 26.5772C184.101 26.4104 184.155 25.7368 184.243 24.5496L184.304 22.6288V21.7017C184.304 20.3344 184.25 19.434 184.141 19.0072C184.033 18.5803 183.816 18.2335 183.478 17.9667C183.14 17.6999 182.7 17.5732 182.145 17.5732C181.59 17.5732 181.13 17.7066 180.764 17.9667C180.399 18.2268 180.169 18.4936 180.074 18.7604C180.02 18.9138 179.993 19.5407 179.999 20.6346V22.6021C179.999 23.1757 180.013 23.8693 180.047 24.703C180.054 25.0698 180.087 25.3099 180.142 25.43C180.182 25.5167 180.23 25.5767 180.297 25.6167C180.392 25.6768 180.582 25.7368 180.859 25.7901C180.954 25.8035 181.285 25.8368 181.861 25.8835V26.7839C180.994 26.7506 179.939 26.7372 178.687 26.7372C177.238 26.7372 176.108 26.7506 175.31 26.7839V25.8835C175.925 25.8835 176.358 25.8435 176.595 25.7568C176.704 25.7168 176.792 25.6501 176.846 25.5567C176.927 25.41 176.968 25.1299 176.974 24.7097L177.022 23.6692C177.028 23.4491 177.035 23.0956 177.035 22.6021V21.0681C177.035 20.3744 177.008 19.5274 176.961 18.5336C176.934 18.0334 176.907 17.7533 176.859 17.6866C176.812 17.6199 176.744 17.5732 176.649 17.5399C176.501 17.4865 176.054 17.4465 175.303 17.4198V16.5194C176.744 16.2793 177.692 16.0992 178.145 15.9792C178.599 15.8591 179.106 15.6724 179.681 15.4189L179.999 15.559V17.4465L182.165 15.7324C182.429 15.6324 182.646 15.5657 182.828 15.5257C183.011 15.4856 183.255 15.4723 183.573 15.4723C184.419 15.4723 185.055 15.5657 185.481 15.7524C185.908 15.9392 186.266 16.206 186.557 16.5461C186.848 16.8863 187.058 17.2397 187.173 17.6132C187.288 17.9867 187.349 18.567 187.349 19.354C187.349 20.2477 187.342 20.8146 187.322 21.0547C187.315 21.1481 187.309 21.2615 187.309 21.3949L187.322 22.6021C187.329 23.9227 187.349 24.743 187.39 25.0498C187.43 25.3566 187.498 25.5634 187.606 25.6568C187.715 25.7501 187.952 25.8035 188.317 25.8235C188.452 25.8302 188.676 25.8502 188.98 25.8835L188.987 25.8902Z" fill="#59262C"/>
<path d="M195.457 11.3637V10.39L198.976 10.47L204.296 10.3633C205.338 10.3633 206.157 10.47 206.759 10.6768C207.361 10.8835 207.882 11.2703 208.309 11.8239C208.735 12.3775 208.959 13.0978 208.959 13.9782C208.959 14.8586 208.749 15.6789 208.336 16.4393C207.923 17.1996 207.267 17.8199 206.387 18.3068C205.507 18.7936 204.56 19.0404 203.551 19.0404C203.294 19.0404 203.05 19.0271 202.807 19.0004C202.563 18.9737 202.326 18.9337 202.089 18.8803C202.008 18.6602 201.866 18.3868 201.663 18.0466L201.913 17.7865C202.089 17.8399 202.252 17.8799 202.407 17.9066C202.563 17.9333 202.705 17.9466 202.827 17.9466C203.599 17.9466 204.228 17.6798 204.729 17.1462C205.23 16.6127 205.48 15.8323 205.48 14.8052C205.48 13.7781 205.216 12.9311 204.695 12.3908C204.174 11.8506 203.443 11.5838 202.509 11.5838C202.062 11.5838 201.568 11.6372 201.02 11.7372C200.979 12.2241 200.959 12.9311 200.946 13.8715L200.912 16.1725V20.6144C200.912 21.7082 200.925 22.8421 200.959 24.0159C200.986 24.6962 201.027 25.1231 201.088 25.3031C201.122 25.3832 201.176 25.4499 201.25 25.5099C201.325 25.5699 201.46 25.6166 201.663 25.6433L203.267 25.75V26.7838C201.237 26.7371 199.707 26.7104 198.685 26.7104C197.562 26.7104 196.486 26.7371 195.464 26.7838V25.75C196.344 25.7367 196.899 25.67 197.129 25.5499C197.203 25.5099 197.257 25.4499 197.298 25.3765C197.352 25.2698 197.399 24.983 197.426 24.5228C197.514 23.2689 197.555 21.8817 197.555 20.3476V16.2058L197.508 14.0049C197.494 13.0578 197.474 12.4709 197.454 12.2374C197.433 12.004 197.399 11.8373 197.338 11.7305C197.305 11.6705 197.25 11.6105 197.176 11.5638C197.102 11.5171 196.966 11.4771 196.763 11.4371L195.457 11.357V11.3637Z" fill="#59262C"/>
<path d="M220.347 25.9181V26.7984C219.434 26.7584 218.628 26.7384 217.918 26.7384C217.255 26.7384 216.605 26.7584 215.975 26.7984L215.867 26.6717L215.975 25.1377C215.691 25.3178 214.852 25.9381 213.451 26.9919C213.092 27.0719 212.754 27.1119 212.429 27.1119C211.563 27.1119 210.886 26.8585 210.399 26.3649C209.912 25.8714 209.668 25.1444 209.668 24.2106C209.668 23.577 209.776 23.0568 209.993 22.65C210.209 22.2431 210.446 21.943 210.697 21.7562C210.947 21.5695 211.333 21.3761 211.854 21.2027C213.106 20.7625 214.48 20.4223 215.969 20.1689C215.982 19.2418 215.793 18.5282 215.387 18.0479C214.974 17.5611 214.344 17.321 213.505 17.321C213.167 17.321 212.842 17.361 212.531 17.4477C212.395 17.4877 212.24 17.5677 212.057 17.6811L211.556 18.8683L210.744 18.6949L210.818 17.1809C211.407 16.7874 211.962 16.4472 212.497 16.1605C213.031 15.8737 213.404 15.6936 213.614 15.6336C213.905 15.5469 214.317 15.5068 214.852 15.5068C215.718 15.5068 216.429 15.6269 216.991 15.8737C217.552 16.1204 217.965 16.4139 218.229 16.7474C218.493 17.0809 218.676 17.441 218.777 17.8279C218.879 18.2147 218.926 18.6949 218.926 19.2818C218.926 19.5353 218.906 20.1822 218.865 21.2427C218.838 21.943 218.831 22.5232 218.831 22.9634C218.831 24.3574 218.872 25.1977 218.953 25.4979C218.987 25.6379 219.048 25.7313 219.143 25.778C219.271 25.838 219.671 25.898 220.347 25.9447V25.9181ZM215.982 21.136C215.305 21.276 214.69 21.4494 214.135 21.6429C213.58 21.8363 213.187 22.0897 212.977 22.3832C212.768 22.6766 212.659 23.0435 212.659 23.4903C212.659 23.9905 212.788 24.3774 213.045 24.6508C213.302 24.9243 213.641 25.0643 214.06 25.0643C214.419 25.0643 214.778 24.9643 215.136 24.7575C215.495 24.5508 215.779 24.2973 215.989 23.9839V21.136H215.982Z" fill="#59262C"/>
<path d="M227.622 25.8913V26.7917C226.729 26.7517 225.728 26.7317 224.624 26.7317C223.393 26.7317 222.12 26.7517 220.794 26.7917V25.8913C221.41 25.8913 221.843 25.8513 222.08 25.7646C222.188 25.7246 222.276 25.6579 222.33 25.5645C222.411 25.4178 222.452 25.1377 222.459 24.7175L222.506 23.677C222.513 23.4569 222.52 23.1034 222.52 22.6099V21.0759C222.52 20.3823 222.493 19.5352 222.445 18.5415C222.418 18.0412 222.391 17.7611 222.344 17.6944C222.296 17.6277 222.229 17.581 222.134 17.5477C221.985 17.4943 221.538 17.4543 220.787 17.4276V16.5272C222.229 16.2871 223.176 16.1071 223.63 15.987C224.083 15.867 224.591 15.6802 225.166 15.4268L225.484 15.5668L225.457 17.9345C225.971 17.4076 226.37 16.9741 226.648 16.634C227.061 16.1471 227.372 15.8403 227.575 15.7069C227.859 15.5201 228.238 15.4268 228.705 15.4268C228.996 15.4268 229.267 15.4734 229.504 15.5668L229.429 17.2342C229.402 18.1413 229.389 18.6615 229.369 18.7949L228.868 18.9483C228.671 18.6882 228.482 18.5081 228.299 18.4081C228.008 18.2413 227.683 18.1613 227.338 18.1613C226.871 18.1613 226.465 18.3013 226.134 18.5881C225.802 18.8749 225.599 19.1617 225.531 19.4619C225.497 19.6353 225.484 20.2956 225.484 21.4427V22.6166L225.511 24.2106C225.518 24.8109 225.538 25.1844 225.579 25.3177C225.619 25.4511 225.694 25.5645 225.822 25.6379C225.951 25.7113 226.222 25.7713 226.641 25.8046L227.616 25.898L227.622 25.8913Z" fill="#59262C"/>
<path d="M240.306 25.9181V26.7984C239.393 26.7584 238.587 26.7384 237.877 26.7384C237.214 26.7384 236.564 26.7584 235.934 26.7984L235.826 26.6717L235.934 25.1377C235.65 25.3178 234.811 25.9381 233.41 26.9919C233.051 27.0719 232.713 27.1119 232.388 27.1119C231.522 27.1119 230.845 26.8585 230.358 26.3649C229.871 25.8714 229.627 25.1444 229.627 24.2106C229.627 23.577 229.735 23.0568 229.952 22.65C230.168 22.2431 230.405 21.943 230.656 21.7562C230.906 21.5695 231.292 21.3761 231.813 21.2027C233.065 20.7625 234.439 20.4223 235.928 20.1689C235.941 19.2418 235.752 18.5282 235.346 18.0479C234.933 17.5611 234.303 17.321 233.464 17.321C233.126 17.321 232.801 17.361 232.49 17.4477C232.354 17.4877 232.199 17.5677 232.016 17.6811L231.515 18.8683L230.703 18.6949L230.777 17.1809C231.366 16.7874 231.921 16.4472 232.456 16.1605C232.991 15.8737 233.363 15.6936 233.573 15.6336C233.864 15.5469 234.276 15.5068 234.811 15.5068C235.677 15.5068 236.388 15.6269 236.95 15.8737C237.511 16.1204 237.924 16.4139 238.188 16.7474C238.452 17.0809 238.635 17.441 238.736 17.8279C238.838 18.2147 238.885 18.6949 238.885 19.2818C238.885 19.5353 238.865 20.1822 238.824 21.2427C238.797 21.943 238.79 22.5232 238.79 22.9634C238.79 24.3574 238.831 25.1977 238.912 25.4979C238.946 25.6379 239.007 25.7313 239.102 25.778C239.23 25.838 239.63 25.898 240.306 25.9447V25.9181ZM235.941 21.136C235.264 21.276 234.649 21.4494 234.094 21.6429C233.539 21.8363 233.146 22.0897 232.936 22.3832C232.727 22.6766 232.618 23.0435 232.618 23.4903C232.618 23.9905 232.747 24.3774 233.004 24.6508C233.261 24.9243 233.6 25.0643 234.019 25.0643C234.378 25.0643 234.737 24.9643 235.095 24.7575C235.454 24.5508 235.738 24.2973 235.948 23.9839V21.136H235.941Z" fill="#59262C"/>
<path d="M240.562 17.8733V17.3464L241.632 16.6795C241.808 16.5728 241.97 16.4527 242.132 16.326V14.752C242.132 14.1917 242.099 13.4914 242.038 12.6644C242.809 12.4109 243.31 12.2442 243.533 12.1575C243.574 12.1442 244.075 11.9107 245.043 11.4639L245.354 11.6973L245.232 12.9178L245.151 14.2651L245.043 16.3193H245.435C246.491 16.3193 247.289 16.2793 247.824 16.1993L247.621 17.78C247.526 17.7933 247.438 17.8066 247.357 17.8066L246.193 17.78H245.036V21.695C245.036 22.8955 245.049 23.6092 245.07 23.8293C245.103 24.1961 245.232 24.4829 245.469 24.6896C245.706 24.8964 246.044 25.0031 246.484 25.0031C246.755 25.0098 246.971 25.0031 247.134 24.9831C247.296 24.9631 247.506 24.9298 247.756 24.8697L247.946 25.3499L247.52 25.7701C247.168 26.1236 246.863 26.4304 246.606 26.6972C246.295 26.8306 246.024 26.9173 245.78 26.964C245.537 27.0107 245.293 27.0307 245.036 27.0307C244.115 27.0307 243.391 26.7972 242.863 26.3304C242.335 25.8635 242.072 25.2832 242.072 24.5896L242.119 20.7212V17.8266H241.801C241.368 17.8266 240.948 17.84 240.549 17.86L240.562 17.8733Z" fill="#59262C"/>
<path d="M258.314 24.9913L257.793 26.1385C257.143 26.532 256.473 26.8188 255.783 27.0055C255.268 27.1389 254.68 27.2056 254.023 27.2056C253.238 27.2056 252.548 27.1189 251.945 26.9388C251.343 26.7587 250.836 26.512 250.409 26.1985C249.983 25.885 249.611 25.5049 249.293 25.0513C248.974 24.5978 248.738 24.0776 248.595 23.4773C248.453 22.877 248.379 22.2368 248.379 21.5298C248.379 20.5027 248.521 19.5889 248.798 18.7886C248.988 18.2283 249.211 17.8215 249.462 17.568C249.617 17.4146 250.03 17.1212 250.7 16.6877C251.37 16.2541 251.851 15.974 252.148 15.8406C252.703 15.6005 253.36 15.4805 254.111 15.4805C255.174 15.4805 256.047 15.7006 256.73 16.1341C257.414 16.5676 257.894 17.1279 258.178 17.8082C258.463 18.4885 258.598 19.3155 258.598 20.2826C258.598 20.5027 258.591 20.7094 258.571 20.9162C258.375 20.9762 258.07 21.0496 257.664 21.1296C257.123 21.2297 256.757 21.283 256.568 21.2963C255.972 21.343 255.187 21.3697 254.213 21.3764C253.238 21.383 252.697 21.3897 252.595 21.4031C252.494 21.4164 252.379 21.4164 252.25 21.4164H251.465C251.526 22.6503 251.918 23.624 252.629 24.3443C253.34 25.0647 254.226 25.4181 255.268 25.4181C255.722 25.4181 256.135 25.3715 256.52 25.2714C256.906 25.1714 257.4 24.9713 258.016 24.6645L258.3 24.9913H258.314ZM255.478 20.1358C255.512 18.8953 255.336 18.0216 254.964 17.5214C254.585 17.0278 254.091 16.781 253.488 16.781C252.886 16.781 252.358 17.0412 251.952 17.5547C251.539 18.0816 251.35 18.9353 251.384 20.1358C251.851 20.2092 252.636 20.2426 253.725 20.2426C254.422 20.2426 255.004 20.2092 255.471 20.1358H255.478Z" fill="#59262C"/>
<path d="M266.165 25.8913V26.7917C265.272 26.7517 264.27 26.7317 263.167 26.7317C261.936 26.7317 260.663 26.7517 259.337 26.7917V25.8913C259.953 25.8913 260.386 25.8513 260.623 25.7646C260.731 25.7246 260.819 25.6579 260.873 25.5645C260.954 25.4178 260.995 25.1377 261.002 24.7175L261.049 23.677C261.056 23.4569 261.063 23.1034 261.063 22.6099V21.0759C261.063 20.3823 261.036 19.5352 260.988 18.5415C260.961 18.0412 260.934 17.7611 260.887 17.6944C260.839 17.6277 260.772 17.581 260.677 17.5477C260.528 17.4943 260.081 17.4543 259.33 17.4276V16.5272C260.772 16.2871 261.719 16.1071 262.173 15.987C262.626 15.867 263.134 15.6802 263.709 15.4268L264.027 15.5668L264 17.9345C264.514 17.4076 264.913 16.9741 265.191 16.634C265.604 16.1471 265.915 15.8403 266.118 15.7069C266.402 15.5201 266.781 15.4268 267.248 15.4268C267.539 15.4268 267.81 15.4734 268.047 15.5668L267.972 17.2342C267.945 18.1413 267.932 18.6615 267.911 18.7949L267.411 18.9483C267.214 18.6882 267.025 18.5081 266.842 18.4081C266.551 18.2413 266.226 18.1613 265.881 18.1613C265.414 18.1613 265.008 18.3013 264.677 18.5881C264.345 18.8749 264.142 19.1617 264.074 19.4619C264.04 19.6353 264.027 20.2956 264.027 21.4427V22.6166L264.054 24.2106C264.061 24.8109 264.081 25.1844 264.122 25.3177C264.162 25.4511 264.237 25.5645 264.365 25.6379C264.494 25.7113 264.765 25.7713 265.184 25.8046L266.159 25.898L266.165 25.8913Z" fill="#59262C"/>
<path d="M91.8374 38.0285H90.8357C90.8222 37.1214 90.7816 36.4811 90.7139 36.1076C90.4703 35.7608 90.0439 35.4607 89.4348 35.1939C88.8257 34.9271 88.149 34.7937 87.3978 34.7937C86.3217 34.7937 85.4825 35.0605 84.8937 35.5941C84.3049 36.1276 84.0072 36.7546 84.0072 37.4749C84.0139 37.9884 84.1019 38.4086 84.2711 38.7288C84.4403 39.0489 84.6772 39.3023 84.9817 39.4891C85.2863 39.6758 85.7465 39.8493 86.3488 40.0027C86.809 40.096 87.4519 40.2161 88.2708 40.3561C89.0897 40.4962 89.6243 40.5962 89.868 40.6496C90.5109 40.8163 91.032 41.0098 91.4245 41.2432C91.8171 41.4766 92.1351 41.7367 92.372 42.0435C92.6089 42.3503 92.7984 42.7238 92.9473 43.184C93.0961 43.6442 93.1706 44.1578 93.1706 44.7247C93.1706 45.7252 92.9608 46.6055 92.5412 47.3659C92.2231 47.9395 91.7832 48.4597 91.2215 48.9332C90.6598 49.4068 90.0778 49.7603 89.4822 49.9937C88.528 50.3672 87.391 50.5539 86.0578 50.5539C85.0832 50.5539 84.217 50.4672 83.4522 50.2872C82.6875 50.1071 81.855 49.8003 80.9414 49.3601C81.185 48.4664 81.3136 47.1124 81.3204 45.2916H82.322C82.3085 45.8519 82.3491 46.5522 82.4506 47.3926C82.7551 47.8794 83.2695 48.3063 84.0004 48.6731C84.7313 49.0399 85.5299 49.2267 86.3894 49.2267C87.1406 49.2267 87.8174 49.0933 88.4062 48.8332C88.9949 48.5731 89.4281 48.2129 89.692 47.746C89.9559 47.2792 90.0913 46.7589 90.0913 46.172C90.0913 45.6785 89.9966 45.2583 89.8138 44.9048C89.6311 44.5513 89.3333 44.2712 88.9408 44.0578C88.5483 43.8443 87.8444 43.6309 86.8496 43.4041C85.4148 43.104 84.4674 42.8906 84.0207 42.7572C83.3372 42.5571 82.789 42.2636 82.3762 41.8768C81.9633 41.49 81.6452 41.0298 81.4422 40.4895C81.2392 39.9493 81.1309 39.3624 81.1309 38.7354C81.1309 37.8617 81.3204 37.0547 81.6926 36.3144C82.0648 35.5741 82.5589 35.0005 83.168 34.5936C83.7771 34.1868 84.4674 33.8933 85.2389 33.7199C86.0104 33.5465 86.7954 33.4531 87.6076 33.4531C88.4197 33.4531 89.2656 33.5265 90.0507 33.6732C90.8357 33.82 91.526 34.0334 92.1013 34.3202L92.196 34.6003C92.0878 35.1072 92.0065 35.6074 91.9524 36.0943C91.8983 36.5812 91.8644 37.2281 91.8374 38.0218V38.0285Z" fill="#59262C"/>
<path d="M103.971 48.5945L103.45 49.735C102.766 50.0685 102.211 50.2886 101.792 50.3953C101.372 50.502 100.858 50.5554 100.262 50.5554C98.9629 50.5554 97.9071 50.3019 97.095 49.8084C96.2829 49.3148 95.6738 48.5945 95.2542 47.6608C94.9497 47.0072 94.8008 46.1268 94.8008 45.033C94.8008 44.2126 94.882 43.539 95.0376 43.0187C95.1933 42.4985 95.4234 42.0316 95.7144 41.6381C95.9107 41.3714 96.1814 41.1246 96.513 40.8911L98.347 39.7506C98.9629 39.3571 99.3893 39.1237 99.6194 39.0503C99.9983 38.9103 100.492 38.8369 101.108 38.8369C101.616 38.8369 102.09 38.8769 102.529 38.957C102.969 39.037 103.375 39.1637 103.748 39.3238L103.869 39.5239L103.572 41.4381C103.545 41.6115 103.511 42.1517 103.45 43.0588H102.523C102.475 42.3651 102.414 41.8449 102.347 41.5114C102.178 41.2446 101.92 41.0312 101.575 40.8578C101.23 40.6844 100.797 40.6044 100.289 40.6044C99.687 40.6044 99.2065 40.7111 98.8478 40.9312C98.4892 41.1513 98.232 41.5181 98.0628 42.0316C97.8936 42.5452 97.8124 43.1721 97.8124 43.9058C97.8124 44.8929 97.9816 45.7733 98.3267 46.547C98.6719 47.3206 99.1185 47.8942 99.6803 48.261C100.242 48.6279 100.926 48.8079 101.744 48.8079C102.117 48.8079 102.469 48.7679 102.8 48.6879C103.132 48.6079 103.45 48.4878 103.754 48.3277L103.978 48.5945H103.971Z" fill="#59262C"/>
<path d="M118.076 49.2148V50.1419C116.885 50.1086 116.107 50.0952 115.742 50.0952C115.498 50.0952 114.686 50.1086 113.312 50.1419L113.19 50.0219L113.359 47.5741C113.386 47.1473 113.393 46.6337 113.393 46.0401V43.7658C113.393 42.7053 113.21 41.965 112.852 41.5582C112.493 41.1513 111.972 40.9445 111.302 40.9445C110.808 40.9445 110.382 41.0646 110.016 41.3047C109.651 41.5448 109.373 41.8783 109.184 42.2918C109.109 42.4385 109.075 42.7587 109.075 43.2522V44.7262C109.075 45.3331 109.089 46.1135 109.109 47.0539C109.13 47.9943 109.163 48.5545 109.19 48.7213C109.218 48.8147 109.245 48.888 109.285 48.9347C109.326 48.9814 109.38 49.0214 109.454 49.0548C109.576 49.1081 109.759 49.1481 110.003 49.1748L110.916 49.2215V50.1486C108.751 50.0952 107.546 50.0685 107.302 50.0685L104.352 50.1486V49.2215C105.055 49.1882 105.475 49.1615 105.597 49.1281C105.719 49.0948 105.813 49.0548 105.868 48.9947C105.922 48.9347 105.976 48.8547 106.003 48.7413C106.057 48.5012 106.098 47.7542 106.125 46.5137C106.152 45.2731 106.159 44.166 106.159 43.1989V39.3972C106.159 38.1367 106.125 36.9962 106.064 35.9757C106.037 35.4488 106.003 35.142 105.955 35.0486C105.922 34.9953 105.881 34.9486 105.827 34.9219C105.739 34.8686 105.59 34.8219 105.387 34.7952C105.252 34.7685 104.907 34.7485 104.352 34.7218V33.8548C105.468 33.7214 106.28 33.6013 106.781 33.4946C107.282 33.3879 108.006 33.1812 108.954 32.8877L109.218 33.0278L109.123 35.8156C109.089 37.2296 109.075 38.5435 109.075 39.7574V40.8845L111.167 39.1704C111.722 38.957 112.297 38.857 112.892 38.857C113.522 38.857 114.077 38.957 114.564 39.1571C115.051 39.3572 115.437 39.6173 115.714 39.9508C115.992 40.2843 116.188 40.6377 116.303 41.0246C116.418 41.4114 116.472 41.9183 116.472 42.5453C116.472 42.7587 116.459 43.3656 116.425 44.3727C116.398 45.113 116.391 45.7266 116.391 46.2002C116.391 47.6475 116.418 48.4945 116.472 48.7413C116.513 48.9147 116.601 49.0348 116.736 49.1015C116.872 49.1681 117.318 49.2148 118.07 49.2282L118.076 49.2148Z" fill="#59262C"/>
<path d="M118.982 44.6041C118.982 43.2768 119.213 42.1763 119.673 41.3026C120.133 40.4289 120.823 39.7753 121.744 39.3351C122.664 38.8949 123.733 38.6748 124.958 38.6748C126.792 38.6748 128.186 39.1483 129.141 40.0954C130.095 41.0425 130.575 42.4298 130.575 44.2572C130.575 45.311 130.433 46.2248 130.156 46.9984C129.878 47.7721 129.506 48.3924 129.039 48.8659C128.572 49.3395 128.078 49.6996 127.564 49.9397C126.684 50.3466 125.689 50.5467 124.593 50.5467C122.799 50.5467 121.419 50.0464 120.444 49.0393C119.47 48.0322 118.989 46.5582 118.989 44.6041H118.982ZM122.278 44.0438C122.278 46.1247 122.59 47.6054 123.205 48.4858C123.618 49.0727 124.207 49.3661 124.965 49.3661C125.615 49.3661 126.129 49.146 126.515 48.6992C127.022 48.1056 127.273 46.9584 127.273 45.251C127.273 44.0572 127.171 43.03 126.968 42.1763C126.765 41.3226 126.467 40.7224 126.075 40.3889C125.682 40.0554 125.209 39.882 124.654 39.882C124.18 39.882 123.76 40.002 123.402 40.2488C123.043 40.4956 122.766 40.9091 122.569 41.4894C122.373 42.0696 122.272 42.9233 122.272 44.0371L122.278 44.0438Z" fill="#59262C"/>
<path d="M138.183 49.2008V50.1412C137.195 50.0812 136.159 50.0478 135.077 50.0478C133.994 50.0478 132.782 50.0812 131.436 50.1412V49.2141C132.187 49.1875 132.647 49.1608 132.803 49.1208C132.924 49.0874 133.012 49.0474 133.073 48.9874C133.134 48.9274 133.175 48.834 133.195 48.7139C133.249 48.4805 133.29 47.7402 133.317 46.4996C133.344 45.2591 133.351 44.1519 133.351 43.1915V39.3232C133.351 38.096 133.324 36.9755 133.27 35.9617C133.236 35.4148 133.195 35.088 133.148 34.9879C133.114 34.9346 133.073 34.8879 133.019 34.8612C132.924 34.8012 132.776 34.7545 132.566 34.7211C132.444 34.7078 132.092 34.6878 131.496 34.6611V33.7941C132.478 33.694 133.263 33.5806 133.852 33.4606C134.44 33.3405 135.225 33.1271 136.22 32.8203L136.471 32.9604L136.376 35.3281C136.335 36.6553 136.315 38.2894 136.301 40.2169V43.2182C136.301 44.352 136.308 45.1991 136.329 45.7593C136.362 47.1599 136.383 48.007 136.403 48.3004C136.423 48.5939 136.444 48.7806 136.484 48.854C136.511 48.9073 136.545 48.954 136.606 48.9941C136.68 49.0474 136.802 49.0941 136.971 49.1208C137.046 49.1341 137.445 49.1608 138.183 49.2008Z" fill="#59262C"/>
<path d="M149.783 49.2608V50.1412C148.869 50.1012 148.064 50.0812 147.353 50.0812C146.69 50.0812 146.04 50.1012 145.411 50.1412L145.303 50.0145L145.411 48.4805C145.127 48.6606 144.288 49.2808 142.887 50.3346C142.528 50.4147 142.19 50.4547 141.865 50.4547C140.998 50.4547 140.322 50.2012 139.834 49.7077C139.347 49.2141 139.104 48.4872 139.104 47.5534C139.104 46.9198 139.212 46.3996 139.428 45.9927C139.645 45.5859 139.882 45.2858 140.132 45.099C140.383 44.9123 140.768 44.7188 141.289 44.5454C142.541 44.1052 143.915 43.7651 145.404 43.5116C145.418 42.5846 145.228 41.8709 144.822 41.3907C144.409 40.9038 143.78 40.6637 142.941 40.6637C142.602 40.6637 142.278 40.7038 141.966 40.7905C141.831 40.8305 141.675 40.9105 141.493 41.0239L140.992 42.2111L140.18 42.0377L140.254 40.5237C140.843 40.1302 141.398 39.79 141.932 39.5032C142.467 39.2164 142.839 39.0364 143.049 38.9763C143.34 38.8896 143.753 38.8496 144.288 38.8496C145.154 38.8496 145.864 38.9697 146.426 39.2164C146.988 39.4632 147.401 39.7567 147.665 40.0902C147.929 40.4236 148.111 40.7838 148.213 41.1706C148.314 41.5575 148.362 42.0377 148.362 42.6246C148.362 42.878 148.341 43.525 148.301 44.5854C148.274 45.2858 148.267 45.866 148.267 46.3062C148.267 47.7001 148.308 48.5405 148.389 48.8406C148.423 48.9807 148.484 49.0741 148.578 49.1208C148.707 49.1808 149.106 49.2408 149.783 49.2875V49.2608ZM145.418 44.4787C144.741 44.6188 144.125 44.7922 143.57 44.9856C143.015 45.179 142.623 45.4325 142.413 45.7259C142.203 46.0194 142.095 46.3862 142.095 46.8331C142.095 47.3333 142.223 47.7202 142.481 47.9936C142.738 48.2671 143.076 48.4071 143.496 48.4071C143.854 48.4071 144.213 48.3071 144.572 48.1003C144.93 47.8936 145.215 47.6401 145.425 47.3266V44.4787H145.418Z" fill="#59262C"/>
<path d="M157.179 49.2341V50.1345C156.286 50.0945 155.284 50.0745 154.181 50.0745C152.949 50.0745 151.677 50.0945 150.351 50.1345V49.2341C150.966 49.2341 151.4 49.1941 151.636 49.1074C151.745 49.0674 151.833 49.0007 151.887 48.9073C151.968 48.7606 152.009 48.4804 152.015 48.0603L152.063 47.0198C152.07 46.7997 152.076 46.4462 152.076 45.9527V44.4187C152.076 43.725 152.049 42.878 152.002 41.8842C151.975 41.384 151.948 41.1039 151.9 41.0372C151.853 40.9705 151.785 40.9238 151.691 40.8905C151.542 40.8371 151.095 40.7971 150.344 40.7704V39.87C151.785 39.6299 152.733 39.4498 153.186 39.3298C153.64 39.2097 154.147 39.023 154.722 38.7695L155.041 38.9096L155.013 41.2773C155.528 40.7504 155.927 40.3169 156.205 39.9767C156.617 39.4898 156.929 39.183 157.132 39.0497C157.416 38.8629 157.795 38.7695 158.262 38.7695C158.553 38.7695 158.824 38.8162 159.061 38.9096L158.986 40.577C158.959 41.4841 158.945 42.0043 158.925 42.1377L158.424 42.2911C158.228 42.031 158.039 41.8509 157.856 41.7508C157.565 41.5841 157.24 41.5041 156.895 41.5041C156.428 41.5041 156.022 41.6441 155.69 41.9309C155.359 42.2177 155.156 42.5045 155.088 42.8046C155.054 42.978 155.041 43.6383 155.041 44.7855V45.9593L155.068 47.5534C155.074 48.1536 155.095 48.5271 155.135 48.6605C155.176 48.7939 155.25 48.9073 155.379 48.9807C155.507 49.054 155.778 49.1141 156.198 49.1474L157.172 49.2408L157.179 49.2341Z" fill="#59262C"/>
<path d="M159.635 46.4464H160.589C160.63 47.3201 160.671 47.8737 160.711 48.1004C161.07 48.5273 161.462 48.8474 161.889 49.0542C162.315 49.2609 162.809 49.3676 163.364 49.3676C164.109 49.3676 164.684 49.1942 165.076 48.8407C165.469 48.4873 165.672 48.0604 165.672 47.5602C165.672 47.2334 165.604 46.9599 165.476 46.7465C165.347 46.5331 165.083 46.333 164.684 46.1529C164.372 46.0462 163.784 45.8928 162.904 45.706C162.024 45.5193 161.361 45.3125 160.914 45.0858C160.468 44.859 160.109 44.5189 159.858 44.072C159.608 43.6251 159.479 43.0982 159.479 42.498C159.479 41.4175 159.892 40.5238 160.718 39.8101C161.544 39.0965 162.728 38.7363 164.278 38.7363C164.921 38.7363 165.509 38.7897 166.051 38.9031C166.592 39.0165 167.08 39.1765 167.513 39.3966L167.546 39.5167C167.499 39.7901 167.465 40.0702 167.438 40.3504C167.411 40.6305 167.377 41.2974 167.33 42.3446L166.416 42.3312C166.41 42.2445 166.396 42.0978 166.382 41.8977C166.355 41.5442 166.308 41.2041 166.24 40.8773C165.997 40.5638 165.692 40.3304 165.333 40.177C164.975 40.0236 164.548 39.9435 164.068 39.9435C163.391 39.9435 162.87 40.0903 162.505 40.3904C162.139 40.6905 161.95 41.044 161.95 41.4575C161.95 41.871 162.031 42.1912 162.2 42.3979C162.369 42.6047 162.613 42.7514 162.938 42.8581C163.263 42.9648 163.865 43.0916 164.738 43.2516C165.611 43.4117 166.206 43.5451 166.504 43.6585C166.937 43.8252 167.289 44.032 167.553 44.2787C167.817 44.5255 168.013 44.839 168.156 45.2125C168.298 45.586 168.365 45.9928 168.365 46.4397C168.365 47.6069 167.905 48.5873 166.992 49.381C166.078 50.1747 164.792 50.5748 163.134 50.5748C162.579 50.5748 162.038 50.5281 161.516 50.4281C160.995 50.3281 160.352 50.1546 159.601 49.8945L159.473 49.7211C159.534 49.1209 159.574 48.694 159.594 48.4406L159.669 46.473L159.635 46.4464Z" fill="#59262C"/>
<path d="M182.707 49.2148V50.1419C181.516 50.1086 180.738 50.0952 180.372 50.0952C180.129 50.0952 179.317 50.1086 177.943 50.1419L177.821 50.0219L177.99 47.5741C178.017 47.1473 178.024 46.6337 178.024 46.0401V43.7658C178.024 42.7053 177.841 41.965 177.483 41.5582C177.124 41.1513 176.603 40.9445 175.933 40.9445C175.439 40.9445 175.012 41.0646 174.647 41.3047C174.282 41.5448 174.004 41.8783 173.815 42.2918C173.74 42.4385 173.706 42.7587 173.706 43.2522V44.7262C173.706 45.3331 173.72 46.1135 173.74 47.0539C173.76 47.9943 173.794 48.5545 173.821 48.7213C173.848 48.8147 173.875 48.888 173.916 48.9347C173.957 48.9814 174.011 49.0214 174.085 49.0548C174.207 49.1081 174.39 49.1481 174.633 49.1748L175.547 49.2215V50.1486C173.381 50.0952 172.177 50.0685 171.933 50.0685L168.982 50.1486V49.2215C169.686 49.1882 170.106 49.1615 170.228 49.1281C170.349 49.0948 170.444 49.0548 170.498 48.9947C170.553 48.9347 170.607 48.8547 170.634 48.7413C170.688 48.5012 170.728 47.7542 170.756 46.5137C170.783 45.2731 170.789 44.166 170.789 43.1989V39.3972C170.789 38.1367 170.756 36.9962 170.695 35.9757C170.668 35.4488 170.634 35.142 170.586 35.0486C170.553 34.9953 170.512 34.9486 170.458 34.9219C170.37 34.8686 170.221 34.8219 170.018 34.7952C169.883 34.7685 169.537 34.7485 168.982 34.7218V33.8548C170.099 33.7214 170.911 33.6013 171.412 33.4946C171.913 33.3879 172.637 33.1812 173.584 32.8877L173.848 33.0278L173.754 35.8156C173.72 37.2296 173.706 38.5435 173.706 39.7574V40.8845L175.797 39.1704C176.352 38.957 176.928 38.857 177.523 38.857C178.153 38.857 178.708 38.957 179.195 39.1571C179.682 39.3572 180.068 39.6173 180.345 39.9508C180.623 40.2843 180.819 40.6377 180.934 41.0246C181.049 41.4114 181.103 41.9183 181.103 42.5453C181.103 42.7587 181.09 43.3656 181.056 44.3727C181.029 45.113 181.022 45.7266 181.022 46.2002C181.022 47.6475 181.049 48.4945 181.103 48.7413C181.144 48.9147 181.232 49.0348 181.367 49.1015C181.503 49.1681 181.949 49.2148 182.7 49.2282L182.707 49.2148Z" fill="#59262C"/>
<path d="M183.418 50.1409V49.2739C184.305 49.2138 184.812 49.1405 184.941 49.0671C185.069 48.9937 185.144 48.8537 185.178 48.6536C185.259 48.2267 185.299 47.1196 185.299 45.3388C185.299 42.8911 185.266 41.5038 185.191 41.1637C185.157 41.0103 185.11 40.9035 185.035 40.8569C184.88 40.7568 184.338 40.7035 183.418 40.6901V39.7964C184.616 39.6697 185.523 39.5363 186.132 39.3962C186.741 39.2562 187.411 39.0427 188.128 38.7493L188.413 38.9027C188.318 40.1232 188.27 41.2637 188.27 42.3375V46.3259C188.27 47.6865 188.304 48.4935 188.365 48.7403C188.399 48.8804 188.46 48.9737 188.555 49.0204C188.771 49.1205 189.286 49.1872 190.111 49.2205V50.1342C188.988 50.1009 187.763 50.0876 186.436 50.0876C185.293 50.0876 184.284 50.1009 183.418 50.1342V50.1409ZM186.68 33.1602C187.188 33.1602 187.621 33.3336 187.973 33.6871C188.325 34.0405 188.5 34.4607 188.5 34.9543C188.5 35.4478 188.325 35.8813 187.973 36.2348C187.621 36.5883 187.188 36.7617 186.68 36.7617C186.172 36.7617 185.753 36.5883 185.394 36.2348C185.035 35.8813 184.859 35.4545 184.859 34.9543C184.859 34.4541 185.035 34.0405 185.387 33.6871C185.739 33.3336 186.172 33.1602 186.68 33.1602Z" fill="#59262C"/>
<path d="M195.369 50.0543V54.3895C195.369 54.7497 195.403 54.9764 195.477 55.0632C195.551 55.1499 195.68 55.2166 195.87 55.2566C195.951 55.2699 196.485 55.3166 197.473 55.3966V56.3237L193.704 56.2437L190.584 56.3237V55.3966C191.308 55.3966 191.748 55.3633 191.917 55.3033C192.012 55.2699 192.086 55.2166 192.147 55.1365C192.208 55.0565 192.242 54.9564 192.262 54.8364C192.303 54.5229 192.337 53.8493 192.371 52.8222L192.404 50.3011V44.872C192.404 43.8849 192.391 43.0246 192.357 42.2842C192.323 41.5439 192.269 41.1104 192.188 40.977C192.134 40.8903 192.046 40.8236 191.938 40.7836C191.829 40.7436 191.376 40.7169 190.584 40.7102V39.7965C191.768 39.6698 192.655 39.5364 193.264 39.3963C193.873 39.2562 194.489 39.0428 195.132 38.7627L195.403 38.9361L195.369 40.9036C195.491 40.8103 195.687 40.6502 195.964 40.4234L197.155 39.463C197.237 39.3896 197.352 39.2829 197.514 39.1362C197.825 39.0095 198.083 38.9294 198.292 38.8827C198.502 38.8361 198.793 38.8161 199.165 38.8161C200.005 38.8161 200.681 38.9361 201.202 39.1695C201.94 39.503 202.549 40.0299 203.023 40.7369C203.497 41.4439 203.734 42.3042 203.734 43.3247C203.734 43.965 203.646 44.6053 203.47 45.2389C203.294 45.8725 203.097 46.3794 202.881 46.7529C202.664 47.1264 202.427 47.4398 202.184 47.6933C202.001 47.88 201.697 48.1335 201.263 48.4403C200.83 48.7471 200.431 49.0605 200.065 49.354C199.7 49.6475 199.436 49.8475 199.28 49.9543C199.023 50.1077 198.786 50.221 198.556 50.2811C198.238 50.3744 197.873 50.4211 197.453 50.4211C197.122 50.4211 196.776 50.3878 196.431 50.3278C196.086 50.2677 195.727 50.1743 195.376 50.061L195.369 50.0543ZM195.369 47.8066C195.734 48.1735 196.113 48.4469 196.512 48.6337C196.912 48.8204 197.325 48.9071 197.751 48.9071C198.319 48.9071 198.827 48.7671 199.267 48.4869C199.707 48.2068 200.052 47.7333 200.302 47.0663C200.553 46.3994 200.675 45.639 200.675 44.7653C200.675 44.2117 200.614 43.6848 200.485 43.1913C200.357 42.6978 200.181 42.2909 199.964 41.9841C199.747 41.6773 199.436 41.4172 199.057 41.2104C198.678 41.0037 198.252 40.897 197.805 40.897C197.358 40.897 196.925 41.0037 196.479 41.2238C196.032 41.4439 195.667 41.7173 195.376 42.0575V47.8L195.369 47.8066Z" fill="#59262C"/>
<path d="M221.033 44.4377H220.079C220.052 43.464 219.991 42.8704 219.876 42.6703C219.822 42.5703 219.679 42.4969 219.449 42.4502C218.861 42.3502 217.933 42.2968 216.668 42.2968C216.485 42.2968 216.167 42.2968 215.714 42.3101V43.6107C215.714 45.4649 215.734 46.7654 215.781 47.5058C215.829 48.2461 215.89 48.6863 215.964 48.813C216.018 48.8997 216.12 48.9664 216.262 49.0197C216.404 49.0731 217.027 49.1331 218.13 49.2132V50.1402L213.467 50.0602C212.79 50.0602 211.727 50.0869 210.266 50.1402V49.1665C211.179 49.1531 211.707 49.1131 211.849 49.0598C211.924 49.0331 211.978 48.9931 212.025 48.933C212.1 48.8397 212.154 48.6329 212.194 48.3261C212.221 48.146 212.249 47.5791 212.289 46.632C212.33 45.685 212.35 44.998 212.35 44.5845V39.729C212.35 39.6223 212.316 38.5285 212.242 36.4476C212.228 35.8473 212.181 35.4205 212.113 35.167C212.086 35.0803 212.052 35.0136 211.998 34.9736C211.944 34.9336 211.836 34.8869 211.667 34.8536C211.497 34.8202 211.03 34.7735 210.266 34.7268V33.7397L214.489 33.8131L220.214 33.7197C221.013 33.7197 221.771 33.7597 222.488 33.8398L222.596 34.0065C222.508 34.4534 222.434 35.0203 222.373 35.7073C222.312 36.3942 222.271 36.9945 222.265 37.5147H221.29C221.29 37.328 221.27 36.9078 221.229 36.2475C221.216 35.9007 221.189 35.6939 221.155 35.6272C221.128 35.5739 221.094 35.5339 221.047 35.5072C220.904 35.4138 220.573 35.3204 220.052 35.2337C219.531 35.147 218.921 35.1003 218.224 35.1003C218.089 35.1003 217.717 35.1137 217.101 35.1337C216.485 35.1537 216.066 35.1737 215.849 35.1937C215.761 35.974 215.72 37.388 215.72 39.4289V41.0696C216.736 41.103 217.419 41.1163 217.778 41.1163C218.806 41.1163 219.456 41.0696 219.727 40.9762C219.828 40.9429 219.903 40.8562 219.95 40.7094C220.025 40.516 220.065 40.0692 220.079 39.3755H221.114C221.06 40.7028 221.033 42.4035 221.033 44.4644V44.4377Z" fill="#59262C"/>
<path d="M223.334 44.6041C223.334 43.2768 223.564 42.1763 224.024 41.3026C224.484 40.4289 225.175 39.7753 226.095 39.3351C227.016 38.8949 228.085 38.6748 229.31 38.6748C231.144 38.6748 232.538 39.1483 233.492 40.0954C234.447 41.0425 234.927 42.4298 234.927 44.2572C234.927 45.311 234.785 46.2248 234.507 46.9984C234.23 47.7721 233.858 48.3924 233.391 48.8659C232.924 49.3395 232.43 49.6996 231.915 49.9397C231.036 50.3466 230.041 50.5467 228.944 50.5467C227.151 50.5467 225.77 50.0464 224.796 49.0393C223.821 48.0322 223.341 46.5582 223.341 44.6041H223.334ZM226.63 44.0438C226.63 46.1247 226.941 47.6054 227.557 48.4858C227.97 49.0727 228.559 49.3661 229.317 49.3661C229.966 49.3661 230.481 49.146 230.866 48.6992C231.374 48.1056 231.624 46.9584 231.624 45.251C231.624 44.0572 231.523 43.03 231.32 42.1763C231.117 41.3226 230.819 40.7224 230.427 40.3889C230.034 40.0554 229.56 39.882 229.005 39.882C228.532 39.882 228.112 40.002 227.753 40.2488C227.395 40.4956 227.117 40.9091 226.921 41.4894C226.725 42.0696 226.623 42.9233 226.623 44.0371L226.63 44.0438Z" fill="#59262C"/>
<path d="M235.758 40.7372V39.8435C236.441 39.8035 237.125 39.7168 237.815 39.5767C238.505 39.4367 239.392 39.1832 240.468 38.8297L240.637 38.9565C240.529 40.5038 240.468 41.9311 240.468 43.245V44.5589C240.468 45.6794 240.495 46.4197 240.549 46.7999C240.631 47.2934 240.82 47.6603 241.118 47.9137C241.416 48.1672 241.822 48.2872 242.322 48.2872C242.891 48.2872 243.371 48.1405 243.764 47.847C244.157 47.5536 244.42 47.2534 244.576 46.94C244.671 46.7399 244.718 46.313 244.718 45.6727V43.6652L244.691 41.9978C244.691 41.4576 244.657 41.1374 244.583 41.024C244.542 40.9507 244.461 40.8973 244.346 40.8573C244.231 40.8173 243.744 40.7773 242.898 40.7306V39.8369C244.129 39.6835 244.962 39.5567 245.409 39.4634C245.855 39.37 246.606 39.1566 247.669 38.8164L247.892 38.9431L247.764 41.0974C247.703 42.6314 247.669 43.4851 247.669 43.6652V46.0662C247.669 47.4935 247.703 48.3806 247.777 48.7141C247.811 48.8541 247.865 48.9542 247.953 49.0075C248.102 49.0876 248.589 49.1476 249.415 49.1809V50.1213L246.965 50.0613L244.718 50.1213L244.637 50.028L244.711 49.1276C244.718 48.9809 244.725 48.6807 244.725 48.2272C244.414 48.4673 244.143 48.6941 243.913 48.8941L242.566 50.148C242.018 50.3414 241.47 50.4415 240.915 50.4415C239.846 50.4415 239.006 50.1547 238.39 49.5744C237.775 48.9942 237.477 48.2272 237.477 47.2668C237.477 47.1467 237.49 46.7132 237.511 45.9662C237.517 45.566 237.524 45.0525 237.524 44.4189L237.497 41.9444C237.497 41.4909 237.47 41.2108 237.409 41.0974C237.348 40.984 237.253 40.904 237.118 40.8506C236.983 40.7973 236.529 40.7506 235.765 40.7239L235.758 40.7372Z" fill="#59262C"/>
<path d="M263.661 49.2339V50.1343C262.585 50.081 261.705 50.0543 261.021 50.0543C260.236 50.0543 259.553 50.081 258.978 50.1343L258.761 49.9209C258.775 49.7542 258.829 49.0805 258.917 47.8934L258.978 45.9725V45.0454C258.978 43.6782 258.923 42.7778 258.815 42.3509C258.707 41.9241 258.49 41.5773 258.152 41.3105C257.814 41.0437 257.374 40.917 256.819 40.917C256.264 40.917 255.804 41.0504 255.438 41.3105C255.073 41.5706 254.843 41.8374 254.748 42.1042C254.694 42.2576 254.667 42.8845 254.673 43.9783V45.9458C254.673 46.5194 254.687 47.2131 254.721 48.0468C254.727 48.4136 254.761 48.6537 254.815 48.7737C254.856 48.8604 254.903 48.9205 254.971 48.9605C255.066 49.0205 255.255 49.0805 255.533 49.1339C255.628 49.1472 255.959 49.1806 256.534 49.2273V50.1277C255.668 50.0943 254.612 50.081 253.36 50.081C251.912 50.081 250.782 50.0943 249.983 50.1277V49.2273C250.599 49.2273 251.032 49.1873 251.269 49.1005C251.377 49.0605 251.465 48.9938 251.52 48.9005C251.601 48.7537 251.641 48.4736 251.648 48.0534L251.696 47.013C251.702 46.7929 251.709 46.4394 251.709 45.9458V44.4118C251.709 43.7182 251.682 42.8712 251.635 41.8774C251.608 41.3772 251.581 41.0971 251.533 41.0304C251.486 40.9637 251.418 40.917 251.323 40.8836C251.174 40.8303 250.728 40.7902 249.977 40.7636V39.8632C251.418 39.6231 252.366 39.443 252.819 39.3229C253.272 39.2029 253.78 39.0161 254.355 38.7627L254.673 38.9028V40.7902L256.839 39.0762C257.103 38.9761 257.319 38.9094 257.502 38.8694C257.685 38.8294 257.929 38.8161 258.247 38.8161C259.093 38.8161 259.729 38.9094 260.155 39.0962C260.582 39.2829 260.94 39.5497 261.231 39.8899C261.522 40.23 261.732 40.5835 261.847 40.957C261.962 41.3305 262.023 41.9107 262.023 42.6977C262.023 43.5915 262.016 44.1584 261.996 44.3985C261.989 44.4919 261.982 44.6053 261.982 44.7386L261.996 45.9458C262.003 47.2664 262.023 48.0868 262.064 48.3936C262.104 48.7004 262.172 48.9071 262.28 49.0005C262.388 49.0939 262.625 49.1472 262.991 49.1672C263.126 49.1739 263.349 49.1939 263.654 49.2273L263.661 49.2339Z" fill="#59262C"/>
<path d="M277.704 49.2936V50.1406L275.207 50.1072L273.068 50.1406L272.96 50.0472L273.021 49.1201L273.048 48.1597C272.5 48.6133 271.904 49.1201 271.254 49.6871C270.997 49.9205 270.754 50.1206 270.503 50.2873C270.199 50.4074 269.799 50.4607 269.299 50.4607C267.979 50.4607 266.889 49.9872 266.03 49.0334C265.17 48.0797 264.73 46.7858 264.73 45.1384C264.73 44.2247 264.859 43.4043 265.109 42.6907C265.299 42.1438 265.522 41.7236 265.773 41.4235C265.955 41.2034 266.49 40.7898 267.37 40.1829C268.25 39.576 268.886 39.1958 269.272 39.0491C269.657 38.9023 270.151 38.829 270.767 38.829C271.146 38.829 271.464 38.8557 271.715 38.909C271.965 38.9624 272.391 39.1091 273.007 39.3425C273.034 38.889 273.041 38.4088 273.041 37.9019C273.041 37.3083 273.021 36.588 272.98 35.7476C272.967 35.3408 272.919 35.0873 272.852 34.9873C272.798 34.9073 272.716 34.8606 272.615 34.8339C272.513 34.8072 272.026 34.7872 271.153 34.7605V33.8935C272.845 33.7268 274.408 33.3866 275.85 32.873L276.161 33.0465C276.066 35.1407 276.012 36.3746 276.005 36.7414C275.978 38.7823 275.972 41.6369 275.972 45.3118V46.399C275.972 46.9325 275.992 47.5061 276.032 48.1197C276.06 48.5599 276.093 48.8267 276.154 48.9201C276.215 49.0134 276.303 49.0868 276.425 49.1402C276.547 49.1935 276.98 49.2402 277.711 49.2936H277.704ZM273.007 41.8036C272.574 41.2901 272.216 40.9499 271.938 40.7965C271.417 40.4964 270.842 40.3496 270.212 40.3496C269.664 40.3496 269.217 40.483 268.872 40.7432C268.527 41.0033 268.27 41.4301 268.101 42.017C267.932 42.604 267.844 43.2776 267.844 44.0446C267.844 45.4652 268.155 46.5657 268.771 47.3394C269.231 47.913 269.847 48.1931 270.625 48.1931C271.214 48.1931 271.728 48.0263 272.168 47.6995C272.608 47.3727 272.872 47.0526 272.953 46.7524C273.034 46.4523 273.075 45.5186 273.075 43.9646L273.001 41.8103L273.007 41.8036Z" fill="#59262C"/>
<path d="M289.203 49.2608V50.1412C288.289 50.1012 287.484 50.0812 286.773 50.0812C286.11 50.0812 285.46 50.1012 284.831 50.1412L284.723 50.0145L284.831 48.4805C284.547 48.6606 283.707 49.2808 282.307 50.3346C281.948 50.4147 281.61 50.4547 281.285 50.4547C280.418 50.4547 279.742 50.2012 279.254 49.7077C278.767 49.2141 278.523 48.4872 278.523 47.5534C278.523 46.9198 278.632 46.3996 278.848 45.9927C279.065 45.5859 279.302 45.2858 279.552 45.099C279.803 44.9123 280.188 44.7188 280.709 44.5454C281.961 44.1052 283.335 43.7651 284.824 43.5116C284.838 42.5846 284.648 41.8709 284.242 41.3907C283.829 40.9038 283.2 40.6637 282.361 40.6637C282.022 40.6637 281.697 40.7038 281.386 40.7905C281.251 40.8305 281.095 40.9105 280.912 41.0239L280.412 42.2111L279.6 42.0377L279.674 40.5237C280.263 40.1302 280.818 39.79 281.352 39.5032C281.887 39.2164 282.259 39.0364 282.469 38.9763C282.76 38.8896 283.173 38.8496 283.707 38.8496C284.574 38.8496 285.284 38.9697 285.846 39.2164C286.408 39.4632 286.821 39.7567 287.085 40.0902C287.348 40.4236 287.531 40.7838 287.633 41.1706C287.734 41.5575 287.782 42.0377 287.782 42.6246C287.782 42.878 287.761 43.525 287.721 44.5854C287.694 45.2858 287.687 45.866 287.687 46.3062C287.687 47.7001 287.727 48.5405 287.809 48.8406C287.843 48.9807 287.903 49.0741 287.998 49.1208C288.127 49.1808 288.526 49.2408 289.203 49.2875V49.2608ZM284.838 44.4787C284.161 44.6188 283.545 44.7922 282.99 44.9856C282.435 45.179 282.043 45.4325 281.833 45.7259C281.623 46.0194 281.515 46.3862 281.515 46.8331C281.515 47.3333 281.643 47.7202 281.901 47.9936C282.158 48.2671 282.496 48.4071 282.916 48.4071C283.274 48.4071 283.633 48.3071 283.992 48.1003C284.35 47.8936 284.635 47.6401 284.844 47.3266V44.4787H284.838Z" fill="#59262C"/>
<path d="M289.582 41.2171V40.6902L290.651 40.0232C290.827 39.9165 290.99 39.7965 291.152 39.6697V38.0957C291.152 37.5355 291.118 36.8352 291.057 36.0081C291.829 35.7547 292.33 35.588 292.553 35.5013C292.594 35.4879 293.094 35.2545 294.062 34.8076L294.373 35.0411L294.252 36.2616L294.17 37.6088L294.062 39.6631H294.455C295.51 39.6631 296.309 39.6231 296.844 39.543L296.641 41.1237C296.546 41.1371 296.458 41.1504 296.377 41.1504L295.213 41.1237H294.055V45.0388C294.055 46.2393 294.069 46.9529 294.089 47.173C294.123 47.5399 294.252 47.8266 294.488 48.0334C294.725 48.2402 295.064 48.3469 295.504 48.3469C295.774 48.3535 295.991 48.3469 296.153 48.3269C296.316 48.3069 296.526 48.2735 296.776 48.2135L296.965 48.6937L296.539 49.1139C296.187 49.4674 295.883 49.7742 295.625 50.0409C295.314 50.1743 295.043 50.261 294.8 50.3077C294.556 50.3544 294.312 50.3744 294.055 50.3744C293.135 50.3744 292.411 50.141 291.883 49.6741C291.355 49.2072 291.091 48.627 291.091 47.9334L291.138 44.065V41.1704H290.82C290.387 41.1704 289.968 41.1837 289.568 41.2037L289.582 41.2171Z" fill="#59262C"/>
<path d="M297.236 50.1409V49.2739C298.123 49.2138 298.63 49.1405 298.759 49.0671C298.888 48.9937 298.962 48.8537 298.996 48.6536C299.077 48.2267 299.118 47.1196 299.118 45.3388C299.118 42.8911 299.084 41.5038 299.009 41.1637C298.976 41.0103 298.928 40.9035 298.854 40.8569C298.698 40.7568 298.157 40.7035 297.236 40.6901V39.7964C298.434 39.6697 299.341 39.5363 299.95 39.3962C300.559 39.2562 301.229 39.0427 301.947 38.7493L302.231 38.9027C302.136 40.1232 302.089 41.2637 302.089 42.3375V46.3259C302.089 47.6865 302.123 48.4935 302.183 48.7403C302.217 48.8804 302.278 48.9737 302.373 49.0204C302.59 49.1205 303.104 49.1872 303.93 49.2205V50.1342C302.806 50.1009 301.581 50.0876 300.255 50.0876C299.111 50.0876 298.103 50.1009 297.236 50.1342V50.1409ZM300.498 33.1602C301.006 33.1602 301.439 33.3336 301.791 33.6871C302.143 34.0405 302.319 34.4607 302.319 34.9543C302.319 35.4478 302.143 35.8813 301.791 36.2348C301.439 36.5883 301.006 36.7617 300.498 36.7617C299.991 36.7617 299.571 36.5883 299.212 36.2348C298.854 35.8813 298.678 35.4545 298.678 34.9543C298.678 34.4541 298.854 34.0405 299.206 33.6871C299.558 33.3336 299.991 33.1602 300.498 33.1602Z" fill="#59262C"/>
<path d="M304.822 44.6041C304.822 43.2768 305.052 42.1763 305.513 41.3026C305.973 40.4289 306.663 39.7753 307.583 39.3351C308.504 38.8949 309.573 38.6748 310.798 38.6748C312.632 38.6748 314.026 39.1483 314.981 40.0954C315.935 41.0425 316.415 42.4298 316.415 44.2572C316.415 45.311 316.273 46.2248 315.996 46.9984C315.718 47.7721 315.346 48.3924 314.879 48.8659C314.412 49.3395 313.918 49.6996 313.404 49.9397C312.524 50.3466 311.529 50.5467 310.433 50.5467C308.639 50.5467 307.259 50.0464 306.284 49.0393C305.31 48.0322 304.829 46.5582 304.829 44.6041H304.822ZM308.118 44.0438C308.118 46.1247 308.429 47.6054 309.045 48.4858C309.458 49.0727 310.047 49.3661 310.805 49.3661C311.455 49.3661 311.969 49.146 312.355 48.6992C312.862 48.1056 313.113 46.9584 313.113 45.251C313.113 44.0572 313.011 43.03 312.808 42.1763C312.605 41.3226 312.307 40.7224 311.915 40.3889C311.522 40.0554 311.049 39.882 310.494 39.882C310.02 39.882 309.6 40.002 309.242 40.2488C308.883 40.4956 308.605 40.9091 308.409 41.4894C308.213 42.0696 308.111 42.9233 308.111 44.0371L308.118 44.0438Z" fill="#59262C"/>
<path d="M331.001 49.2339V50.1343C329.925 50.081 329.045 50.0543 328.361 50.0543C327.576 50.0543 326.893 50.081 326.317 50.1343L326.101 49.9209C326.114 49.7542 326.169 49.0805 326.256 47.8934L326.317 45.9725V45.0454C326.317 43.6782 326.263 42.7778 326.155 42.3509C326.047 41.9241 325.83 41.5773 325.492 41.3105C325.153 41.0437 324.713 40.917 324.159 40.917C323.604 40.917 323.143 41.0504 322.778 41.3105C322.412 41.5706 322.182 41.8374 322.088 42.1042C322.033 42.2576 322.006 42.8845 322.013 43.9783V45.9458C322.013 46.5194 322.027 47.2131 322.061 48.0468C322.067 48.4136 322.101 48.6537 322.155 48.7737C322.196 48.8604 322.243 48.9205 322.311 48.9605C322.406 49.0205 322.595 49.0805 322.873 49.1339C322.967 49.1472 323.299 49.1806 323.874 49.2273V50.1277C323.008 50.0943 321.952 50.081 320.7 50.081C319.252 50.081 318.122 50.0943 317.323 50.1277V49.2273C317.939 49.2273 318.372 49.1873 318.609 49.1005C318.717 49.0605 318.805 48.9938 318.859 48.9005C318.941 48.7537 318.981 48.4736 318.988 48.0534L319.035 47.013C319.042 46.7929 319.049 46.4394 319.049 45.9458V44.4118C319.049 43.7182 319.022 42.8712 318.974 41.8774C318.947 41.3772 318.92 41.0971 318.873 41.0304C318.826 40.9637 318.758 40.917 318.663 40.8836C318.514 40.8303 318.068 40.7902 317.316 40.7636V39.8632C318.758 39.6231 319.705 39.443 320.159 39.3229C320.612 39.2029 321.12 39.0161 321.695 38.7627L322.013 38.9028V40.7902L324.179 39.0762C324.443 38.9761 324.659 38.9094 324.842 38.8694C325.025 38.8294 325.268 38.8161 325.587 38.8161C326.432 38.8161 327.069 38.9094 327.495 39.0962C327.921 39.2829 328.28 39.5497 328.571 39.8899C328.862 40.23 329.072 40.5835 329.187 40.957C329.302 41.3305 329.363 41.9107 329.363 42.6977C329.363 43.5915 329.356 44.1584 329.336 44.3985C329.329 44.4919 329.322 44.6053 329.322 44.7386L329.336 45.9458C329.343 47.2664 329.363 48.0868 329.403 48.3936C329.444 48.7004 329.512 48.9071 329.62 49.0005C329.728 49.0939 329.965 49.1472 330.331 49.1672C330.466 49.1739 330.689 49.1939 330.994 49.2273L331.001 49.2339Z" fill="#59262C"/>
</g>
<defs>
<clipPath id="clip0_3823_2535">
<rect width="331" height="61" fill="white"/>
</clipPath>
</defs>
</svg>
